<svg width="198" height="197" viewBox="0 0 198 197" fill="none" xmlns="http://www.w3.org/2000/svg">
<path d="M175.08 49.4863C174.442 48.4356 173.779 47.3968 173.091 46.3697C163.883 32.8437 148.556 23.5808 133.671 19.3847C127.178 17.5814 120.493 16.5589 113.758 16.339C69.8863 14.763 53.7717 50.9125 39.635 60.2425C25.4982 69.5724 3.81248 85.4979 6.53896 118.948C8.60352 144.393 23.087 168.719 49.5125 179.79C52.4987 181.038 55.5626 182.09 58.6849 182.942C65.012 184.656 71.5118 185.654 78.0618 185.917C98.0455 186.807 114.274 181.977 130.149 169.861C133.836 167.04 137.509 163.857 142.296 163.51C145.779 163.258 149.076 164.507 145.448 167.871C141.173 171.811 146.106 179.601 156.96 174.199C175.084 165.176 182.547 145.709 186.057 125.914C190.348 101.652 188.256 71.4281 175.08 49.4863Z" fill="#407BFF"/>
<path opacity="0.7" d="M175.08 49.4863C174.442 48.4356 173.779 47.3968 173.091 46.3697C163.883 32.8437 148.556 23.5808 133.671 19.3847C127.178 17.5814 120.493 16.5589 113.758 16.339C69.8863 14.763 53.7717 50.9125 39.635 60.2425C25.4982 69.5724 3.81248 85.4979 6.53896 118.948C8.60352 144.393 23.087 168.719 49.5125 179.79C52.4987 181.038 55.5626 182.09 58.6849 182.942C65.012 184.656 71.5118 185.654 78.0618 185.917C98.0455 186.807 114.274 181.977 130.149 169.861C133.836 167.04 137.509 163.857 142.296 163.51C145.779 163.258 149.076 164.507 145.448 167.871C141.173 171.811 146.106 179.601 156.96 174.199C175.084 165.176 182.547 145.709 186.057 125.914C190.348 101.652 188.256 71.4281 175.08 49.4863Z" fill="white"/>
<path d="M175.237 142.742C175.783 142.886 176.347 142.949 176.911 142.927C176.911 142.927 176.655 142.139 176.631 142.104C176.371 141.556 175.548 140.658 174.878 140.749C174.766 140.765 174.659 140.805 174.564 140.866C174.469 140.928 174.388 141.009 174.327 141.104C174.266 141.199 174.227 141.307 174.211 141.419C174.195 141.531 174.204 141.645 174.236 141.753C174.321 141.981 174.455 142.187 174.628 142.358C174.8 142.528 175.008 142.66 175.237 142.742Z" fill="#263238"/>
<path d="M175.646 146.172C176.204 146.17 176.76 146.084 177.293 145.916C177.469 146.522 177.685 147.115 177.939 147.693C178.084 148.032 178.238 148.367 178.404 148.702C178.305 148.56 178.218 148.434 178.203 148.418C177.809 147.961 176.776 147.311 176.154 147.575C176.05 147.62 175.957 147.687 175.882 147.771C175.806 147.855 175.75 147.955 175.716 148.063C175.682 148.171 175.672 148.285 175.687 148.397C175.701 148.509 175.74 148.617 175.799 148.713C175.941 148.911 176.124 149.075 176.335 149.194C176.547 149.313 176.782 149.384 177.025 149.403C177.568 149.404 178.109 149.321 178.628 149.159L178.817 149.553C179.125 150.163 179.432 150.774 179.72 151.381C179.818 151.593 179.909 151.806 180.003 152.023L179.83 151.775C179.436 151.318 178.4 150.668 177.777 150.932C177.673 150.977 177.581 151.044 177.505 151.128C177.43 151.212 177.373 151.312 177.339 151.42C177.306 151.528 177.296 151.642 177.31 151.754C177.324 151.866 177.363 151.974 177.423 152.07C177.565 152.268 177.749 152.432 177.961 152.551C178.173 152.67 178.409 152.741 178.652 152.76C179.18 152.763 179.705 152.685 180.208 152.527C180.299 152.748 180.385 152.972 180.46 153.189C180.508 153.339 180.563 153.481 180.602 153.634C180.642 153.788 180.689 153.938 180.728 154.087C180.799 154.375 180.874 154.675 180.933 154.958C180.976 155.155 181.016 155.352 181.055 155.533C180.957 155.321 180.756 154.903 180.736 154.872C180.413 154.359 179.491 153.56 178.837 153.729C178.728 153.758 178.626 153.81 178.538 153.882C178.45 153.953 178.379 154.043 178.33 154.145C178.28 154.247 178.253 154.358 178.25 154.471C178.247 154.584 178.269 154.697 178.313 154.801C178.423 155.017 178.58 155.206 178.771 155.356C178.962 155.506 179.184 155.612 179.42 155.667C179.97 155.751 180.529 155.751 181.079 155.667C181.142 155.983 181.201 156.286 181.252 156.578C181.28 156.731 181.303 156.877 181.327 157.019H181.737C181.705 156.853 181.674 156.684 181.638 156.503C181.575 156.184 181.504 155.845 181.426 155.494C181.741 155.368 182.049 155.223 182.348 155.061C182.756 155.411 183.211 155.704 183.699 155.931C183.577 156.227 183.459 156.515 183.34 156.786L183.234 157.019H183.675C183.688 156.994 183.699 156.967 183.707 156.94C183.833 156.641 183.959 156.318 184.101 155.983C184.643 156.106 185.201 156.149 185.756 156.109C185.999 156.073 186.231 155.984 186.435 155.847C186.639 155.711 186.811 155.531 186.938 155.321C186.99 155.218 187.019 155.105 187.023 154.99C187.027 154.875 187.005 154.761 186.96 154.655C186.915 154.549 186.848 154.454 186.762 154.377C186.676 154.3 186.575 154.243 186.465 154.21C185.823 153.997 184.846 154.726 184.495 155.21C184.471 155.238 184.278 155.577 184.156 155.79C184.207 155.656 184.258 155.522 184.31 155.396C184.412 155.116 184.507 154.836 184.609 154.533C184.652 154.387 184.7 154.237 184.743 154.084C184.786 153.93 184.822 153.772 184.865 153.615C184.952 153.248 185.023 152.874 185.086 152.496C185.59 152.695 186.121 152.816 186.662 152.854C186.905 152.853 187.145 152.8 187.365 152.697C187.586 152.594 187.781 152.445 187.938 152.259C188.009 152.168 188.058 152.061 188.083 151.948C188.108 151.835 188.107 151.718 188.082 151.605C188.056 151.493 188.006 151.387 187.935 151.296C187.864 151.204 187.774 151.13 187.67 151.077C187.068 150.766 185.988 151.337 185.563 151.767C185.535 151.79 185.259 152.133 185.113 152.322C185.149 152.094 185.188 151.865 185.216 151.633C185.299 150.963 185.362 150.281 185.429 149.6C185.448 149.391 185.472 149.182 185.496 148.977C186.014 149.189 186.561 149.322 187.119 149.371C187.362 149.37 187.602 149.316 187.822 149.213C188.043 149.111 188.238 148.962 188.395 148.776C188.462 148.685 188.508 148.58 188.531 148.469C188.553 148.358 188.552 148.243 188.526 148.133C188.5 148.023 188.451 147.919 188.381 147.83C188.312 147.74 188.224 147.667 188.124 147.614C187.525 147.303 186.445 147.874 186.016 148.304C185.984 148.335 185.59 148.824 185.5 148.954C185.547 148.497 185.598 148.044 185.669 147.594C185.762 146.992 185.893 146.395 186.063 145.81C186.585 146.019 187.134 146.152 187.694 146.204C187.938 146.203 188.178 146.149 188.399 146.046C188.619 145.942 188.815 145.792 188.971 145.605C189.037 145.513 189.083 145.409 189.105 145.299C189.127 145.188 189.126 145.074 189.101 144.964C189.075 144.855 189.026 144.752 188.958 144.662C188.889 144.573 188.802 144.499 188.703 144.446C188.1 144.135 187.02 144.706 186.595 145.132C186.559 145.167 186.138 145.695 186.071 145.794L186.095 145.691C186.282 145.109 186.52 144.543 186.804 144.001C186.957 143.698 187.123 143.418 187.288 143.15C187.772 143.409 188.293 143.593 188.833 143.694C189.075 143.72 189.32 143.694 189.551 143.615C189.782 143.537 189.992 143.409 190.168 143.241C190.244 143.157 190.301 143.058 190.336 142.951C190.37 142.843 190.381 142.729 190.367 142.617C190.354 142.505 190.316 142.397 190.258 142.301C190.199 142.205 190.12 142.122 190.027 142.059C189.463 141.684 188.328 142.134 187.856 142.508C187.832 142.531 187.592 142.768 187.422 142.941L187.651 142.583C187.934 142.157 188.218 141.795 188.474 141.456C188.62 141.271 188.758 141.105 188.888 140.952C189.435 140.958 189.98 140.881 190.503 140.723C190.729 140.634 190.934 140.497 191.102 140.322C191.27 140.146 191.398 139.936 191.477 139.706C191.512 139.594 191.521 139.476 191.505 139.36C191.488 139.243 191.446 139.132 191.381 139.035C191.316 138.937 191.23 138.855 191.129 138.794C191.029 138.734 190.916 138.697 190.799 138.686C190.125 138.611 189.325 139.533 189.081 140.085C189.057 140.136 188.813 140.92 188.825 140.92C188.695 141.062 188.561 141.219 188.431 141.393C188.171 141.716 187.875 142.086 187.58 142.508C187.26 142.96 186.965 143.43 186.697 143.914C186.398 144.456 186.146 145.023 185.945 145.609V145.632C185.945 145.431 185.945 144.88 185.945 144.844C185.866 144.245 185.366 143.13 184.7 143.008C184.588 142.988 184.474 142.993 184.364 143.021C184.255 143.049 184.152 143.101 184.064 143.172C183.977 143.244 183.905 143.333 183.855 143.435C183.805 143.536 183.777 143.648 183.774 143.761C183.784 144.004 183.846 144.242 183.957 144.458C184.068 144.674 184.224 144.864 184.416 145.014C184.884 145.321 185.395 145.556 185.933 145.711C185.746 146.313 185.597 146.926 185.488 147.547C185.425 147.91 185.37 148.276 185.322 148.646C185.322 148.473 185.322 148.319 185.322 148.3C185.243 147.701 184.739 146.586 184.073 146.464C183.962 146.444 183.848 146.449 183.739 146.478C183.63 146.506 183.528 146.558 183.441 146.63C183.353 146.701 183.282 146.79 183.232 146.891C183.182 146.993 183.155 147.103 183.151 147.216C183.161 147.459 183.223 147.697 183.334 147.913C183.445 148.13 183.602 148.319 183.794 148.469C184.247 148.771 184.744 149.001 185.267 149.151C185.267 149.293 185.232 149.434 185.212 149.572C185.133 150.254 185.054 150.932 184.956 151.593C184.924 151.83 184.881 152.058 184.838 152.287C184.838 152.133 184.838 152.007 184.838 151.987C184.763 151.385 184.258 150.274 183.593 150.151C183.481 150.132 183.367 150.137 183.258 150.166C183.149 150.194 183.047 150.246 182.96 150.317C182.873 150.389 182.802 150.478 182.752 150.579C182.702 150.68 182.674 150.791 182.671 150.904C182.68 151.147 182.742 151.385 182.853 151.602C182.964 151.818 183.121 152.008 183.313 152.157C183.752 152.452 184.235 152.677 184.743 152.823C184.692 153.055 184.645 153.292 184.585 153.512C184.542 153.666 184.511 153.816 184.459 153.965C184.408 154.115 184.361 154.265 184.314 154.411C184.215 154.69 184.109 154.978 184.002 155.25C183.931 155.439 183.861 155.616 183.786 155.797C183.825 155.565 183.884 155.108 183.888 155.069C183.879 154.537 183.735 154.017 183.47 153.556C183.474 153.497 183.474 153.437 183.47 153.378C183.458 153.266 183.422 153.157 183.364 153.06C183.306 152.963 183.228 152.879 183.135 152.815C183.042 152.751 182.936 152.707 182.825 152.688C182.713 152.668 182.599 152.672 182.489 152.701C181.835 152.874 181.422 154.021 181.39 154.623C181.39 154.659 181.414 155.049 181.43 155.293C181.398 155.151 181.367 155.013 181.331 154.868C181.264 154.576 181.185 154.292 181.106 153.981C181.059 153.835 181.016 153.686 180.969 153.536C180.921 153.386 180.862 153.233 180.811 153.079C180.681 152.724 180.535 152.37 180.378 152.019C180.907 151.91 181.416 151.72 181.887 151.456C182.089 151.321 182.259 151.143 182.386 150.936C182.512 150.728 182.592 150.495 182.619 150.254C182.624 150.141 182.605 150.029 182.563 149.924C182.521 149.819 182.457 149.725 182.375 149.647C182.293 149.57 182.196 149.51 182.089 149.474C181.982 149.437 181.869 149.424 181.757 149.434C181.083 149.505 180.5 150.577 180.378 151.168C180.378 151.207 180.326 151.641 180.311 151.881C180.216 151.668 180.121 151.46 180.015 151.251C179.716 150.644 179.393 150.041 179.073 149.434C178.975 149.253 178.876 149.064 178.782 148.879C179.333 148.768 179.865 148.574 180.358 148.304C180.56 148.169 180.73 147.991 180.857 147.784C180.984 147.576 181.063 147.343 181.091 147.102C181.096 146.989 181.078 146.876 181.036 146.771C180.994 146.666 180.93 146.571 180.848 146.493C180.766 146.415 180.668 146.355 180.561 146.318C180.454 146.281 180.34 146.268 180.228 146.278C179.554 146.353 178.971 147.425 178.849 148.016C178.849 148.063 178.782 148.686 178.778 148.847C178.565 148.453 178.356 148.032 178.167 147.618C177.91 147.065 177.69 146.495 177.509 145.912C178.06 145.798 178.592 145.603 179.085 145.333C179.287 145.198 179.458 145.02 179.584 144.813C179.711 144.605 179.791 144.373 179.818 144.131C179.823 144.018 179.804 143.906 179.762 143.801C179.72 143.697 179.655 143.602 179.574 143.525C179.492 143.447 179.394 143.388 179.288 143.351C179.181 143.314 179.068 143.301 178.955 143.312C178.281 143.383 177.698 144.454 177.576 145.049C177.576 145.092 177.505 145.766 177.505 145.888C177.468 145.855 177.433 145.818 177.403 145.778C177.234 145.189 177.12 144.587 177.06 143.977C177.021 143.643 177.005 143.319 176.993 143.004C177.535 142.95 178.066 142.818 178.569 142.61C178.785 142.497 178.973 142.339 179.122 142.147C179.271 141.954 179.377 141.732 179.432 141.495C179.45 141.382 179.443 141.266 179.411 141.156C179.379 141.046 179.324 140.944 179.249 140.857C179.174 140.771 179.081 140.701 178.977 140.654C178.872 140.607 178.759 140.584 178.644 140.585C177.966 140.585 177.269 141.586 177.068 142.161C177.068 142.193 176.989 142.524 176.942 142.764C176.942 142.622 176.942 142.476 176.942 142.338C176.942 141.826 176.973 141.357 177.005 140.944C177.025 140.707 177.048 140.494 177.072 140.297C177.531 140 177.943 139.635 178.293 139.214C178.432 139.014 178.527 138.787 178.57 138.548C178.614 138.309 178.605 138.063 178.545 137.827C178.51 137.72 178.451 137.621 178.374 137.539C178.296 137.456 178.202 137.391 178.098 137.348C177.993 137.305 177.88 137.285 177.767 137.29C177.654 137.294 177.543 137.323 177.442 137.374C176.839 137.685 176.682 138.895 176.78 139.494C176.78 139.545 177.017 140.333 177.029 140.325C177.001 140.518 176.973 140.719 176.95 140.948C176.91 141.342 176.867 141.83 176.855 142.346C176.838 142.9 176.851 143.453 176.895 144.005C176.943 144.624 177.045 145.237 177.202 145.837C177.202 145.837 177.202 145.837 177.202 145.857C177.096 145.691 176.78 145.23 176.753 145.199C176.359 144.742 175.326 144.092 174.7 144.356C174.596 144.401 174.503 144.468 174.428 144.552C174.352 144.636 174.296 144.736 174.262 144.844C174.229 144.952 174.219 145.066 174.233 145.178C174.247 145.29 174.286 145.398 174.345 145.494C174.497 145.698 174.692 145.865 174.918 145.983C175.143 146.1 175.392 146.165 175.646 146.172Z" fill="#263238"/>
<path d="M187.253 143.023C187.253 143.023 187.469 142.235 187.477 142.184C187.56 141.585 187.367 140.379 186.76 140.084C186.658 140.035 186.546 140.009 186.433 140.008C186.319 140.007 186.207 140.03 186.103 140.076C186 140.122 185.907 140.189 185.832 140.274C185.757 140.359 185.702 140.46 185.669 140.568C185.613 140.805 185.611 141.051 185.66 141.289C185.71 141.528 185.811 141.752 185.956 141.947C186.334 142.367 186.771 142.729 187.253 143.023Z" fill="#263238"/>
<path d="M6.90852 142.742C7.45446 142.886 8.01877 142.949 8.58302 142.927C8.58302 142.927 8.32692 142.139 8.30328 142.104C8.04324 141.556 7.21978 140.658 6.54998 140.749C6.43802 140.765 6.33086 140.805 6.23579 140.866C6.14073 140.928 6.05999 141.009 5.99905 141.104C5.93812 141.199 5.89843 141.307 5.88268 141.419C5.86692 141.531 5.87548 141.645 5.90776 141.753C5.99307 141.981 6.12673 142.187 6.29952 142.358C6.4723 142.528 6.68008 142.66 6.90852 142.742Z" fill="#263238"/>
<path d="M7.31722 146.172C7.87595 146.17 8.43116 146.084 8.96414 145.916C9.14078 146.521 9.35528 147.115 9.60636 147.693C9.75214 148.032 9.90974 148.367 10.0752 148.701C9.97672 148.56 9.89004 148.434 9.87428 148.418C9.48028 147.961 8.448 147.311 7.82548 147.575C7.7214 147.619 7.6282 147.686 7.55224 147.77C7.47627 147.854 7.41933 147.954 7.3853 148.062C7.35127 148.17 7.34095 148.284 7.35504 148.396C7.36913 148.509 7.4073 148.617 7.46694 148.713C7.6096 148.91 7.79344 149.074 8.0057 149.193C8.21797 149.312 8.45358 149.384 8.69622 149.403C9.24009 149.404 9.78089 149.321 10.2998 149.158L10.4889 149.552C10.7962 150.163 11.1036 150.774 11.3912 151.381C11.4897 151.593 11.5803 151.806 11.6749 152.023L11.5015 151.775C11.1075 151.318 10.0713 150.667 9.44876 150.931C9.34501 150.977 9.25221 151.044 9.17666 151.128C9.10111 151.212 9.04459 151.312 9.01095 151.42C8.9773 151.528 8.96732 151.642 8.98168 151.754C8.99604 151.866 9.0344 151.974 9.09416 152.07C9.23625 152.268 9.41995 152.432 9.63233 152.551C9.84471 152.67 10.0806 152.741 10.3234 152.76C10.8511 152.763 11.376 152.684 11.8797 152.527C11.9704 152.748 12.057 152.972 12.1319 153.189C12.1792 153.339 12.2343 153.481 12.2737 153.634C12.3131 153.788 12.3604 153.938 12.3998 154.087C12.4707 154.375 12.5456 154.674 12.6047 154.958C12.648 155.155 12.6874 155.352 12.7229 155.533C12.6283 155.321 12.4274 154.903 12.4077 154.871C12.0846 154.359 11.1627 153.559 10.5086 153.729C10.3992 153.758 10.2972 153.81 10.2096 153.882C10.1221 153.953 10.051 154.043 10.0013 154.145C9.95159 154.246 9.92436 154.358 9.92147 154.471C9.91859 154.584 9.94012 154.696 9.9846 154.801C10.0951 155.017 10.2513 155.206 10.4425 155.356C10.6337 155.506 10.8553 155.612 11.0917 155.667C11.6415 155.751 12.2007 155.751 12.7505 155.667C12.8135 155.983 12.8726 156.286 12.9238 156.578C12.9514 156.731 12.9751 156.877 12.9987 157.019H13.4163C13.3848 156.853 13.3533 156.684 13.3178 156.503C13.2548 156.184 13.1799 155.845 13.1011 155.494C13.4181 155.368 13.7273 155.223 14.027 155.061C14.4358 155.411 14.8904 155.704 15.3785 155.931C15.2563 156.227 15.1381 156.514 15.0199 156.786L14.9135 157.019H15.3548C15.3677 156.994 15.3782 156.967 15.3863 156.94C15.5124 156.641 15.6385 156.317 15.7803 155.983C16.3226 156.107 16.8803 156.149 17.4351 156.109C17.6781 156.073 17.9102 155.983 18.1145 155.847C18.3189 155.711 18.4906 155.531 18.6171 155.321C18.6692 155.22 18.699 155.11 18.7046 154.997C18.7102 154.884 18.6914 154.771 18.6496 154.666C18.6077 154.561 18.5437 154.466 18.462 154.388C18.3803 154.31 18.2827 154.251 18.1759 154.214C17.5336 154.001 16.5565 154.73 16.2059 155.214C16.1822 155.242 15.9892 155.581 15.867 155.793C15.9182 155.659 15.9695 155.526 16.0207 155.399C16.1231 155.12 16.2177 154.84 16.3201 154.537C16.3635 154.391 16.4107 154.241 16.4541 154.087C16.4974 153.934 16.5329 153.776 16.5762 153.619C16.6629 153.252 16.7338 152.878 16.7969 152.5C17.3009 152.699 17.8323 152.819 18.3729 152.858C18.616 152.857 18.856 152.803 19.0764 152.701C19.2968 152.598 19.4923 152.449 19.6494 152.263C19.7198 152.171 19.7692 152.065 19.794 151.952C19.8187 151.839 19.8183 151.722 19.7927 151.609C19.7672 151.497 19.7171 151.391 19.646 151.299C19.5749 151.208 19.4846 151.134 19.3815 151.081C18.7787 150.77 17.6991 151.341 17.2697 151.771C17.246 151.794 16.9702 152.137 16.8244 152.326C16.8599 152.098 16.8993 151.869 16.9269 151.637C17.0096 150.967 17.0727 150.285 17.1396 149.604C17.1396 149.395 17.183 149.186 17.2066 148.981C17.725 149.193 18.2722 149.326 18.8299 149.375C19.0725 149.374 19.3119 149.32 19.5316 149.218C19.7514 149.115 19.9461 148.966 20.1025 148.78C20.1694 148.689 20.2158 148.584 20.2386 148.473C20.2613 148.363 20.26 148.248 20.2346 148.138C20.2091 148.027 20.1602 147.924 20.0912 147.834C20.0222 147.745 19.9347 147.671 19.8346 147.618C19.2357 147.307 18.1562 147.878 17.7267 148.307C17.6952 148.339 17.3012 148.828 17.2106 148.958C17.2578 148.501 17.3091 148.047 17.38 147.598C17.4728 146.995 17.6044 146.399 17.774 145.813C18.2958 146.023 18.8453 146.155 19.4051 146.207C19.6488 146.207 19.8893 146.153 20.1099 146.05C20.3304 145.946 20.5256 145.796 20.6817 145.609C20.7479 145.517 20.7937 145.413 20.8161 145.303C20.8385 145.192 20.8369 145.078 20.8115 144.968C20.7861 144.859 20.7375 144.755 20.6689 144.666C20.6003 144.577 20.5133 144.503 20.4138 144.45C19.811 144.139 18.7314 144.71 18.3059 145.136C18.2704 145.171 17.8488 145.699 17.7779 145.798C17.7894 145.764 17.7986 145.73 17.8055 145.695C17.9918 145.112 18.2291 144.546 18.5147 144.005C18.6684 143.702 18.8338 143.422 18.9993 143.154C19.4833 143.413 20.0042 143.597 20.5438 143.698C20.786 143.724 21.0312 143.698 21.2619 143.619C21.4927 143.541 21.7035 143.413 21.8795 143.245C21.9553 143.161 22.0123 143.062 22.0466 142.954C22.0809 142.847 22.0917 142.733 22.0782 142.621C22.0648 142.509 22.0274 142.401 21.9687 142.305C21.9099 142.208 21.8311 142.126 21.7376 142.063C21.1742 141.688 20.0395 142.137 19.5667 142.512L19.1333 142.945L19.3618 142.587C19.6455 142.161 19.9292 141.799 20.1853 141.46C20.331 141.275 20.4689 141.109 20.5793 140.955C21.125 140.962 21.6685 140.885 22.1907 140.727C22.4177 140.639 22.6227 140.502 22.7915 140.326C22.9602 140.151 23.0887 139.941 23.1678 139.71C23.1969 139.601 23.202 139.487 23.1831 139.376C23.1641 139.264 23.1214 139.158 23.0579 139.065C22.9944 138.971 22.9115 138.893 22.8149 138.834C22.7183 138.776 22.6102 138.739 22.498 138.725C21.8243 138.651 21.0245 139.572 20.7802 140.124C20.7566 140.175 20.5123 140.959 20.5241 140.959C20.3941 141.101 20.2601 141.259 20.1301 141.432C19.8701 141.755 19.5746 142.126 19.2791 142.547C18.9578 142.998 18.6631 143.468 18.3965 143.954C18.0957 144.495 17.8438 145.062 17.644 145.648C17.644 145.648 17.644 145.648 17.644 145.672C17.644 145.471 17.644 144.919 17.644 144.884C17.5652 144.285 17.0608 143.17 16.3989 143.048C16.2875 143.028 16.173 143.032 16.0634 143.06C15.9538 143.089 15.8515 143.14 15.7637 143.212C15.6758 143.283 15.6044 143.373 15.5542 143.474C15.5041 143.576 15.4764 143.687 15.473 143.8C15.4827 144.043 15.5451 144.281 15.6561 144.497C15.767 144.714 15.9237 144.903 16.1152 145.053C16.5832 145.36 17.0945 145.595 17.6321 145.75C17.445 146.352 17.2963 146.966 17.1869 147.586C17.1239 147.949 17.0687 148.315 17.0214 148.686C17.0214 148.512 17.0214 148.359 17.0214 148.339C16.9426 147.74 16.4383 146.625 15.7725 146.503C15.6613 146.484 15.5473 146.489 15.4381 146.517C15.329 146.546 15.2273 146.598 15.1399 146.669C15.0524 146.74 14.9814 146.83 14.9315 146.931C14.8815 147.032 14.8539 147.143 14.8505 147.255C14.8602 147.498 14.9226 147.736 15.0335 147.953C15.1444 148.169 15.3011 148.359 15.4927 148.508C15.9454 148.811 16.4426 149.041 16.9663 149.19C16.9466 149.332 16.9269 149.474 16.9111 149.612C16.8323 150.293 16.7535 150.971 16.655 151.633C16.6235 151.869 16.5802 152.098 16.5368 152.326C16.5368 152.173 16.5368 152.046 16.5368 152.027C16.462 151.424 15.9576 150.313 15.2918 150.191C15.1799 150.162 15.0631 150.159 14.9496 150.18C14.8361 150.202 14.7288 150.248 14.6352 150.316C14.5416 150.383 14.464 150.471 14.4079 150.572C14.3519 150.673 14.3187 150.785 14.3107 150.9C14.3196 151.143 14.3817 151.381 14.4927 151.598C14.6036 151.814 14.7608 152.004 14.9529 152.153C15.3921 152.448 15.8746 152.673 16.3832 152.819C16.3319 153.051 16.2847 153.288 16.2256 153.508C16.1822 153.662 16.1507 153.812 16.0995 153.961C16.0483 154.111 16.001 154.261 15.9537 154.407C15.8513 154.686 15.7488 154.974 15.6424 155.246C15.5715 155.435 15.5006 155.612 15.4257 155.793C15.4651 155.561 15.5242 155.104 15.5282 155.065C15.5188 154.533 15.3751 154.013 15.1105 153.552C15.1145 153.493 15.1145 153.433 15.1105 153.374C15.0983 153.262 15.062 153.153 15.0041 153.056C14.9462 152.959 14.8681 152.875 14.775 152.811C14.6819 152.747 14.5761 152.703 14.4647 152.684C14.3533 152.664 14.239 152.668 14.1295 152.697C13.4754 152.87 13.0617 154.017 13.0302 154.619C13.0302 154.655 13.0539 155.045 13.0696 155.289C13.0381 155.147 13.0066 155.009 12.9711 154.864C12.9041 154.572 12.8253 154.288 12.7465 153.977C12.6993 153.831 12.6559 153.682 12.6086 153.532C12.5614 153.382 12.5023 153.228 12.451 153.075C12.321 152.72 12.1752 152.366 12.0176 152.015C12.5367 151.906 13.0361 151.718 13.4991 151.459C13.7013 151.325 13.8717 151.147 13.9982 150.94C14.1248 150.732 14.2046 150.499 14.2319 150.258C14.237 150.145 14.2177 150.033 14.1755 149.928C14.1333 149.823 14.0692 149.729 13.9874 149.651C13.9056 149.574 13.808 149.514 13.7014 149.478C13.5947 149.441 13.4814 149.427 13.3691 149.438C12.6953 149.509 12.1083 150.581 11.9861 151.172C11.9861 151.211 11.9388 151.645 11.9231 151.885C11.8285 151.672 11.734 151.463 11.6276 151.255C11.3281 150.648 11.0051 150.045 10.6859 149.438C10.5874 149.257 10.4889 149.068 10.3944 148.883C10.9458 148.772 11.4772 148.578 11.9704 148.307C12.1741 148.173 12.3459 147.996 12.4739 147.789C12.6019 147.581 12.6828 147.348 12.7111 147.106C12.7167 146.993 12.6979 146.88 12.656 146.775C12.614 146.67 12.55 146.575 12.4681 146.497C12.3862 146.418 12.2885 146.359 12.1815 146.322C12.0745 146.285 11.9609 146.271 11.8482 146.282C11.1745 146.357 10.5914 147.429 10.4692 148.02C10.4692 148.067 10.4022 148.69 10.3944 148.851C10.1855 148.457 9.97672 148.036 9.7876 147.622C9.53013 147.069 9.31031 146.499 9.12962 145.916C9.68079 145.802 10.2119 145.607 10.7056 145.337C10.9079 145.202 11.0782 145.024 11.2048 144.817C11.3314 144.609 11.4111 144.377 11.4385 144.135C11.4435 144.022 11.4243 143.91 11.3821 143.805C11.3399 143.701 11.2757 143.606 11.1939 143.528C11.1121 143.451 11.0146 143.392 10.9079 143.355C10.8012 143.318 10.6879 143.305 10.5756 143.315C9.90186 143.386 9.31874 144.458 9.1966 145.053C9.1966 145.096 9.12568 145.77 9.12568 145.892C9.11153 145.859 9.09968 145.825 9.09022 145.79C8.92168 145.201 8.80695 144.599 8.74744 143.989C8.70804 143.654 8.69228 143.331 8.68046 143.016C9.22219 142.962 9.75313 142.829 10.2565 142.622C10.4753 142.51 10.6672 142.352 10.8189 142.159C10.9706 141.966 11.0785 141.742 11.1351 141.503C11.1529 141.39 11.1457 141.274 11.1142 141.164C11.0826 141.054 11.0274 140.952 10.9524 140.865C10.8773 140.778 10.7843 140.709 10.6798 140.662C10.5752 140.615 10.4617 140.592 10.3471 140.593C9.6694 140.593 8.97202 141.594 8.77108 142.169C8.77108 142.2 8.69228 142.531 8.645 142.772C8.645 142.63 8.645 142.484 8.645 142.346C8.645 141.834 8.67652 141.365 8.70804 140.951C8.72774 140.715 8.75138 140.502 8.77502 140.305C9.23433 140.008 9.6461 139.642 9.99642 139.222C10.1355 139.022 10.2301 138.795 10.2736 138.556C10.3171 138.317 10.3086 138.071 10.2486 137.835C10.2127 137.728 10.1541 137.629 10.0768 137.547C9.99951 137.464 9.90533 137.399 9.80065 137.356C9.69598 137.313 9.58327 137.293 9.4702 137.297C9.35713 137.302 9.24634 137.331 9.14538 137.382C8.54256 137.693 8.38496 138.903 8.48346 139.502C8.48346 139.553 8.71986 140.341 8.73168 140.333C8.7041 140.526 8.67652 140.727 8.65288 140.955C8.61348 141.349 8.57014 141.838 8.55832 142.354C8.53685 142.907 8.55001 143.461 8.59772 144.013C8.64567 144.631 8.74851 145.245 8.90504 145.845C8.90504 145.845 8.90504 145.845 8.90504 145.865C8.79866 145.699 8.48346 145.238 8.45588 145.207C8.06188 144.75 7.02566 144.1 6.40314 144.364C6.29939 144.409 6.20659 144.476 6.13104 144.56C6.05549 144.644 5.99897 144.744 5.96533 144.852C5.93168 144.96 5.9217 145.074 5.93606 145.186C5.95042 145.298 5.98878 145.406 6.04854 145.502C6.19737 145.701 6.38834 145.864 6.60771 145.979C6.82708 146.095 7.0694 146.161 7.31722 146.172Z" fill="#263238"/>
<path d="M18.9246 143.023C18.9246 143.023 19.1413 142.235 19.1492 142.184C19.2319 141.585 19.0389 140.379 18.4321 140.084C18.3296 140.035 18.2179 140.009 18.1046 140.008C17.9912 140.007 17.8789 140.03 17.7753 140.076C17.6717 140.122 17.5793 140.189 17.5043 140.274C17.4292 140.359 17.3735 140.46 17.3407 140.568C17.2853 140.805 17.2824 141.051 17.3321 141.289C17.3817 141.528 17.4829 141.752 17.6283 141.947C18.0057 142.367 18.4424 142.729 18.9246 143.023Z" fill="#263238"/>
<path d="M137.719 29.1513H89.6514C89.6207 29.152 89.5903 29.1451 89.5629 29.1314C89.5354 29.1177 89.5117 29.0975 89.4938 29.0725C89.4746 29.0485 89.4616 29.0201 89.4561 28.9898C89.4506 28.9596 89.4527 28.9284 89.4623 28.8992C89.5017 28.777 90.4118 25.9008 93.3511 25.1601C94.5551 24.8486 95.8227 24.8842 97.0074 25.2625C97.6723 25.4985 98.3895 25.5463 99.0798 25.4004C99.6755 25.2408 100.19 24.8641 100.522 24.3445C101.062 23.6826 101.806 22.7685 103.883 21.5865C106.081 20.3218 107.429 20.7985 108.705 21.2792C109.671 21.6338 110.581 21.9687 111.857 21.5708C113.039 21.2083 113.477 20.4676 114.005 19.6008C114.793 18.2887 115.718 16.8034 119.398 16.5079C125.037 16.0587 128.764 22.1893 129.248 23.0089C129.853 23.0688 130.461 23.0872 131.069 23.064C132.435 22.9931 133.804 23.134 135.127 23.4817C137.885 24.2342 137.92 28.7691 137.92 28.9583C137.92 28.9841 137.914 29.0097 137.904 29.0334C137.893 29.0571 137.879 29.0785 137.86 29.0964C137.841 29.1144 137.819 29.1284 137.795 29.1379C137.771 29.1473 137.745 29.1518 137.719 29.1513ZM89.939 28.7573H137.515C137.475 27.8945 137.188 24.4509 135.021 23.8599C133.736 23.5232 132.406 23.3902 131.081 23.4659C130.423 23.4931 129.764 23.4694 129.111 23.395C129.079 23.3906 129.05 23.379 129.024 23.3612C128.998 23.3435 128.976 23.32 128.961 23.2925C128.925 23.2256 125.21 16.4448 119.454 16.9097C115.943 17.1855 115.155 18.5133 114.367 19.8096C113.819 20.7 113.307 21.5353 112.003 21.9411C110.596 22.3785 109.58 22.0081 108.595 21.6456C107.334 21.1846 106.144 20.7473 104.107 21.9254C102.07 23.1034 101.377 23.9623 100.853 24.6006C100.469 25.1832 99.8842 25.604 99.2099 25.7826C98.4534 25.9452 97.6668 25.8962 96.9365 25.6408C95.8137 25.2864 94.6143 25.2523 93.4732 25.5423C91.2274 26.1096 90.2345 28.0639 89.939 28.7573Z" fill="#263238"/>
<path d="M98.7821 20.5136H72.1123C72.0812 20.5131 72.0507 20.5057 72.0228 20.4921C71.9949 20.4785 71.9703 20.4589 71.9507 20.4348C71.933 20.4093 71.9213 20.3801 71.9165 20.3494C71.9117 20.3186 71.914 20.2872 71.9231 20.2575C72.0913 19.748 72.3812 19.2871 72.7677 18.915C73.1543 18.5429 73.6258 18.2707 74.1414 18.122C74.8238 17.9471 75.5416 17.9662 76.2138 18.1772C76.5687 18.3044 76.9517 18.3317 77.321 18.256C77.6338 18.1698 77.9034 17.9704 78.0774 17.6965C78.5891 17.0447 79.2321 16.5077 79.9647 16.1205C80.3695 15.8543 80.8367 15.698 81.3202 15.6669C81.8038 15.6358 82.2871 15.731 82.7227 15.9432C83.2487 16.2023 83.8514 16.2597 84.4169 16.1048C84.6687 16.016 84.8998 15.877 85.0962 15.6961C85.2927 15.5153 85.4503 15.2964 85.5595 15.0528C86.0165 14.3081 86.5366 13.4768 88.6209 13.2955C91.7729 13.0394 93.7941 16.3018 94.1369 16.9085C94.4539 16.9362 94.7723 16.9441 95.0903 16.9322C95.8571 16.8912 96.6256 16.971 97.3677 17.1686C98.9437 17.602 98.9791 20.1827 98.9791 20.293C98.9825 20.3208 98.9799 20.3489 98.9715 20.3756C98.9631 20.4023 98.9491 20.427 98.9305 20.4478C98.9119 20.4687 98.889 20.4854 98.8634 20.4967C98.8378 20.5081 98.8101 20.5138 98.7821 20.5136ZM72.3841 20.1196H98.5575C98.5221 19.5404 98.3251 17.8659 97.2455 17.5704C96.539 17.3849 95.8079 17.3105 95.0785 17.3498C94.7077 17.3662 94.3362 17.353 93.9674 17.3104C93.9363 17.306 93.9066 17.2944 93.8806 17.2767C93.8547 17.2589 93.8331 17.2354 93.8177 17.208C93.8177 17.1725 91.7571 13.4531 88.6248 13.7092C86.7375 13.8629 86.2963 14.5839 85.8668 15.2852C85.7326 15.5688 85.5433 15.8229 85.31 16.0326C85.0766 16.2423 84.8038 16.4034 84.5075 16.5066C83.8603 16.6908 83.168 16.6319 82.5611 16.3412C82.1807 16.1499 81.7563 16.0631 81.3314 16.0894C80.9064 16.1157 80.496 16.2542 80.142 16.4909C79.4541 16.8504 78.8478 17.348 78.3611 17.9526C78.1362 18.291 77.7959 18.5361 77.4037 18.6421C76.9692 18.7392 76.5162 18.7133 76.0956 18.5673C75.4883 18.3716 74.8379 18.3525 74.2202 18.5121C73.8179 18.6301 73.4466 18.8353 73.1326 19.1132C72.8187 19.391 72.5699 19.7347 72.4038 20.1196H72.3841Z" fill="#263238"/>
<path d="M46.3552 50.4315H19.6814C19.6507 50.4322 19.6203 50.4253 19.5928 50.4116C19.5654 50.3979 19.5417 50.3777 19.5238 50.3527C19.5054 50.3283 19.493 50.2999 19.4876 50.2698C19.4821 50.2397 19.4837 50.2087 19.4923 50.1794C19.6625 49.6704 19.9537 49.2102 20.3407 48.8383C20.7277 48.4664 21.199 48.1938 21.7144 48.0439C22.3973 47.873 23.114 47.8921 23.7869 48.0991C24.1399 48.2282 24.5222 48.2555 24.8901 48.1779C25.2036 48.0955 25.4741 47.8968 25.6465 47.6223C26.1599 46.9706 26.8042 46.4338 27.5377 46.0463C27.9426 45.7801 28.4097 45.6238 28.8933 45.5927C29.3768 45.5616 29.8601 45.6568 30.2957 45.869C30.8222 46.1271 31.4249 46.1832 31.9899 46.0266C32.241 45.9374 32.4714 45.7982 32.6671 45.6173C32.8628 45.4365 33.0198 45.2179 33.1286 44.9746C33.5896 44.23 34.1057 43.3986 36.19 43.2174C39.342 42.9613 41.3671 46.2276 41.706 46.8343C42.0213 46.8691 42.3383 46.8862 42.6555 46.8855C43.4223 46.8442 44.1909 46.924 44.9328 47.1219C46.5088 47.5553 46.5482 50.136 46.5482 50.2424C46.5462 50.2926 46.5251 50.3402 46.4892 50.3753C46.4534 50.4105 46.4054 50.4306 46.3552 50.4315ZM19.9572 50.0375H46.1345C46.0991 49.4584 45.8981 47.7878 44.8186 47.4923C44.1133 47.3079 43.3832 47.2361 42.6555 47.2795C42.2847 47.294 41.9133 47.2808 41.5444 47.2401C41.5139 47.2354 41.4849 47.2237 41.4596 47.206C41.4343 47.1882 41.4134 47.1648 41.3987 47.1377C41.3987 47.0983 39.3341 43.3829 36.2018 43.639C34.3185 43.7926 33.8733 44.5137 33.4438 45.215C33.3092 45.499 33.1193 45.7533 32.8852 45.963C32.6511 46.1727 32.3776 46.3336 32.0806 46.4364C31.4333 46.6205 30.7411 46.5617 30.1342 46.2709C29.7548 46.0791 29.3312 45.9915 28.9069 46.0171C28.4825 46.0427 28.0725 46.1806 27.719 46.4167C27.0289 46.7763 26.4211 47.2754 25.9342 47.8824C25.71 48.2215 25.3694 48.4668 24.9767 48.5719C24.5433 48.6686 24.0913 48.6413 23.6726 48.4931C23.0632 48.3015 22.4128 48.2824 21.7932 48.4379C21.3919 48.5565 21.0212 48.761 20.7069 49.0373C20.3926 49.3135 20.1421 49.6548 19.9729 50.0375H19.9572Z" fill="#263238"/>
<path d="M184.977 48.7051H127.161C127.13 48.7054 127.099 48.6984 127.071 48.6848C127.043 48.6711 127.019 48.6511 127 48.6263C126.982 48.6024 126.97 48.5747 126.964 48.5453C126.959 48.5159 126.96 48.4856 126.968 48.4569C126.968 48.4214 128.103 44.8715 131.618 43.985C133.059 43.6158 134.576 43.6581 135.995 44.1071C136.866 44.3278 137.618 44.5011 138.509 44.2765C139.399 44.052 139.734 43.6383 140.266 42.9882C140.916 42.2002 141.806 41.1088 144.297 39.6707C146.924 38.1538 148.52 38.7369 150.065 39.3043C151.247 39.7298 152.334 40.1356 153.886 39.651C155.297 39.2136 155.856 38.3153 156.487 37.287C157.452 35.711 158.544 33.9419 162.945 33.5834C169.741 33.0357 174.233 40.4981 174.765 41.4043C175.501 41.478 176.243 41.5004 176.983 41.4713C178.624 41.3858 180.268 41.5559 181.857 41.9756C185.146 42.87 185.182 48.2796 185.182 48.5239C185.178 48.5747 185.154 48.622 185.116 48.6558C185.078 48.6896 185.028 48.7073 184.977 48.7051ZM127.453 48.3111H184.776C184.737 47.3379 184.41 43.067 181.742 42.3381C180.19 41.9318 178.585 41.7671 176.983 41.8495C176.194 41.8823 175.403 41.8547 174.619 41.7668C174.588 41.763 174.558 41.7517 174.533 41.7338C174.508 41.7159 174.487 41.6921 174.473 41.6643C174.426 41.5816 169.95 33.3903 162.992 33.9616C158.788 34.3005 157.799 35.9316 156.838 37.4761C156.187 38.5399 155.569 39.5407 154.016 40.0253C152.338 40.5454 151.121 40.1001 149.943 39.6707C148.418 39.1112 146.98 38.5832 144.509 40.0056C142.039 41.4279 141.215 42.4641 140.569 43.2364C140.029 43.8944 139.635 44.3711 138.599 44.6508C137.563 44.9306 136.771 44.7099 135.885 44.4854C134.529 44.055 133.079 44.0127 131.7 44.3632C128.958 45.0567 127.756 47.5113 127.441 48.3111H127.453Z" fill="#263238"/>
<path d="M141.863 86.1626L137.841 71.0843C134.511 59.6858 124.074 58.4763 124.074 58.4763C95.9781 56.329 76.3333 58.1256 71.8692 58.6102C63.9498 58.9609 60.0492 63.7756 57.9295 70.0047L52.4766 86.1587L141.863 86.1626Z" fill="#407BFF"/>
<path d="M142.118 86.3602H52.2031L57.7388 69.9423C60.2525 62.4917 64.8702 58.7211 71.8598 58.4138C77.096 57.8465 96.3745 56.1641 124.088 58.2799C127.382 58.8643 130.441 60.3733 132.909 62.6309C135.378 64.8884 137.153 67.8013 138.028 71.0297L142.118 86.3602ZM52.7508 85.9662H141.606L137.666 71.1361C134.411 59.9938 124.167 58.6817 124.065 58.6699C96.3942 56.5581 77.1433 58.2405 71.9031 58.8039C65.0869 59.1073 60.5835 62.7912 58.1131 70.0683L52.7508 85.9662Z" fill="#263238"/>
<path d="M131.893 80.7664C134.651 81.1604 136.948 78.824 136.172 76.3891L134.179 70.1206C131.87 61.5117 121.645 60.503 121.645 60.503C96.0827 58.8679 78.2029 60.239 74.1408 60.6055C66.9306 60.8694 63.3649 64.5455 61.454 69.2971L58.7196 76.0857C57.7228 78.5679 60.0395 81.1053 62.9236 80.6876L82.5448 77.8351C92.1035 76.4541 101.811 76.4541 111.37 77.8351L131.893 80.7664Z" fill="#263238"/>
<path d="M132.518 80.9892C132.3 80.9902 132.083 80.9757 131.868 80.9458L111.344 78.0105C101.807 76.6303 92.1199 76.6303 82.5822 78.0105L62.961 80.8591C62.2356 80.9751 61.4924 80.8986 60.8058 80.6372C60.1192 80.3759 59.5133 79.9388 59.0486 79.3698C58.6682 78.9037 58.4209 78.3435 58.3328 77.7485C58.2448 77.1534 58.3192 76.5456 58.5482 75.9893L61.2786 69.2007C63.5717 63.5074 67.7796 60.6233 74.1427 60.3869C78.9062 59.9535 96.451 58.6691 121.671 60.2845C121.781 60.2845 132.061 61.4074 134.377 70.0478L136.367 76.3084C136.546 76.8615 136.578 77.4517 136.46 78.0209C136.342 78.5902 136.078 79.1189 135.693 79.555C135.302 80.0125 134.814 80.3782 134.265 80.6261C133.717 80.8739 133.12 80.9979 132.518 80.9892ZM97.0302 76.5764C101.839 76.5803 106.641 76.9279 111.399 77.6165L131.923 80.5676C132.559 80.6708 133.21 80.6103 133.816 80.3918C134.422 80.1733 134.963 79.8039 135.386 79.3186C135.726 78.932 135.96 78.4638 136.065 77.9596C136.17 77.4554 136.143 76.9326 135.985 76.4424L133.991 70.1739C131.742 61.7895 121.73 60.7179 121.632 60.6942C96.4471 59.0828 78.9298 60.3633 74.1585 60.7967C67.9569 61.0252 63.8672 63.8265 61.6372 69.3662L58.9067 76.1508C58.704 76.6437 58.6384 77.1822 58.7168 77.7094C58.7951 78.2365 59.0146 78.7327 59.352 79.1452C59.7737 79.6598 60.3233 80.0545 60.9457 80.2896C61.5681 80.5247 62.2413 80.592 62.898 80.4848L82.5192 77.6362C87.3245 76.9354 92.174 76.5812 97.0302 76.5764Z" fill="#263238"/>
<path d="M105.674 59.7891L87.2109 77.2551C88.8342 77.0949 90.4588 76.9753 92.0847 76.8965L110.272 59.9191C108.696 59.8836 107.167 59.8245 105.674 59.7891Z" fill="white"/>
<path d="M86.6641 77.5089L105.604 59.5938H105.682C107.258 59.6292 108.779 59.6726 110.284 59.7238H110.757L92.1722 77.0598H92.0973C90.4859 77.1386 88.8508 77.2568 87.2354 77.4144L86.6641 77.5089ZM105.757 59.9917L87.7673 77.0046C89.1778 76.8746 90.6041 76.7722 92.0067 76.7052L109.792 60.102C108.46 60.0587 107.148 60.0232 105.757 59.9917Z" fill="#263238"/>
<path d="M121.653 60.4829C119.939 60.3726 118.269 60.2781 116.63 60.1953L97.8438 76.7788C102.371 76.8123 106.892 77.1519 111.374 77.7953L129.943 63.8241C126.224 60.936 121.653 60.4829 121.653 60.4829Z" fill="white"/>
<path d="M111.425 78.0096H111.347C106.872 77.368 102.36 77.0284 97.8403 76.9931H97.3281L116.559 60.0156H116.638C118.344 60.1023 120.034 60.1969 121.666 60.3032C121.713 60.3032 126.342 60.7957 130.062 63.6759L130.267 63.8335L111.425 78.0096ZM98.3565 76.5912C102.696 76.6484 107.027 76.984 111.323 77.5959L129.62 63.8059C127.248 62.1358 124.509 61.0614 121.634 60.6736C120.034 60.5712 118.376 60.4727 116.701 60.3899L98.3565 76.5912Z" fill="#263238"/>
<path d="M132.528 81.3893C132.291 81.3879 132.054 81.3708 131.819 81.338L111.295 78.4067C101.792 77.0382 92.141 77.0448 82.6396 78.4264L63.0144 81.275C62.2211 81.4007 61.4087 81.3158 60.6584 81.0289C59.9082 80.7419 59.2465 80.2629 58.7396 79.6399C58.319 79.1182 58.0454 78.4936 57.947 77.8307C57.8486 77.1678 57.9291 76.4907 58.1801 75.8693L60.9105 69.0807C63.2745 63.2259 67.6085 60.259 74.1253 60.0187C78.8769 59.5892 96.4493 58.3009 121.693 59.9163C121.819 59.9163 132.37 61.0707 134.754 69.9711L136.724 76.216C136.923 76.8328 136.959 77.4906 136.827 78.1252C136.696 78.7599 136.403 79.3496 135.975 79.8369C135.547 80.3297 135.017 80.7237 134.422 80.9917C133.827 81.2597 133.181 81.3953 132.528 81.3893ZM131.988 80.1679C132.558 80.2567 133.14 80.2011 133.683 80.0063C134.225 79.8115 134.71 79.4837 135.093 79.0528C135.388 78.7168 135.591 78.3103 135.683 77.8727C135.775 77.4351 135.752 76.9811 135.617 76.5549L133.623 70.2824C132.705 66.8743 130.428 64.3054 126.839 62.6191C125.18 61.8425 123.413 61.3217 121.598 61.0746C96.4572 59.4671 78.9636 60.7476 74.2001 61.1771C68.0655 61.4056 64.2043 64.0493 62.0098 69.5023L59.2754 76.2909C59.1002 76.7196 59.0444 77.1876 59.1137 77.6455C59.1831 78.1033 59.3751 78.5338 59.6694 78.8913C60.0489 79.3491 60.542 79.6992 61.0993 79.9066C61.6566 80.1141 62.2586 80.1715 62.845 80.0733L82.4584 77.2247C92.0709 75.8273 101.834 75.8207 111.449 77.205L131.988 80.1679Z" fill="white"/>
<path d="M132.522 81.5852C132.275 81.5845 132.029 81.566 131.785 81.5301L111.262 78.579C101.777 77.2162 92.1448 77.2229 82.6614 78.5987L63.0363 81.4513C62.2082 81.5817 61.3604 81.4924 60.5777 81.1923C59.795 80.8922 59.1048 80.3919 58.5762 79.7413C58.1346 79.1917 57.8477 78.5343 57.7452 77.8368C57.6427 77.1393 57.7283 76.4271 57.9931 75.7737L60.7235 68.989C63.1111 63.0515 67.4924 60.0452 74.1195 59.801C78.8869 59.3676 96.4396 58.0831 121.707 59.6985C121.821 59.6985 132.518 60.8372 134.949 69.8992L136.919 76.1362C137.128 76.7846 137.165 77.4761 137.027 78.1431C136.889 78.8102 136.58 79.4301 136.131 79.9422C135.684 80.4611 135.13 80.8767 134.507 81.1604C133.884 81.444 133.207 81.589 132.522 81.5852ZM97.0306 77.1685C101.81 77.168 106.583 77.509 111.313 78.1889L131.837 81.14C132.571 81.2557 133.322 81.1834 134.021 80.9298C134.72 80.6762 135.343 80.2497 135.832 79.6901C136.238 79.2285 136.518 78.669 136.643 78.0666C136.768 77.4643 136.734 76.8397 136.545 76.2544L134.575 70.0095C132.211 61.2036 121.786 60.1004 121.679 60.0925C96.4632 58.4771 78.9184 59.7616 74.151 60.195C67.6894 60.4314 63.4263 63.347 61.1017 69.1348L58.3713 75.9195C58.1328 76.5088 58.0559 77.1511 58.1487 77.7801C58.2416 78.409 58.5007 79.0017 58.8993 79.497C59.3839 80.0951 60.0171 80.5554 60.7355 80.8319C61.4539 81.1085 62.2323 81.1916 62.9929 81.073L82.6181 78.2205C87.3908 77.5246 92.2074 77.1731 97.0306 77.1685ZM132.491 80.3993C132.307 80.3997 132.124 80.3866 131.943 80.3599L111.419 77.4088C101.823 76.0298 92.0782 76.0377 82.4841 77.4325L62.859 80.2811C62.2368 80.3819 61.599 80.3178 61.0093 80.0952C60.4196 79.8726 59.8985 79.4992 59.4981 79.0124C59.1825 78.6273 58.977 78.1638 58.9034 77.6713C58.8299 77.1788 58.8911 76.6755 59.0805 76.215L61.8109 69.4303C64.041 63.8946 67.9691 61.2115 74.1786 60.979C78.9342 60.5496 96.4396 59.2691 121.596 60.8766C123.436 61.1321 125.226 61.6634 126.908 62.4526C130.552 64.1665 132.869 66.7866 133.799 70.2459L135.788 76.5105C135.94 76.966 135.969 77.4532 135.875 77.9237C135.78 78.3943 135.564 78.832 135.249 79.1936C134.904 79.5829 134.479 79.8924 134.003 80.1006C133.526 80.3088 133.01 80.4108 132.491 80.3993ZM97.0306 75.9865C101.865 75.986 106.693 76.331 111.479 77.0188L132.006 79.9698C132.542 80.0556 133.092 80.0049 133.603 79.8224C134.115 79.6399 134.572 79.3315 134.933 78.9257C135.207 78.6148 135.395 78.2384 135.48 77.8331C135.565 77.4278 135.544 77.0075 135.418 76.6129L133.424 70.3444C132.526 66.9915 130.272 64.4541 126.726 62.7954C125.089 62.0275 123.345 61.5134 121.553 61.2706C96.4317 59.6631 78.9539 60.9436 74.1943 61.373C68.1464 61.5976 64.3443 64.2059 62.1655 69.5761L59.4351 76.3608C59.2715 76.7572 59.2188 77.1906 59.2826 77.6147C59.3465 78.0388 59.5245 78.4375 59.7976 78.7681C60.1546 79.2012 60.6191 79.5329 61.1446 79.73C61.6702 79.9271 62.2382 79.9826 62.792 79.891L82.4132 77.0424C87.2538 76.3382 92.139 75.9853 97.0306 75.9865Z" fill="#263238"/>
<path d="M45.4062 139.946L60.855 141.983H130.625L147.602 140.115V136.719H45.5757L45.4062 139.946Z" fill="#263238"/>
<path d="M60.8567 142.181L45.2031 140.117L45.3922 136.523H147.801V140.294L130.65 142.177L60.8567 142.181ZM45.6168 139.774L60.8843 141.787H130.622L147.403 139.939V136.917H45.7508L45.6168 139.774Z" fill="#263238"/>
<path d="M144.555 135.703H161.15V153.461C161.15 154.514 160.732 155.524 159.987 156.269C159.242 157.014 158.232 157.432 157.179 157.432H148.511C147.457 157.432 146.447 157.014 145.702 156.269C144.957 155.524 144.539 154.514 144.539 153.461V135.703H144.555Z" fill="#263238"/>
<path d="M157.18 157.619H148.512C147.408 157.618 146.349 157.179 145.567 156.398C144.786 155.618 144.346 154.559 144.344 153.455V135.5H161.333V153.455C161.332 154.557 160.895 155.614 160.116 156.394C159.338 157.175 158.282 157.615 157.18 157.619ZM144.75 135.894V153.455C144.752 154.455 145.15 155.413 145.858 156.12C146.565 156.827 147.524 157.224 148.524 157.225H157.192C158.192 157.224 159.15 156.827 159.857 156.12C160.564 155.413 160.962 154.454 160.963 153.455V135.894H144.75Z" fill="#263238"/>
<path d="M33.3751 135.703H49.9704V153.461C49.9704 154.514 49.552 155.524 48.8072 156.269C48.0624 157.014 47.0522 157.432 45.9989 157.432H37.3309C36.2776 157.432 35.2674 157.014 34.5226 156.269C33.7778 155.524 33.3594 154.514 33.3594 153.461V135.703H33.3751Z" fill="#263238"/>
<path d="M46.0006 157.619H37.3326C36.228 157.618 35.1689 157.179 34.3875 156.398C33.6061 155.618 33.1661 154.559 33.1641 153.455V135.5H50.1533V153.455C50.1523 154.557 49.7148 155.614 48.9366 156.394C48.1584 157.175 47.1027 157.615 46.0006 157.619ZM33.5699 135.894V153.455C33.572 154.455 33.9704 155.413 34.678 156.12C35.3855 156.827 36.3443 157.224 37.3444 157.225H46.0124C47.0121 157.224 47.9706 156.827 48.6775 156.12C49.3843 155.413 49.7819 154.454 49.783 153.455V135.894H33.5699Z" fill="#263238"/>
<path d="M47.6094 86.2892C47.6094 86.2892 64.2086 78.0152 96.9894 77.4005C129.77 76.7859 147.599 87.4751 147.599 87.4751V131.312H47.6094V86.2892Z" fill="#407BFF"/>
<path d="M147.797 131.502H47.4141V86.1923L47.5244 86.1372C47.6899 86.0544 64.5373 77.8435 96.9871 77.2288C129.437 76.6142 147.522 87.2246 147.699 87.331L147.797 87.3901V131.502ZM47.8081 131.108H147.403V87.5989C145.946 86.7676 128.125 77.0161 96.995 77.6071C66.0069 78.1941 49.321 85.7156 47.8081 86.4209V131.108Z" fill="#263238"/>
<path d="M53.7225 92.9219C53.7225 92.9219 72.6739 102.461 95.4865 101.85C118.299 101.239 147.053 95.1519 147.053 95.1519V131.309H52.8281L53.7225 92.9219Z" fill="#263238"/>
<path d="M147.228 131.505H52.625L53.5312 92.6016L53.807 92.7434C53.9961 92.838 72.983 102.255 95.4567 101.652C117.931 101.049 146.7 95.0207 146.988 94.9537L147.228 94.9025V131.505ZM53.0269 131.111H146.834V95.395C144.013 95.9742 116.926 101.467 95.4567 102.046C74.362 102.613 56.3325 94.3903 53.8976 93.228L53.0269 131.111Z" fill="#263238"/>
<path d="M41.4992 80.4062C42.1993 80.4062 42.8707 80.6844 43.3658 81.1794C43.8609 81.6745 44.139 82.3459 44.139 83.046V85.3273H38.8594V83.046C38.8594 82.3459 39.1375 81.6745 39.6326 81.1794C40.1276 80.6844 40.7991 80.4062 41.4992 80.4062Z" fill="#263238"/>
<path d="M44.3377 85.526H38.6641V83.0477C38.6641 82.2954 38.9629 81.5738 39.4949 81.0418C40.0269 80.5098 40.7485 80.2109 41.5009 80.2109C42.2532 80.2109 42.9748 80.5098 43.5068 81.0418C44.0388 81.5738 44.3377 82.2954 44.3377 83.0477V85.526ZM39.0581 85.132H43.9437V83.0477C43.9437 82.3999 43.6863 81.7785 43.2282 81.3204C42.7701 80.8623 42.1487 80.6049 41.5009 80.6049C40.853 80.6049 40.2317 80.8623 39.7735 81.3204C39.3154 81.7785 39.0581 82.3999 39.0581 83.0477V85.132Z" fill="#263238"/>
<path d="M44.139 83.5312H38.8594V85.3318H44.139V83.5312Z" fill="#407BFF"/>
<path d="M44.3377 85.5227H38.6641V83.3281H44.3377V85.5227ZM39.0581 85.1287H43.9437V83.7221H39.0581V85.1287Z" fill="#263238"/>
<path d="M41.6907 84.2891C45.7806 84.2891 49.703 85.9138 52.5951 88.8058C55.4871 91.6978 57.1118 95.6203 57.1118 99.7102V134.619H26.2734V99.7102C26.2734 95.621 27.8976 91.6991 30.7888 88.8072C33.68 85.9153 37.6014 84.2901 41.6907 84.2891Z" fill="#407BFF"/>
<path d="M57.3125 134.815H26.0801V99.71C26.0472 97.6384 26.4268 95.5809 27.1968 93.6574C27.9668 91.7339 29.1119 89.9829 30.5652 88.5063C32.0186 87.0296 33.7512 85.8569 35.6622 85.0565C37.5732 84.256 39.6244 83.8438 41.6963 83.8438C43.7682 83.8438 45.8193 84.256 47.7303 85.0565C49.6413 85.8569 51.374 87.0296 52.8273 88.5063C54.2807 89.9829 55.4257 91.7339 56.1958 93.6574C56.9658 95.5809 57.3454 97.6384 57.3125 99.71V134.815ZM26.4741 134.421H56.9185V99.71C56.951 97.6904 56.5812 95.6845 55.8308 93.8092C55.0804 91.9338 53.9644 90.2266 52.5476 88.7869C51.1309 87.3472 49.4418 86.2038 47.5788 85.4233C45.7158 84.6428 43.7162 84.2409 41.6963 84.2409C39.6764 84.2409 37.6767 84.6428 35.8137 85.4233C33.9507 86.2038 32.2617 87.3472 30.8449 88.7869C29.4282 90.2266 28.3121 91.9338 27.5617 93.8092C26.8113 95.6845 26.4416 97.6904 26.4741 99.71V134.421Z" fill="#263238"/>
<path d="M26.2734 131.711L26.5098 134.619H57.1118V108.295C53.6131 106.365 47.0648 103.339 40.1028 103.173C35.0442 103.019 30.1109 104.763 26.2734 108.063V131.711Z" fill="#263238"/>
<path d="M57.3105 134.815H26.3303L26.0781 131.711V107.988L26.1451 107.929C30.0284 104.612 35.0035 102.853 40.1085 102.992C47.2005 103.146 53.8591 106.274 57.2081 108.114L57.3105 108.173V134.815ZM26.6928 134.421H56.9165V108.417C53.5675 106.577 47.0192 103.54 40.1006 103.39C35.1231 103.248 30.2689 104.951 26.4721 108.173V131.707L26.6928 134.421Z" fill="#263238"/>
<path d="M39.6562 87.3374C39.6562 87.3374 45.4638 86.4431 49.258 88.9134C53.0522 91.3838 55.5069 97.1874 55.5069 97.1874L51.2674 94.9535L53.9466 98.9723L47.6938 101.206L39.6562 87.3374Z" fill="white"/>
<path d="M42.3406 107.287C47.8852 104.991 50.5182 98.6343 48.2215 93.0897C45.9249 87.5451 39.5683 84.9121 34.0237 87.2088C28.4791 89.5054 25.8462 95.862 28.1428 101.407C30.4395 106.951 36.796 109.584 42.3406 107.287Z" fill="white"/>
<path d="M38.1807 108.307C35.9926 108.307 33.8535 107.658 32.0342 106.442C30.2148 105.227 28.7967 103.499 27.9594 101.477C27.122 99.4555 26.9029 97.2309 27.3298 95.0848C27.7567 92.9387 28.8104 90.9674 30.3576 89.4201C31.9049 87.8729 33.8762 86.8192 36.0223 86.3923C38.1684 85.9654 40.3929 86.1845 42.4145 87.0218C44.4361 87.8592 46.164 89.2773 47.3797 91.0966C48.5954 92.916 49.2442 95.0551 49.2442 97.2432C49.2411 100.176 48.0745 102.989 46.0004 105.063C43.9262 107.137 41.114 108.304 38.1807 108.307ZM38.1807 86.5737C36.0705 86.5737 34.0076 87.1994 32.253 88.3718C30.4985 89.5442 29.1309 91.2106 28.3234 93.1602C27.5158 95.1098 27.3045 97.255 27.7162 99.3247C28.1279 101.394 29.1441 103.296 30.6362 104.788C32.1284 106.28 34.0295 107.296 36.0992 107.708C38.1689 108.119 40.3142 107.908 42.2638 107.101C44.2134 106.293 45.8797 104.925 47.0521 103.171C48.2245 101.416 48.8502 99.3534 48.8502 97.2432C48.8481 94.4141 47.7234 91.7015 45.7229 89.701C43.7224 87.7006 41.0098 86.5758 38.1807 86.5737Z" fill="#263238"/>
<path d="M43.5222 104.312C46.758 101.076 46.758 95.83 43.5222 92.5942C40.2864 89.3584 35.0401 89.3584 31.8043 92.5942C28.5685 95.83 28.5685 101.076 31.8043 104.312C35.0401 107.548 40.2864 107.548 43.5222 104.312Z" fill="white"/>
<path d="M37.6626 106.942C35.9839 106.943 34.3427 106.446 32.9465 105.514C31.5504 104.582 30.462 103.257 29.819 101.706C29.1761 100.155 29.0075 98.4488 29.3345 96.8022C29.6615 95.1557 30.4695 93.6432 31.6562 92.4559C32.8429 91.2686 34.3551 90.4599 36.0015 90.1321C37.6479 89.8043 39.3545 89.9722 40.9055 90.6144C42.4565 91.2566 43.7821 92.3444 44.7148 93.7401C45.6476 95.1358 46.1454 96.7768 46.1454 98.4555C46.1433 100.705 45.249 102.862 43.6588 104.453C42.0685 106.044 39.9121 106.939 37.6626 106.942ZM37.6626 90.3667C36.0616 90.3659 34.4965 90.84 33.165 91.7289C31.8335 92.6179 30.7957 93.8817 30.1827 95.3607C29.5697 96.8396 29.4091 98.4671 29.7212 100.037C30.0333 101.608 30.8042 103.05 31.9362 104.182C33.0682 105.314 34.5106 106.085 36.0808 106.397C37.651 106.709 39.2785 106.548 40.7574 105.935C42.2363 105.322 43.5002 104.285 44.3892 102.953C45.2781 101.622 45.7522 100.056 45.7514 98.4555C45.7493 96.3109 44.8964 94.2547 43.3799 92.7382C41.8634 91.2217 39.8072 90.3688 37.6626 90.3667Z" fill="#263238"/>
<path d="M42.1912 116.6C43.0681 114.483 42.0628 112.056 39.9459 111.179C37.829 110.303 35.402 111.308 34.5252 113.425C33.6483 115.542 34.6536 117.969 36.7705 118.845C38.8874 119.722 41.3143 118.717 42.1912 116.6Z" fill="white"/>
<path d="M38.3496 119.356C37.4924 119.356 36.6545 119.101 35.9418 118.625C35.2291 118.149 34.6736 117.472 34.3455 116.68C34.0175 115.888 33.9317 115.017 34.0989 114.176C34.2661 113.335 34.6789 112.563 35.285 111.957C35.8911 111.351 36.6634 110.938 37.5041 110.771C38.3448 110.604 39.2162 110.689 40.0082 111.017C40.8001 111.345 41.477 111.901 41.9532 112.614C42.4294 113.326 42.6836 114.164 42.6836 115.022C42.6836 116.171 42.227 117.273 41.4142 118.086C40.6014 118.899 39.4991 119.356 38.3496 119.356ZM38.3496 111.058C37.5704 111.058 36.8086 111.289 36.1607 111.722C35.5127 112.155 35.0078 112.77 34.7095 113.49C34.4113 114.21 34.3333 115.002 34.4853 115.767C34.6374 116.531 35.0126 117.233 35.5636 117.784C36.1146 118.335 36.8167 118.71 37.581 118.862C38.3453 119.014 39.1375 118.936 39.8574 118.638C40.5773 118.34 41.1927 117.835 41.6256 117.187C42.0585 116.539 42.2896 115.777 42.2896 114.998C42.2896 113.953 41.8745 112.951 41.1356 112.212C40.3967 111.473 39.3946 111.058 38.3496 111.058Z" fill="#263238"/>
<path d="M40.6726 117.334C41.9528 116.053 41.9528 113.978 40.6726 112.698C39.3924 111.418 37.3169 111.418 36.0367 112.698C34.7565 113.978 34.7565 116.053 36.0367 117.334C37.3169 118.614 39.3924 118.614 40.6726 117.334Z" fill="white"/>
<path d="M38.3501 118.481C37.6626 118.481 36.9906 118.278 36.419 117.895C35.8475 117.513 35.4021 116.97 35.1391 116.335C34.8762 115.7 34.8077 115.001 34.9421 114.327C35.0765 113.653 35.4078 113.034 35.8942 112.548C36.3806 112.062 37.0002 111.731 37.6745 111.598C38.3489 111.464 39.0477 111.533 39.6827 111.797C40.3176 112.061 40.86 112.507 41.2414 113.079C41.6228 113.651 41.8259 114.323 41.8252 115.01C41.8241 115.931 41.4575 116.814 40.8059 117.465C40.1543 118.116 39.271 118.481 38.3501 118.481ZM38.3501 111.929C37.7407 111.929 37.145 112.11 36.6383 112.448C36.1316 112.787 35.7367 113.268 35.5035 113.831C35.2703 114.394 35.2093 115.014 35.3282 115.611C35.4471 116.209 35.7405 116.758 36.1714 117.189C36.6023 117.62 37.1513 117.913 37.749 118.032C38.3467 118.151 38.9662 118.09 39.5292 117.857C40.0922 117.624 40.5733 117.229 40.9119 116.722C41.2505 116.215 41.4312 115.62 41.4312 115.01C41.4312 114.606 41.3515 114.205 41.1966 113.831C41.0418 113.457 40.8148 113.118 40.5287 112.832C40.2426 112.546 39.903 112.319 39.5292 112.164C39.1553 112.009 38.7547 111.929 38.3501 111.929Z" fill="#263238"/>
<path d="M64.972 125.087C67.8677 122.191 67.8677 117.496 64.9719 114.6C62.0762 111.705 57.3812 111.705 54.4854 114.6C51.5897 117.496 51.5897 122.191 54.4854 125.087C57.3812 127.983 62.0762 127.983 64.972 125.087Z" fill="white"/>
<path d="M59.7293 127.451C58.2227 127.452 56.7497 127.005 55.4966 126.169C54.2436 125.332 53.2668 124.143 52.6899 122.751C52.1129 121.359 51.9618 119.828 52.2555 118.35C52.5493 116.872 53.2747 115.515 54.3401 114.449C55.4054 113.384 56.7628 112.659 58.2406 112.365C59.7183 112.071 61.2499 112.222 62.6417 112.799C64.0336 113.376 65.223 114.353 66.0595 115.606C66.8961 116.859 67.3422 118.332 67.3414 119.839C67.3393 121.857 66.5367 123.792 65.1096 125.219C63.6825 126.646 61.7475 127.449 59.7293 127.451ZM59.7293 112.617C58.3008 112.616 56.9041 113.039 55.7159 113.832C54.5278 114.625 53.6015 115.753 53.0543 117.072C52.507 118.392 52.3635 119.844 52.6417 121.245C52.9199 122.646 53.6074 123.934 54.6173 124.944C55.6271 125.954 56.914 126.643 58.315 126.922C59.716 127.201 61.1684 127.058 62.4882 126.511C63.8081 125.965 64.9363 125.039 65.73 123.851C66.5238 122.664 66.9474 121.267 66.9474 119.839C66.9464 117.924 66.1857 116.089 64.8324 114.735C63.4791 113.38 61.6437 112.619 59.7293 112.617Z" fill="#263238"/>
<path d="M59.7338 125.694C62.9695 125.694 65.5926 123.071 65.5926 119.835C65.5926 116.6 62.9695 113.977 59.7338 113.977C56.4981 113.977 53.875 116.6 53.875 119.835C53.875 123.071 56.4981 125.694 59.7338 125.694Z" fill="white"/>
<path d="M59.7316 125.893C58.5335 125.894 57.3622 125.539 56.3657 124.874C55.3692 124.209 54.5924 123.263 54.1336 122.156C53.6748 121.05 53.5545 119.832 53.788 118.657C54.0216 117.482 54.5984 116.402 55.4456 115.555C56.2927 114.708 57.3721 114.131 58.5472 113.897C59.7223 113.664 60.9402 113.784 62.0469 114.243C63.1536 114.702 64.0994 115.479 64.7645 116.475C65.4296 117.472 65.7842 118.643 65.7834 119.841C65.7814 121.445 65.1431 122.983 64.0086 124.118C62.8741 125.252 61.336 125.891 59.7316 125.893ZM59.7316 114.179C58.6116 114.178 57.5166 114.51 56.585 115.131C55.6534 115.753 54.9271 116.637 54.498 117.672C54.0689 118.706 53.9562 119.845 54.1742 120.943C54.3922 122.042 54.9311 123.051 55.7228 123.843C56.5144 124.635 57.5233 125.175 58.6217 125.394C59.72 125.612 60.8586 125.501 61.8934 125.072C62.9282 124.644 63.8127 123.918 64.435 122.987C65.0573 122.056 65.3894 120.961 65.3894 119.841C65.3884 118.34 64.7921 116.901 63.7314 115.84C62.6707 114.779 61.2322 114.181 59.7316 114.179Z" fill="#263238"/>
<path d="M154.312 80.4062C155.012 80.4062 155.683 80.6844 156.178 81.1794C156.673 81.6745 156.951 82.3459 156.951 83.046V85.3273H151.672V83.046C151.672 82.3459 151.95 81.6745 152.445 81.1794C152.94 80.6844 153.612 80.4062 154.312 80.4062Z" fill="#263238"/>
<path d="M157.15 85.526H151.477V83.0477C151.477 82.2954 151.775 81.5738 152.307 81.0418C152.839 80.5098 153.561 80.2109 154.313 80.2109C155.066 80.2109 155.787 80.5098 156.319 81.0418C156.851 81.5738 157.15 82.2954 157.15 83.0477V85.526ZM151.871 85.132H156.756V83.0477C156.756 82.3999 156.499 81.7785 156.041 81.3204C155.583 80.8623 154.961 80.6049 154.313 80.6049C153.665 80.6049 153.044 80.8623 152.586 81.3204C152.128 81.7785 151.871 82.3999 151.871 83.0477V85.132Z" fill="#263238"/>
<path d="M156.951 83.5312H151.672V85.3318H156.951V83.5312Z" fill="#407BFF"/>
<path d="M157.15 85.5227H151.477V83.3281H157.15V85.5227ZM151.871 85.1287H156.756V83.7221H151.871V85.1287Z" fill="#263238"/>
<path d="M169.258 134.617H138.419V99.7088C138.419 95.6188 140.044 91.6964 142.936 88.8044C145.828 85.9124 149.751 84.2876 153.841 84.2876C157.929 84.2887 161.85 85.9133 164.741 88.8044C167.632 91.6954 169.257 95.6163 169.258 99.7048V134.613V134.617Z" fill="#407BFF"/>
<path d="M169.445 134.815H138.213V99.71C138.18 97.6384 138.56 95.5809 139.33 93.6574C140.1 91.7339 141.245 89.9829 142.698 88.5063C144.151 87.0296 145.884 85.8569 147.795 85.0565C149.706 84.256 151.757 83.8437 153.829 83.8438C155.901 83.8437 157.952 84.256 159.863 85.0565C161.774 85.8569 163.507 87.0296 164.96 88.5063C166.414 89.9829 167.559 91.7339 168.329 93.6574C169.099 95.5809 169.478 97.6384 169.445 99.71V134.815ZM138.607 134.421H169.051V99.71C169.084 97.6904 168.714 95.6845 167.964 93.8092C167.213 91.9338 166.097 90.2266 164.68 88.7869C163.264 87.3472 161.575 86.2038 159.712 85.4233C157.849 84.6428 155.849 84.2409 153.829 84.2409C151.809 84.2409 149.81 84.6428 147.947 85.4233C146.084 86.2038 144.394 87.3472 142.978 88.7869C141.561 90.2266 140.445 91.9338 139.695 93.8092C138.944 95.6845 138.574 97.6904 138.607 99.71V134.421Z" fill="#263238"/>
<path d="M169.252 106.534C167.282 103.843 163.977 100.297 159.757 99.3949C153.508 98.0553 150.384 102.519 146.14 104.517C141.897 106.515 138.552 104.962 138.552 104.962L138.414 105.151V134.607H169.252V106.534Z" fill="#263238"/>
<path d="M169.443 134.812H138.211V105.096L138.479 104.722L138.629 104.793C138.66 104.793 141.95 106.29 146.052 104.344C147.262 103.727 148.42 103.012 149.515 102.208C152.34 100.238 155.259 98.225 159.794 99.1982C164.026 100.104 167.355 103.623 169.408 106.412L169.443 106.468V134.812ZM138.605 134.418H169.049V106.594C167.036 103.867 163.793 100.459 159.712 99.5804C155.346 98.6466 152.497 100.624 149.739 102.531C148.627 103.35 147.449 104.076 146.217 104.702C142.399 106.511 139.326 105.49 138.613 105.215L138.605 134.418Z" fill="#263238"/>
<path d="M165.02 104.934C169.264 100.69 169.264 93.8098 165.02 89.5662C160.776 85.3226 153.896 85.3226 149.653 89.5662C145.409 93.8099 145.409 100.69 149.653 104.934C153.896 109.177 160.776 109.177 165.02 104.934Z" fill="white"/>
<path d="M157.337 108.307C155.149 108.307 153.01 107.658 151.19 106.442C149.371 105.227 147.953 103.499 147.116 101.477C146.278 99.4555 146.059 97.2309 146.486 95.0848C146.913 92.9387 147.967 90.9674 149.514 89.4201C151.061 87.8729 153.032 86.8192 155.179 86.3923C157.325 85.9654 159.549 86.1845 161.571 87.0218C163.592 87.8592 165.32 89.2773 166.536 91.0966C167.752 92.916 168.4 95.0551 168.4 97.2432C168.397 100.176 167.231 102.989 165.157 105.063C163.082 107.137 160.27 108.304 157.337 108.307ZM157.337 86.5737C155.227 86.5737 153.164 87.1994 151.409 88.3718C149.655 89.5442 148.287 91.2106 147.48 93.1602C146.672 95.1098 146.461 97.255 146.872 99.3247C147.284 101.394 148.3 103.296 149.792 104.788C151.285 106.28 153.186 107.296 155.255 107.708C157.325 108.119 159.47 107.908 161.42 107.101C163.37 106.293 165.036 104.925 166.208 103.171C167.381 101.416 168.006 99.3534 168.006 97.2432C168.004 94.4141 166.88 91.7015 164.879 89.701C162.879 87.7006 160.166 86.5758 157.337 86.5737Z" fill="#263238"/>
<path d="M159.74 106.523C164.195 105.482 166.963 101.025 165.921 96.5688C164.879 92.1128 160.423 89.3451 155.967 90.387C151.511 91.4288 148.743 95.8857 149.785 100.342C150.827 104.798 155.284 107.565 159.74 106.523Z" fill="white"/>
<path d="M157.858 106.942C156.179 106.943 154.538 106.446 153.142 105.514C151.746 104.582 150.657 103.257 150.014 101.706C149.371 100.155 149.203 98.4488 149.53 96.8022C149.857 95.1557 150.665 93.6432 151.852 92.4559C153.038 91.2686 154.55 90.4599 156.197 90.1321C157.843 89.8043 159.55 89.9722 161.101 90.6144C162.652 91.2566 163.977 92.3444 164.91 93.7401C165.843 95.1358 166.341 96.7768 166.341 98.4555C166.339 100.705 165.444 102.862 163.854 104.453C162.264 106.044 160.107 106.939 157.858 106.942ZM157.858 90.3667C156.257 90.3659 154.692 90.84 153.36 91.7289C152.029 92.6179 150.991 93.8817 150.378 95.3607C149.765 96.8396 149.604 98.4671 149.916 100.037C150.229 101.608 150.999 103.05 152.132 104.182C153.264 105.314 154.706 106.085 156.276 106.397C157.846 106.709 159.474 106.548 160.953 105.935C162.432 105.322 163.696 104.285 164.584 102.953C165.473 101.622 165.947 100.056 165.947 98.4555C165.945 96.3109 165.092 94.2547 163.575 92.7382C162.059 91.2217 160.003 90.3688 157.858 90.3667Z" fill="#263238"/>
<path d="M158.742 118.847C160.862 117.975 161.873 115.551 161.002 113.432C160.131 111.313 157.706 110.301 155.587 111.172C153.468 112.044 152.456 114.468 153.328 116.587C154.199 118.706 156.623 119.718 158.742 118.847Z" fill="white"/>
<path d="M157.17 119.356C156.313 119.356 155.475 119.101 154.762 118.625C154.049 118.149 153.494 117.472 153.166 116.68C152.838 115.888 152.752 115.017 152.919 114.176C153.086 113.335 153.499 112.563 154.105 111.957C154.711 111.351 155.484 110.938 156.324 110.771C157.165 110.604 158.037 110.689 158.828 111.017C159.62 111.345 160.297 111.901 160.774 112.614C161.25 113.326 161.504 114.164 161.504 115.022C161.504 116.171 161.047 117.273 160.235 118.086C159.422 118.899 158.319 119.356 157.17 119.356ZM157.17 111.058C156.391 111.058 155.629 111.289 154.981 111.722C154.333 112.155 153.828 112.77 153.53 113.49C153.232 114.21 153.154 115.002 153.306 115.767C153.458 116.531 153.833 117.233 154.384 117.784C154.935 118.335 155.637 118.71 156.401 118.862C157.166 119.014 157.958 118.936 158.678 118.638C159.398 118.34 160.013 117.835 160.446 117.187C160.879 116.539 161.11 115.777 161.11 114.998C161.11 113.953 160.695 112.951 159.956 112.212C159.217 111.473 158.215 111.058 157.17 111.058Z" fill="#263238"/>
<path d="M160.404 115.528C160.694 113.741 159.481 112.057 157.695 111.766C155.908 111.476 154.223 112.688 153.933 114.475C153.642 116.262 154.855 117.947 156.642 118.237C158.429 118.528 160.113 117.315 160.404 115.528Z" fill="white"/>
<path d="M157.167 118.481C156.479 118.482 155.806 118.279 155.234 117.897C154.662 117.516 154.216 116.973 153.953 116.338C153.689 115.703 153.62 115.004 153.754 114.329C153.888 113.655 154.219 113.035 154.705 112.549C155.192 112.063 155.811 111.732 156.486 111.598C157.16 111.464 157.859 111.533 158.494 111.797C159.129 112.06 159.672 112.506 160.054 113.078C160.435 113.65 160.638 114.323 160.638 115.01C160.637 115.931 160.271 116.813 159.62 117.464C158.969 118.114 158.087 118.48 157.167 118.481ZM157.167 111.929C156.557 111.928 155.961 112.108 155.454 112.447C154.946 112.785 154.551 113.266 154.317 113.828C154.083 114.391 154.022 115.011 154.14 115.609C154.259 116.207 154.552 116.756 154.983 117.188C155.413 117.619 155.962 117.913 156.56 118.032C157.158 118.151 157.778 118.09 158.341 117.857C158.904 117.624 159.385 117.229 159.724 116.722C160.063 116.216 160.244 115.62 160.244 115.01C160.243 114.194 159.918 113.412 159.341 112.834C158.765 112.257 157.983 111.931 157.167 111.929Z" fill="#263238"/>
<path d="M142.971 121.722C144.004 117.759 141.629 113.709 137.666 112.676C133.703 111.643 129.653 114.018 128.62 117.981C127.587 121.944 129.963 125.994 133.925 127.027C137.888 128.06 141.938 125.684 142.971 121.722Z" fill="white"/>
<path d="M135.792 127.451C134.285 127.452 132.812 127.005 131.559 126.169C130.306 125.332 129.329 124.143 128.752 122.751C128.175 121.359 128.024 119.828 128.318 118.35C128.612 116.872 129.337 115.515 130.403 114.449C131.468 113.384 132.825 112.659 134.303 112.365C135.781 112.071 137.312 112.222 138.704 112.799C140.096 113.376 141.285 114.353 142.122 115.606C142.959 116.859 143.405 118.332 143.404 119.839C143.401 121.857 142.598 123.791 141.171 125.218C139.744 126.645 137.81 127.448 135.792 127.451ZM135.792 112.617C134.363 112.616 132.967 113.039 131.778 113.832C130.59 114.625 129.664 115.753 129.117 117.072C128.57 118.392 128.426 119.844 128.704 121.245C128.982 122.646 129.67 123.934 130.68 124.944C131.69 125.954 132.976 126.643 134.377 126.922C135.779 127.201 137.231 127.058 138.551 126.511C139.871 125.965 140.999 125.039 141.793 123.851C142.586 122.664 143.01 121.267 143.01 119.839C143.008 117.925 142.247 116.089 140.894 114.736C139.541 113.382 137.706 112.62 135.792 112.617Z" fill="#263238"/>
<path d="M135.788 125.694C139.024 125.694 141.647 123.071 141.647 119.835C141.647 116.6 139.024 113.977 135.788 113.977C132.553 113.977 129.93 116.6 129.93 119.835C129.93 123.071 132.553 125.694 135.788 125.694Z" fill="white"/>
<path d="M135.79 125.893C134.592 125.893 133.421 125.538 132.425 124.872C131.429 124.206 130.653 123.26 130.195 122.154C129.737 121.047 129.617 119.829 129.851 118.654C130.085 117.479 130.662 116.4 131.509 115.554C132.357 114.707 133.436 114.13 134.611 113.897C135.786 113.664 137.004 113.784 138.11 114.243C139.217 114.702 140.162 115.479 140.827 116.475C141.492 117.472 141.847 118.643 141.846 119.841C141.843 121.446 141.204 122.984 140.069 124.118C138.933 125.253 137.395 125.891 135.79 125.893ZM135.79 114.179C134.67 114.179 133.576 114.511 132.645 115.133C131.714 115.755 130.988 116.64 130.559 117.674C130.131 118.709 130.019 119.847 130.237 120.946C130.456 122.044 130.995 123.053 131.787 123.844C132.578 124.636 133.587 125.176 134.686 125.394C135.784 125.612 136.922 125.5 137.957 125.072C138.991 124.643 139.876 123.918 140.498 122.986C141.12 122.055 141.452 120.961 141.452 119.841C141.451 118.34 140.854 116.9 139.792 115.839C138.731 114.777 137.291 114.18 135.79 114.179Z" fill="#263238"/>
<path d="M119.242 84.313C116.232 82.0239 97.5209 77.4141 97.5209 77.4141C97.5209 77.4141 78.5813 82.2051 75.4372 84.313C73.0732 85.889 73.022 87.2444 73.3647 92.587C73.7075 97.9296 75.9533 131.049 75.9533 131.049H118.726C118.726 131.049 120.968 97.9336 121.315 92.587C121.661 87.2404 121.831 86.283 119.242 84.313Z" fill="white"/>
<path d="M118.91 131.252H75.7547V131.067C75.7311 130.736 73.5089 97.8919 73.1661 92.6044C72.8233 87.3169 72.8352 85.8158 75.3252 84.1491C78.4772 82.0531 96.6958 77.4196 97.472 77.2266H97.5193H97.5665C98.3309 77.4117 116.352 81.8679 119.363 84.157C121.931 86.127 121.865 87.1278 121.545 92.0055L121.506 92.6044C121.167 97.8919 118.945 130.736 118.921 131.067L118.91 131.252ZM76.1369 130.858H118.539C118.72 128.19 120.789 97.6594 121.116 92.5807L121.155 91.9779C121.467 87.1672 121.526 86.3004 119.122 84.4722C116.25 82.2895 98.5712 77.8806 97.5193 77.6206C96.4594 77.8885 78.5482 82.4707 75.5419 84.4801C73.3198 85.9655 73.2055 87.0647 73.5719 92.5807C73.8871 97.6594 75.9556 128.19 76.1487 130.858H76.1369Z" fill="#263238"/>
<path d="M73.3647 92.5909C73.7115 97.9375 75.9533 131.053 75.9533 131.053H97.5209V77.4141C97.5209 77.4141 78.5813 82.209 75.4372 84.3169C73.0732 85.8929 73.022 87.2444 73.3647 92.5909Z" fill="#263238"/>
<path d="M97.7163 131.252H75.7547V131.067C75.7311 130.736 73.5089 97.8924 73.1661 92.6049C72.8233 87.3174 72.8352 85.8163 75.3252 84.1497C78.4772 82.0536 96.6958 77.4202 97.472 77.2271L97.7163 77.1641V131.252ZM76.1369 130.858H97.3223V77.6684C95.0922 78.2397 78.4103 82.5461 75.5419 84.4806C73.3198 85.966 73.2055 87.0653 73.5719 92.5813C73.8871 97.6599 75.9556 128.191 76.1487 130.858H76.1369Z" fill="#263238"/>
<path d="M96.9539 115.248V108.664H77.2578L77.5139 115.248H96.9539Z" fill="#D1D1D1"/>
<path d="M97.1526 115.439H77.3344L77.0625 108.461H97.1565L97.1526 115.439ZM77.7047 115.045H96.7586V108.855H77.4526L77.7047 115.045Z" fill="#263238"/>
<path d="M96.9511 93.8125H76.6719L76.9319 100.396H96.9511V93.8125Z" fill="#D1D1D1"/>
<path d="M97.1498 100.595H76.7445L76.4688 93.6172H97.1498V100.595ZM77.1228 100.201H96.7558V94.0112H76.8785L77.1228 100.201Z" fill="#263238"/>
<path d="M96.9564 107.822V101.234H76.9688L77.2248 107.822H96.9564Z" fill="#D1D1D1"/>
<path d="M97.1551 108.021H77.0375L76.7656 101.039H97.1551V108.021ZM77.4197 107.627H96.7611V101.433H77.1754L77.4197 107.627Z" fill="#263238"/>
<path d="M117.678 116.086H98.2734V122.674H117.422L117.678 116.086Z" fill="white"/>
<path d="M117.605 122.861H98.0703V115.883H117.877L117.605 122.861ZM98.4643 122.467H117.227L117.467 116.277H98.4643V122.467Z" fill="#263238"/>
<path d="M98.2734 92.9817H118.584L118.691 90.2237C118.691 90.2237 118.691 86.8708 117.41 86.1537C116.275 85.5154 101.579 84.7826 98.2734 84.625V92.9817Z" fill="white"/>
<path d="M118.767 93.1687H98.0703V84.4141H98.2791C102.495 84.615 116.348 85.3203 117.502 85.9664C118.866 86.7308 118.881 90.068 118.881 90.2098L118.767 93.1687ZM98.4643 92.7747H118.389L118.487 90.2098C118.487 89.3154 118.275 86.8608 117.305 86.3171C116.454 85.8403 106.667 85.2178 98.4604 84.8278L98.4643 92.7747Z" fill="#263238"/>
<path d="M96.9514 122.674V116.086H77.5469L77.803 122.674H96.9514Z" fill="#D1D1D1"/>
<path d="M97.1541 122.861H77.6196L77.3359 115.883H97.1541V122.861ZM77.9979 122.467H96.7601V116.277H77.7575L77.9979 122.467Z" fill="#263238"/>
<path d="M96.9561 92.9856V84.6328C93.6504 84.7904 78.9542 85.5232 77.8195 86.1615C76.5469 86.8668 76.5469 90.2276 76.5469 90.2276L76.6533 92.9856H96.9561Z" fill="#D1D1D1"/>
<path d="M97.1548 93.1687H76.458L76.3438 90.2255C76.3438 90.0758 76.3438 86.7386 77.7227 85.9742C78.8732 85.3281 92.7302 84.6228 96.946 84.4219H97.1548V93.1687ZM76.8363 92.7747H96.7608V84.8277C88.5499 85.2217 78.7669 85.8403 77.9158 86.317C76.9505 86.8607 76.7338 89.3154 76.7338 90.2176L76.8363 92.7747Z" fill="#263238"/>
<path d="M98.2734 108.664V115.248H117.713L117.969 108.664H98.2734Z" fill="white"/>
<path d="M117.912 115.439H98.0703V108.461H118.164L117.912 115.439ZM98.4801 115.045H117.518L117.758 108.855H98.4525L98.4801 115.045Z" fill="#263238"/>
<path d="M98.2734 123.508V132.121L117.059 131.892L117.39 123.508H98.2734Z" fill="white"/>
<path d="M98.0703 132.319V123.32H117.589L117.242 132.095L98.0703 132.319ZM98.4643 123.702V131.921L116.864 131.693L117.179 123.702H98.4643Z" fill="#263238"/>
<path d="M96.9528 123.508H77.8359L78.1669 131.892L96.9528 132.121V123.508Z" fill="#D1D1D1"/>
<path d="M97.1516 132.319L77.9756 132.083L77.6328 123.32H97.1516V132.319ZM78.3578 131.693L96.7576 131.921V123.714H78.0426L78.3578 131.693Z" fill="#263238"/>
<path d="M98.2734 101.234V107.822H118.001L118.261 101.234H98.2734Z" fill="white"/>
<path d="M118.184 108.021H98.0703V101.039H118.46L118.184 108.021ZM98.4643 107.627H117.806L118.05 101.433H98.4643V107.627Z" fill="#263238"/>
<path d="M98.2734 93.8125V100.396H118.293L118.553 93.8125H98.2734Z" fill="white"/>
<path d="M118.476 100.595H98.0703V93.6172H118.747L118.476 100.595ZM98.4643 100.201H118.097L118.338 94.0112H98.4643V100.201Z" fill="#263238"/>
<path d="M57.0703 93.1418C57.0703 93.1418 68.2717 91.357 69.3198 90.2263C70.3678 89.0955 60.0253 87.9923 62.3499 85.5377C64.6745 83.083 92.3412 78.4062 92.3412 78.4062C92.3412 78.4062 68.2638 84.4345 68.7012 86.2193C69.1385 88.0041 72.2905 84.8797 72.0817 95.5925C71.8729 106.305 71.6562 113.228 71.6562 113.228L57.0703 93.1418Z" fill="white"/>
<path d="M149.481 86.8906C149.481 86.8906 144.792 88.4666 142.338 91.7999C139.883 95.1331 140.328 98.2733 140.328 98.2733L149.481 86.8906Z" fill="white"/>
<path d="M139.66 90.0174C139.66 90.0174 129.613 90.0174 126.043 89.5722C122.474 89.127 123.364 91.8022 123.364 94.6942C123.364 97.5861 123.589 102.283 123.589 102.283L126.489 98.2638L137.426 96.479C137.426 96.479 139.215 90.9118 139.66 90.0174Z" fill="white"/>
<path d="M169.528 139.159H26.8999C25.6459 139.159 24.4433 138.661 23.5567 137.774C22.67 136.888 22.1719 135.685 22.1719 134.431C22.1719 133.177 22.67 131.975 23.5567 131.088C24.4433 130.201 25.6459 129.703 26.8999 129.703H169.528C170.782 129.703 171.984 130.201 172.871 131.088C173.758 131.975 174.256 133.177 174.256 134.431C174.256 135.685 173.758 136.888 172.871 137.774C171.984 138.661 170.782 139.159 169.528 139.159Z" fill="white"/>
<path d="M169.529 139.356H26.9006C26.2403 139.375 25.5829 139.261 24.9674 139.021C24.3519 138.781 23.7907 138.42 23.3171 137.96C22.8435 137.499 22.467 136.949 22.2099 136.34C21.9528 135.732 21.8203 135.078 21.8203 134.417C21.8203 133.757 21.9528 133.103 22.2099 132.494C22.467 131.886 22.8435 131.335 23.3171 130.875C23.7907 130.414 24.3519 130.053 24.9674 129.814C25.5829 129.574 26.2403 129.46 26.9006 129.479H169.529C170.189 129.46 170.846 129.574 171.462 129.814C172.077 130.053 172.638 130.414 173.112 130.875C173.586 131.335 173.962 131.886 174.219 132.494C174.476 133.103 174.609 133.757 174.609 134.417C174.609 135.078 174.476 135.732 174.219 136.34C173.962 136.949 173.586 137.499 173.112 137.96C172.638 138.42 172.077 138.781 171.462 139.021C170.846 139.261 170.189 139.375 169.529 139.356ZM26.9006 129.873C26.2925 129.855 25.687 129.959 25.1199 130.179C24.5529 130.4 24.0358 130.732 23.5994 131.155C23.1629 131.579 22.816 132.086 22.579 132.646C22.3421 133.207 22.22 133.809 22.22 134.417C22.22 135.026 22.3421 135.628 22.579 136.188C22.816 136.748 23.1629 137.256 23.5994 137.679C24.0358 138.103 24.5529 138.435 25.1199 138.655C25.687 138.876 26.2925 138.98 26.9006 138.962H169.529C170.137 138.98 170.742 138.876 171.309 138.655C171.876 138.435 172.393 138.103 172.83 137.679C173.266 137.256 173.613 136.748 173.85 136.188C174.087 135.628 174.209 135.026 174.209 134.417C174.209 133.809 174.087 133.207 173.85 132.646C173.613 132.086 173.266 131.579 172.83 131.155C172.393 130.732 171.876 130.4 171.309 130.179C170.742 129.959 170.137 129.855 169.529 129.873H26.9006Z" fill="#263238"/>
<path d="M168.644 134.392C166.118 133.758 153.479 131.157 138.066 134.392C122.652 137.627 122.132 134.822 107.129 132.989C92.1252 131.157 80.9277 133.6 68.3867 135.637C55.8457 137.674 48.2336 134.822 35.2473 133.805C23.9041 132.915 22.8718 133.888 22.7891 134.148C22.7891 134.148 22.7891 134.187 22.7891 134.207C22.7891 136.571 24.897 138.482 27.4934 138.482H168.912C171.433 138.482 173.49 136.673 173.6 134.404C172.005 134.601 169.987 134.747 168.644 134.392Z" fill="#263238"/>
<path d="M168.917 138.687H27.4951C24.7923 138.687 22.5938 136.681 22.5938 134.215V134.097C22.8814 133.171 27.3769 132.997 35.2569 133.616C39.3821 133.939 42.9163 134.439 46.3322 134.924C53.5661 135.948 59.8189 136.835 68.349 135.448C69.7831 135.216 71.1936 134.979 72.6002 134.743C83.514 132.911 93.825 131.177 107.146 132.804C111.65 133.352 114.916 133.986 117.544 134.526C123.812 135.775 127.268 136.465 138.032 134.207C154.257 130.807 167.267 133.852 168.697 134.207C170.036 134.542 172.093 134.396 173.582 134.207L173.815 134.179V134.416C173.685 136.807 171.538 138.687 168.917 138.687ZM22.9917 134.195C22.9917 136.457 25.0129 138.285 27.4951 138.285H168.917C171.242 138.285 173.161 136.709 173.393 134.628C171.892 134.798 169.926 134.916 168.602 134.585C167.18 134.227 154.249 131.201 138.115 134.585C127.283 136.859 123.801 136.161 117.477 134.904C114.861 134.384 111.602 133.722 107.111 133.186C93.8486 131.567 83.5652 133.297 72.6751 135.125C71.2724 135.361 69.8554 135.596 68.4238 135.83C59.8346 137.225 53.5582 136.335 46.2889 135.306C42.8769 134.822 39.3506 134.325 35.2569 134.002C24.1461 133.131 23.0823 134.073 22.9917 134.195Z" fill="#263238"/>
<path d="M122.005 132.086H70.7812V142.432H122.005V132.086Z" fill="white"/>
<path d="M122.2 142.631H70.5859V131.891H122.2V142.631ZM70.9799 142.237H121.806V132.285H70.9799V142.237Z" fill="#263238"/>
<path d="M45.6894 146.053C45.3608 146.053 45.0355 145.989 44.732 145.863C44.4284 145.737 44.1526 145.553 43.9203 145.321C43.688 145.088 43.5037 144.812 43.3779 144.509C43.2522 144.205 43.1875 143.88 43.1875 143.552V119.06C43.1875 118.732 43.2522 118.407 43.378 118.104C43.5038 117.8 43.6882 117.525 43.9205 117.293C44.1529 117.061 44.4287 116.877 44.7323 116.752C45.0358 116.626 45.361 116.562 45.6894 116.563C46.3519 116.563 46.9873 116.826 47.4557 117.294C47.9242 117.763 48.1874 118.398 48.1874 119.06V143.552C48.1879 143.88 48.1236 144.205 47.9983 144.509C47.873 144.812 47.6891 145.088 47.4571 145.32C47.2251 145.553 46.9496 145.737 46.6462 145.863C46.3429 145.989 46.0178 146.053 45.6894 146.053Z" fill="white"/>
<path d="M45.6833 146.254C45.3288 146.254 44.9779 146.185 44.6504 146.049C44.323 145.913 44.0255 145.715 43.7749 145.464C43.5242 145.213 43.3254 144.916 43.1898 144.588C43.0542 144.261 42.9844 143.91 42.9844 143.556V119.065C43.011 118.367 43.3068 117.707 43.8097 117.223C44.3126 116.739 44.9834 116.469 45.6813 116.469C46.3792 116.469 47.0501 116.739 47.5529 117.223C48.0558 117.707 48.3516 118.367 48.3782 119.065V143.556C48.3782 144.271 48.0944 144.957 47.5891 145.463C47.0838 145.969 46.3984 146.253 45.6833 146.254ZM45.6833 116.764C45.0727 116.764 44.487 117.006 44.0549 117.437C43.6227 117.869 43.3794 118.454 43.3784 119.065V143.556C43.3655 143.866 43.4156 144.176 43.5255 144.466C43.6355 144.757 43.803 145.022 44.0182 145.247C44.2333 145.471 44.4915 145.649 44.7773 145.771C45.0631 145.893 45.3706 145.956 45.6813 145.956C45.992 145.956 46.2995 145.893 46.5853 145.771C46.8711 145.649 47.1293 145.471 47.3445 145.247C47.5596 145.022 47.7271 144.757 47.8371 144.466C47.947 144.176 47.9971 143.866 47.9842 143.556V119.065C47.9832 118.455 47.7404 117.87 47.3091 117.439C46.8779 117.007 46.2932 116.765 45.6833 116.764Z" fill="#263238"/>
<path d="M152.703 119.064C152.703 117.683 151.584 116.562 150.203 116.562C148.822 116.562 147.703 117.683 147.703 119.064V143.552C147.703 144.933 148.822 146.053 150.203 146.053C151.584 146.053 152.703 144.933 152.703 143.552V119.064Z" fill="white"/>
<path d="M150.222 146.254C149.868 146.254 149.517 146.185 149.19 146.049C148.862 145.913 148.565 145.715 148.314 145.464C148.063 145.213 147.865 144.916 147.729 144.588C147.593 144.261 147.523 143.91 147.523 143.556V119.065C147.55 118.367 147.846 117.707 148.349 117.223C148.852 116.739 149.522 116.469 150.22 116.469C150.918 116.469 151.589 116.739 152.092 117.223C152.595 117.707 152.891 118.367 152.917 119.065V143.556C152.917 144.271 152.633 144.957 152.128 145.463C151.623 145.969 150.937 146.253 150.222 146.254ZM150.222 116.764C149.612 116.764 149.026 117.006 148.594 117.437C148.162 117.869 147.918 118.454 147.917 119.065V143.556C147.905 143.866 147.955 144.176 148.065 144.466C148.175 144.757 148.342 145.022 148.557 145.247C148.772 145.471 149.031 145.649 149.316 145.771C149.602 145.893 149.91 145.956 150.22 145.956C150.531 145.956 150.839 145.893 151.124 145.771C151.41 145.649 151.668 145.471 151.884 145.247C152.099 145.022 152.266 144.757 152.376 144.466C152.486 144.176 152.536 143.866 152.523 143.556V119.065C152.522 118.455 152.28 117.87 151.848 117.439C151.417 117.007 150.832 116.765 150.222 116.764Z" fill="#263238"/>
<path d="M192.502 157.227H4.84375V157.621H192.502V157.227Z" fill="#263238"/>
</svg>
