<svg width="20" height="23" viewBox="0 0 20 23" fill="none" xmlns="http://www.w3.org/2000/svg">
<path d="M19.2798 17.924C18.932 18.7275 18.5203 19.4672 18.0433 20.1472C17.393 21.0743 16.8606 21.716 16.4503 22.0724C15.8143 22.6573 15.1329 22.9568 14.4031 22.9739C13.8792 22.9739 13.2475 22.8248 12.5121 22.5224C11.7742 22.2214 11.0962 22.0724 10.4762 22.0724C9.82598 22.0724 9.12861 22.2214 8.3827 22.5224C7.63565 22.8248 7.03383 22.9824 6.5737 22.998C5.87393 23.0278 5.17643 22.7197 4.4802 22.0724C4.03583 21.6848 3.48002 21.0204 2.81417 20.0791C2.09977 19.0739 1.51244 17.9084 1.05231 16.5795C0.55953 15.1442 0.3125 13.7543 0.3125 12.4087C0.3125 10.8673 0.645564 9.53789 1.31269 8.42385C1.83698 7.529 2.53449 6.82312 3.40747 6.30493C4.28045 5.78674 5.2237 5.52267 6.23951 5.50578C6.79532 5.50578 7.5242 5.6777 8.42998 6.01559C9.33319 6.35462 9.91315 6.52655 10.1674 6.52655C10.3575 6.52655 11.0018 6.32552 12.094 5.92473C13.1268 5.55305 13.9985 5.39916 14.7126 5.45978C16.6477 5.61595 18.1015 6.37876 19.0683 7.75303C17.3377 8.80163 16.4816 10.2703 16.4986 12.1544C16.5142 13.622 17.0466 14.8432 18.0929 15.8129C18.5671 16.2629 19.0967 16.6107 19.6859 16.8578C19.5581 17.2283 19.4232 17.5832 19.2798 17.924ZM14.8418 0.460131C14.8418 1.61039 14.4216 2.68439 13.5839 3.67847C12.5731 4.86023 11.3505 5.54311 10.0246 5.43536C10.0077 5.29736 9.9979 5.15213 9.9979 4.99951C9.9979 3.89526 10.4786 2.71349 11.3323 1.74724C11.7585 1.25801 12.3005 0.851218 12.9579 0.526714C13.6138 0.207053 14.2342 0.0302728 14.8177 0C14.8347 0.153772 14.8418 0.307554 14.8418 0.460116V0.460131Z" fill="white"/>
</svg>
