<svg width="13" height="13" viewBox="0 0 13 13" fill="none" xmlns="http://www.w3.org/2000/svg">
<path fill-rule="evenodd" clip-rule="evenodd" d="M6.29735 11.9929C6.39681 11.9929 6.49219 11.9533 6.56251 11.883C6.63284 11.8127 6.67235 11.7173 6.67235 11.6179V2.77311L9.03185 5.13336C9.10226 5.20377 9.19777 5.24333 9.29735 5.24333C9.39693 5.24333 9.49243 5.20377 9.56285 5.13336C9.63326 5.06294 9.67282 4.96744 9.67282 4.86786C9.67282 4.76828 9.63326 4.67277 9.56285 4.60236L6.56285 1.60236C6.52801 1.56744 6.48663 1.53973 6.44107 1.52082C6.39551 1.50192 6.34667 1.49219 6.29735 1.49219C6.24802 1.49219 6.19918 1.50192 6.15362 1.52082C6.10806 1.53973 6.06668 1.56744 6.03185 1.60236L3.03185 4.60236C2.99698 4.63722 2.96933 4.67862 2.95046 4.72417C2.93159 4.76972 2.92187 4.81855 2.92188 4.86786C2.92187 4.96744 2.96143 5.06294 3.03185 5.13336C3.10226 5.20377 3.19777 5.24333 3.29735 5.24333C3.39693 5.24333 3.49243 5.20377 3.56285 5.13336L5.92235 2.77311V11.6179C5.92235 11.7173 5.96186 11.8127 6.03218 11.883C6.10251 11.9533 6.19789 11.9929 6.29735 11.9929Z" fill="#20C997"/>
</svg>
