<svg width="13" height="13" viewBox="0 0 13 13" fill="none" xmlns="http://www.w3.org/2000/svg">
<path fill-rule="evenodd" clip-rule="evenodd" d="M6.87547 11.9929C6.97493 11.9929 7.07031 11.9533 7.14064 11.883C7.21097 11.8127 7.25047 11.7173 7.25047 11.6179V2.77311L9.60997 5.13336C9.68039 5.20377 9.77589 5.24333 9.87547 5.24333C9.97506 5.24333 10.0706 5.20377 10.141 5.13336C10.2114 5.06294 10.2509 4.96744 10.2509 4.86786C10.2509 4.76828 10.2114 4.67277 10.141 4.60236L7.14097 1.60236C7.10614 1.56744 7.06476 1.53973 7.0192 1.52082C6.97364 1.50192 6.9248 1.49219 6.87547 1.49219C6.82615 1.49219 6.77731 1.50192 6.73175 1.52082C6.68619 1.53973 6.64481 1.56744 6.60997 1.60236L3.60997 4.60236C3.57511 4.63722 3.54745 4.67862 3.52858 4.72417C3.50971 4.76972 3.5 4.81855 3.5 4.86786C3.5 4.96744 3.53956 5.06294 3.60997 5.13336C3.68039 5.20377 3.77589 5.24333 3.87547 5.24333C3.97506 5.24333 4.07056 5.20377 4.14097 5.13336L6.50047 2.77311V11.6179C6.50047 11.7173 6.53998 11.8127 6.61031 11.883C6.68064 11.9533 6.77602 11.9929 6.87547 11.9929Z" fill="#DC3545"/>
</svg>
