<svg xmlns="http://www.w3.org/2000/svg" width="32" height="32" viewBox="0 0 32 32" fill="none">
  <path fill-rule="evenodd" clip-rule="evenodd" d="M24.0018 16.0013C24.0018 16.2665 23.8964 16.5208 23.7089 16.7084C23.5214 16.8959 23.267 17.0013 23.0018 17.0013H11.4158L15.7098 21.2933C15.8028 21.3862 15.8765 21.4966 15.9268 21.6181C15.9772 21.7396 16.003 21.8698 16.003 22.0013C16.003 22.1328 15.9772 22.263 15.9268 22.3844C15.8765 22.5059 15.8028 22.6163 15.7098 22.7093C15.6168 22.8022 15.5064 22.876 15.385 22.9263C15.2635 22.9766 15.1333 23.0025 15.0018 23.0025C14.8703 23.0025 14.7401 22.9766 14.6186 22.9263C14.4971 22.876 14.3868 22.8022 14.2938 22.7093L8.29379 16.7093C8.20066 16.6164 8.12678 16.506 8.07636 16.3845C8.02595 16.263 8 16.1328 8 16.0013C8 15.8697 8.02595 15.7395 8.07636 15.618C8.12678 15.4965 8.20066 15.3862 8.29379 15.2933L14.2938 9.29326C14.4816 9.10549 14.7362 9 15.0018 9C15.2673 9 15.522 9.10549 15.7098 9.29326C15.8976 9.48104 16.003 9.73571 16.003 10.0013C16.003 10.2668 15.8976 10.5215 15.7098 10.7093L11.4158 15.0013H23.0018C23.267 15.0013 23.5214 15.1066 23.7089 15.2942C23.8964 15.4817 24.0018 15.736 24.0018 16.0013Z" fill="#212529"/>
</svg>