<svg width="25" height="24" viewBox="0 0 25 24" fill="none" xmlns="http://www.w3.org/2000/svg">
<g clip-path="url(#clip0_1098_91076)">
<path d="M17.2109 11.25C17.2109 11.0511 17.29 10.8603 17.4306 10.7197C17.5713 10.579 17.762 10.5 17.9609 10.5H19.4609C19.6598 10.5 19.8506 10.579 19.9913 10.7197C20.1319 10.8603 20.2109 11.0511 20.2109 11.25V12.75C20.2109 12.9489 20.1319 13.1397 19.9913 13.2803C19.8506 13.421 19.6598 13.5 19.4609 13.5H17.9609C17.762 13.5 17.5713 13.421 17.4306 13.2803C17.29 13.1397 17.2109 12.9489 17.2109 12.75V11.25Z" fill="#212529"/>
<path d="M5.96094 0C6.15985 0 6.35062 0.0790176 6.49127 0.21967C6.63192 0.360322 6.71094 0.551088 6.71094 0.75V1.5H18.7109V0.75C18.7109 0.551088 18.79 0.360322 18.9306 0.21967C19.0713 0.0790176 19.262 0 19.4609 0C19.6599 0 19.8506 0.0790176 19.9913 0.21967C20.1319 0.360322 20.2109 0.551088 20.2109 0.75V1.5H21.7109C22.5066 1.5 23.2696 1.81607 23.8323 2.37868C24.3949 2.94129 24.7109 3.70435 24.7109 4.5V21C24.7109 21.7956 24.3949 22.5587 23.8323 23.1213C23.2696 23.6839 22.5066 24 21.7109 24H3.71094C2.91529 24 2.15223 23.6839 1.58962 23.1213C1.02701 22.5587 0.710938 21.7956 0.710938 21V4.5C0.710938 3.70435 1.02701 2.94129 1.58962 2.37868C2.15223 1.81607 2.91529 1.5 3.71094 1.5H5.21094V0.75C5.21094 0.551088 5.28996 0.360322 5.43061 0.21967C5.57126 0.0790176 5.76203 0 5.96094 0ZM3.71094 3C3.31311 3 2.93158 3.15804 2.65028 3.43934C2.36897 3.72064 2.21094 4.10218 2.21094 4.5V21C2.21094 21.3978 2.36897 21.7794 2.65028 22.0607C2.93158 22.342 3.31311 22.5 3.71094 22.5H21.7109C22.1088 22.5 22.4903 22.342 22.7716 22.0607C23.0529 21.7794 23.2109 21.3978 23.2109 21V4.5C23.2109 4.10218 23.0529 3.72064 22.7716 3.43934C22.4903 3.15804 22.1088 3 21.7109 3H3.71094Z" fill="#212529"/>
<path d="M4.46094 6C4.46094 5.80109 4.53996 5.61032 4.68061 5.46967C4.82126 5.32902 5.01203 5.25 5.21094 5.25H20.2109C20.4099 5.25 20.6006 5.32902 20.7413 5.46967C20.8819 5.61032 20.9609 5.80109 20.9609 6V7.5C20.9609 7.69891 20.8819 7.88968 20.7413 8.03033C20.6006 8.17098 20.4099 8.25 20.2109 8.25H5.21094C5.01203 8.25 4.82126 8.17098 4.68061 8.03033C4.53996 7.88968 4.46094 7.69891 4.46094 7.5V6Z" fill="#212529"/>
</g>
<defs>
<clipPath id="clip0_1098_91076">
<rect width="24" height="24" fill="white" transform="translate(0.710938)"/>
</clipPath>
</defs>
</svg>
