<svg width="63" height="50" viewBox="0 0 63 50" fill="none" xmlns="http://www.w3.org/2000/svg">
<g clip-path="url(#clip0_63_385772)">
<path d="M42.1337 40.6465C39.8876 40.6465 37.6458 40.651 35.3997 40.6465C31.2107 40.6374 31.1228 40.4787 33.2678 36.6006C35.5403 32.4913 37.6942 28.3048 40.1689 24.3315C41.5579 22.1045 41.3557 20.3129 40.1293 18.2129C37.6063 13.9085 35.259 9.49522 32.7272 5.19084C31.5272 3.14977 31.681 2.00223 34.2173 1.98409C39.681 1.95234 45.1446 1.95234 50.6083 1.98863C52.0457 1.9977 53.2369 2.5828 53.9929 3.97527C56.617 8.80126 59.2588 13.6182 61.9181 18.4215C63.0433 20.449 63.0126 22.4084 61.8741 24.4177C59.3599 28.8446 56.8148 33.2578 54.4149 37.7527C53.2896 39.8663 51.7731 40.7871 49.4523 40.6692C47.0171 40.5467 44.5732 40.6419 42.1337 40.6419V40.6465Z" fill="#212529"/>
<path d="M10.0943 46.3204C7.36467 46.3204 4.63064 46.2932 1.90099 46.3295C0.221891 46.3522 -0.5781 45.9621 0.472438 44.0843C7.87895 30.84 15.2679 17.5776 22.6348 4.30612C23.6634 2.45555 24.3535 2.49637 25.3469 4.36962C27.826 9.04594 30.3798 13.6814 33.0084 18.2761C34.1336 20.2446 34.0765 22.0816 33.0303 23.9775C29.36 30.6223 25.659 37.2444 22.0151 43.9029C21.0393 45.6899 19.6678 46.4202 17.703 46.3476C15.1712 46.2524 12.6305 46.3249 10.0943 46.3249V46.3204Z" fill="#212529"/>
</g>
<defs>
<clipPath id="clip0_63_385772">
<rect width="62.7451" height="50" fill="white"/>
</clipPath>
</defs>
</svg>
