<svg width="20" height="20" viewBox="0 0 20 20" fill="none" xmlns="http://www.w3.org/2000/svg">
<g id="icon-wrapper" clip-path="url(#clip0_718_38089)">
<path id="Union" d="M10 20.0011C10.663 20.0011 11.2989 19.7377 11.7678 19.2689C12.2366 18.8 12.5 18.1641 12.5 17.5011H7.5C7.5 18.1641 7.76339 18.8 8.23223 19.2689C8.70107 19.7377 9.33696 20.0011 10 20.0011ZM10 2.39859L9.00375 2.59984C7.8737 2.83009 6.85791 3.44372 6.12831 4.33687C5.39872 5.23002 5.00012 6.34782 5 7.50109C5 8.28609 4.8325 10.2473 4.42625 12.1786C4.22625 13.1373 3.95625 14.1361 3.5975 15.0011H16.4025C16.0437 14.1361 15.775 13.1386 15.5737 12.1786C15.1675 10.2473 15 8.28609 15 7.50109C14.9996 6.34804 14.6009 5.23053 13.8713 4.33764C13.1417 3.44475 12.1261 2.8313 10.9963 2.60109L10 2.39734V2.39859ZM17.775 15.0011C18.0538 15.5598 18.3762 16.0023 18.75 16.2511H1.25C1.62375 16.0023 1.94625 15.5598 2.225 15.0011C3.35 12.7511 3.75 8.60109 3.75 7.50109C3.75 4.47609 5.9 1.95109 8.75625 1.37484C8.7388 1.20104 8.75798 1.0255 8.81254 0.85956C8.8671 0.693619 8.95584 0.540956 9.07303 0.411416C9.19022 0.281877 9.33325 0.178337 9.49292 0.107474C9.65258 0.0366118 9.82532 0 10 0C10.1747 0 10.3474 0.0366118 10.5071 0.107474C10.6667 0.178337 10.8098 0.281877 10.927 0.411416C11.0442 0.540956 11.1329 0.693619 11.1875 0.85956C11.242 1.0255 11.2612 1.20104 11.2437 1.37484C12.6566 1.66222 13.9267 2.42904 14.839 3.54547C15.7514 4.6619 16.2498 6.05931 16.25 7.50109C16.25 8.60109 16.65 12.7511 17.775 15.0011Z" fill="white"/>
</g>
<defs>
<clipPath id="clip0_718_38089">
<rect width="20" height="20" fill="white"/>
</clipPath>
</defs>
</svg>
