<svg width="21" height="20" viewBox="0 0 21 20" fill="none" xmlns="http://www.w3.org/2000/svg">
<g clip-path="url(#clip0_929_33170)">
<path d="M10.5 0C7.84784 0 5.3043 1.05357 3.42893 2.92893C1.55357 4.8043 0.5 7.34784 0.5 10C0.5 12.6522 1.55357 15.1957 3.42893 17.0711C5.3043 18.9464 7.84784 20 10.5 20C13.1522 20 15.6957 18.9464 17.5711 17.0711C19.4464 15.1957 20.5 12.6522 20.5 10C20.5 7.34784 19.4464 4.8043 17.5711 2.92893C15.6957 1.05357 13.1522 0 10.5 0ZM14.875 9.375C15.0408 9.375 15.1997 9.44085 15.3169 9.55806C15.4342 9.67527 15.5 9.83424 15.5 10C15.5 10.1658 15.4342 10.3247 15.3169 10.4419C15.1997 10.5592 15.0408 10.625 14.875 10.625H7.63375L10.3175 13.3075C10.3756 13.3656 10.4217 13.4346 10.4532 13.5105C10.4846 13.5864 10.5008 13.6678 10.5008 13.75C10.5008 13.8322 10.4846 13.9136 10.4532 13.9895C10.4217 14.0654 10.3756 14.1344 10.3175 14.1925C10.2594 14.2506 10.1904 14.2967 10.1145 14.3282C10.0386 14.3596 9.95718 14.3758 9.875 14.3758C9.79282 14.3758 9.71144 14.3596 9.63552 14.3282C9.5596 14.2967 9.49061 14.2506 9.4325 14.1925L5.6825 10.4425C5.6243 10.3844 5.57812 10.3155 5.54661 10.2395C5.5151 10.1636 5.49888 10.0822 5.49888 10C5.49888 9.91779 5.5151 9.83639 5.54661 9.76046C5.57812 9.68453 5.6243 9.61556 5.6825 9.5575L9.4325 5.8075C9.54986 5.69014 9.70903 5.62421 9.875 5.62421C10.041 5.62421 10.2001 5.69014 10.3175 5.8075C10.4349 5.92486 10.5008 6.08403 10.5008 6.25C10.5008 6.41597 10.4349 6.57514 10.3175 6.6925L7.63375 9.375H14.875Z" fill="black"/>
</g>
<defs>
<clipPath id="clip0_929_33170">
<rect width="20" height="20" fill="white" transform="translate(0.5)"/>
</clipPath>
</defs>
</svg>
