<svg width="33" height="32" viewBox="0 0 33 32" fill="none" xmlns="http://www.w3.org/2000/svg">
<rect x="0.0703125" width="32" height="32" rx="16" fill="#F06A35"/>
<path fill-rule="evenodd" clip-rule="evenodd" d="M23.7727 23.5192C22.7767 24.5364 21.715 25.0793 20.3601 25.2641C19.5811 25.3703 11.9744 25.3424 11.3579 25.2311C10.0623 24.9971 8.76644 24.1686 7.90179 23.0215C7.4479 22.4194 7.22759 21.9951 7.00922 21.3028C6.74493 20.4648 6.71577 19.8439 6.7422 15.6155C6.7633 12.2403 6.78064 11.6528 6.86995 11.2862C7.34549 9.33424 8.64913 7.81171 10.4635 7.08927C11.4476 6.69741 12.0892 6.63817 14.98 6.67232C16.8223 6.69408 17.3723 6.71945 17.618 6.794C18.6441 7.10539 19.5431 7.66111 20.3491 8.48212C21.4803 9.63455 22.0529 10.9114 22.0551 12.2868C22.0562 13.0066 22.1716 13.2717 22.5907 13.5173C22.855 13.6721 22.9486 13.6884 23.7857 13.7255C24.2852 13.7477 24.7538 13.7983 24.8269 13.8381C25.0646 13.9672 25.2729 14.2769 25.3463 14.6105C25.397 14.8406 25.4112 15.752 25.3942 17.6981C25.3718 20.2767 25.3615 20.4905 25.2391 20.9296C24.9443 21.9868 24.4933 22.7833 23.7727 23.5192ZM19.9133 20.2864C20.516 19.9452 20.6215 19.1142 20.1214 18.6474L20.1164 18.6427C19.8095 18.3562 19.7738 18.3228 17.2419 18.3209L14.7239 18.3236C12.5466 18.3312 12.281 18.3653 12.0502 18.5548L11.9981 18.6002C11.7639 18.812 11.6112 19.2297 11.6568 19.5336C11.7046 19.8526 11.9815 20.2124 12.2788 20.3419L12.2836 20.3439C12.435 20.4039 13.1754 20.4524 15.6394 20.4294L19.294 20.3871L19.9133 20.2864ZM17.0904 12.6692C17.0904 12.2292 16.9217 11.9529 16.5336 11.7569C16.3144 11.6462 16.2332 11.6232 15.2163 11.6185L14.0132 11.6175C12.4165 11.62 12.2431 11.6473 11.9706 11.9111L11.9232 11.9582C11.4141 12.472 11.6729 13.4654 12.3656 13.6563C12.4863 13.6895 13.2419 13.7101 14.2233 13.7081L15.0151 13.7036C16.2421 13.694 16.3973 13.6775 16.5556 13.5831L16.6186 13.5428C16.944 13.3235 17.0904 13.0513 17.0904 12.6692Z" fill="white"/>
</svg>
