<svg xmlns="http://www.w3.org/2000/svg" width="14" height="14" viewBox="0 0 14 14" fill="none">
<g id="icon-wrapper" clip-path="url(#clip0_750_7141)">
<path id="Union" d="M14 7C14 8.85652 13.2625 10.637 11.9497 11.9497C10.637 13.2625 8.85652 14 7 14C5.14348 14 3.36301 13.2625 2.05025 11.9497C0.737498 10.637 0 8.85652 0 7C0 5.14348 0.737498 3.36301 2.05025 2.05025C3.36301 0.737498 5.14348 0 7 0C8.85652 0 10.637 0.737498 11.9497 2.05025C13.2625 3.36301 14 5.14348 14 7ZM4.68475 4.06525C4.6026 3.9831 4.49118 3.93695 4.375 3.93695C4.25882 3.93695 4.1474 3.9831 4.06525 4.06525C3.9831 4.1474 3.93695 4.25882 3.93695 4.375C3.93695 4.49118 3.9831 4.6026 4.06525 4.68475L6.38138 7L4.06525 9.31525C4.02457 9.35593 3.99231 9.40422 3.97029 9.45736C3.94828 9.51051 3.93695 9.56747 3.93695 9.625C3.93695 9.68253 3.94828 9.73949 3.97029 9.79264C3.99231 9.84578 4.02457 9.89407 4.06525 9.93475C4.1474 10.0169 4.25882 10.0631 4.375 10.0631C4.43253 10.0631 4.48949 10.0517 4.54264 10.0297C4.59578 10.0077 4.64407 9.97543 4.68475 9.93475L7 7.61862L9.31525 9.93475C9.35593 9.97543 9.40422 10.0077 9.45736 10.0297C9.51051 10.0517 9.56747 10.0631 9.625 10.0631C9.68253 10.0631 9.73949 10.0517 9.79264 10.0297C9.84578 10.0077 9.89407 9.97543 9.93475 9.93475C9.97543 9.89407 10.0077 9.84578 10.0297 9.79264C10.0517 9.73949 10.0631 9.68253 10.0631 9.625C10.0631 9.56747 10.0517 9.51051 10.0297 9.45736C10.0077 9.40422 9.97543 9.35593 9.93475 9.31525L7.61862 7L9.93475 4.68475C9.97543 4.64407 10.0077 4.59578 10.0297 4.54264C10.0517 4.48949 10.0631 4.43253 10.0631 4.375C10.0631 4.31747 10.0517 4.26051 10.0297 4.20736C10.0077 4.15422 9.97543 4.10593 9.93475 4.06525C9.89407 4.02457 9.84578 3.99231 9.79264 3.97029C9.73949 3.94828 9.68253 3.93695 9.625 3.93695C9.56747 3.93695 9.51051 3.94828 9.45736 3.97029C9.40422 3.99231 9.35593 4.02457 9.31525 4.06525L7 6.38138L4.68475 4.06525Z" fill="#6C757D"/>
</g>
<defs>
<clipPath id="clip0_750_7141">
<rect width="14" height="14" fill="white"/>
</clipPath>
</defs>
</svg>