<svg width="30" height="30" viewBox="0 0 30 30" fill="none" xmlns="http://www.w3.org/2000/svg">
<g id="fluent:chat-bubbles-question-20-regular">
<path id="Vector" d="M12.7387 7.3515C12.2017 7.4565 11.6137 7.8045 11.1517 8.6205C11.1031 8.70619 11.038 8.78145 10.9603 8.842C10.8825 8.90254 10.7936 8.94719 10.6986 8.97337C10.6036 8.99956 10.5044 9.00678 10.4066 8.99462C10.3088 8.98246 10.2144 8.95116 10.1287 8.9025C10.043 8.85385 9.96777 8.78879 9.90723 8.71105C9.84668 8.63331 9.80204 8.5444 9.77586 8.4494C9.74967 8.35441 9.74245 8.25519 9.75461 8.1574C9.76677 8.05962 9.79807 7.96519 9.84673 7.8795C10.5082 6.7155 11.4487 6.075 12.4507 5.88C13.3831 5.70376 14.3474 5.89802 15.1387 6.4215C15.8647 6.9015 16.4512 7.686 16.4692 8.6265C16.4887 9.609 15.8917 10.4955 14.7907 11.1465C14.0437 11.5875 13.7527 11.8875 13.6282 12.087C13.5232 12.255 13.5007 12.408 13.5007 12.75C13.5007 12.9489 13.4217 13.1397 13.2811 13.2803C13.1404 13.421 12.9496 13.5 12.7507 13.5C12.5518 13.5 12.361 13.421 12.2204 13.2803C12.0797 13.1397 12.0007 12.9489 12.0007 12.75C12.0007 12.342 12.0217 11.835 12.3562 11.295C12.6712 10.7895 13.2097 10.3395 14.0287 9.855C14.8312 9.3795 14.9767 8.928 14.9722 8.658C14.9662 8.3475 14.7592 7.968 14.3122 7.6725C13.8494 7.36632 13.286 7.25128 12.7402 7.3515H12.7387ZM13.1242 17.25C13.4226 17.25 13.7087 17.1315 13.9197 16.9205C14.1307 16.7095 14.2492 16.4234 14.2492 16.125C14.2492 15.8266 14.1307 15.5405 13.9197 15.3295C13.7087 15.1185 13.4226 15 13.1242 15C12.8259 15 12.5397 15.1185 12.3287 15.3295C12.1178 15.5405 11.9992 15.8266 11.9992 16.125C11.9992 16.4234 12.1178 16.7095 12.3287 16.9205C12.5397 17.1315 12.8259 17.25 13.1242 17.25ZM12.7492 1.5C11.049 1.4996 9.37814 1.94384 7.9026 2.78863C6.42705 3.63342 5.19807 4.84939 4.33762 6.31587C3.47718 7.78234 3.01518 9.44833 2.99748 11.1485C2.97978 12.8487 3.407 14.5239 4.23673 16.008L3.04423 19.131C2.94497 19.3906 2.91979 19.6727 2.9715 19.9458C3.02321 20.2188 3.14978 20.4722 3.33708 20.6775C3.52437 20.8829 3.76504 21.0321 4.03223 21.1087C4.29941 21.1852 4.58261 21.186 4.85023 21.111L8.58073 20.0655C9.90215 20.6899 11.347 21.0092 12.8085 20.9998C14.27 20.9904 15.7107 20.6526 17.024 20.0114C18.3373 19.3701 19.4896 18.4418 20.3958 17.2951C21.3019 16.1484 21.9387 14.8127 22.259 13.3867C22.5793 11.9607 22.5749 10.481 22.2461 9.05694C21.9174 7.63289 21.2727 6.30095 20.3598 5.15966C19.4469 4.01836 18.2891 3.0969 16.972 2.46344C15.6549 1.82997 14.2122 1.50071 12.7507 1.5H12.7492ZM4.50073 11.25C4.50139 9.45215 5.08933 7.70372 6.17509 6.27074C7.26085 4.83777 8.78498 3.79869 10.5156 3.31161C12.2462 2.82452 14.0886 2.9161 15.7624 3.5724C17.4361 4.2287 18.8497 5.4138 19.788 6.94738C20.7263 8.48097 21.138 10.2791 20.9604 12.0681C20.7827 13.8572 20.0256 15.5393 18.804 16.8584C17.5825 18.1776 15.9635 19.0616 14.1933 19.376C12.4232 19.6903 10.5988 19.4179 8.99773 18.6L8.73673 18.465L4.44673 19.6665L5.90023 15.8625L5.70823 15.5475C4.91592 14.2542 4.49894 12.7667 4.50073 11.25ZM17.1952 25.5C15.7917 25.5016 14.4045 25.1994 13.1288 24.6142C11.8531 24.0291 10.7191 23.1748 9.80473 22.11C10.6662 22.3434 11.5525 22.4728 12.4447 22.4955C13.8338 23.4766 15.4931 24.0023 17.1937 24C18.5467 24 19.8217 23.6745 20.9467 23.1L21.2077 22.965L25.4977 24.1665L24.0442 20.3625L24.2362 20.0475C25.0012 18.7965 25.4437 17.3265 25.4437 15.75C25.4461 14.0843 24.9417 12.4573 23.9977 11.085C23.9855 10.1926 23.8672 9.3049 23.6452 8.4405C24.6831 9.35436 25.5141 10.479 26.0829 11.7395C26.6517 12.9999 26.9452 14.3672 26.9437 15.75C26.9437 17.4765 26.4937 19.0995 25.7062 20.508L26.8987 23.631C26.9978 23.8905 27.0229 24.1723 26.9713 24.4452C26.9196 24.7181 26.7932 24.9713 26.6061 25.1766C26.419 25.3819 26.1786 25.5312 25.9117 25.6079C25.6447 25.6846 25.3617 25.6857 25.0942 25.611L21.3622 24.5655C20.0977 25.1655 18.6832 25.5 17.1922 25.5H17.1952Z" fill="white"/>
</g>
</svg>
