<svg xmlns="http://www.w3.org/2000/svg" width="25" height="24" viewBox="0 0 25 24" fill="none">
<g clip-path="url(#clip0_711_80074)">
<rect width="24" height="24" transform="translate(0.5)" fill="white" fill-opacity="0.01"/>
<path d="M13.031 1.72034C12.9613 1.6505 12.8786 1.59508 12.7875 1.55727C12.6963 1.51946 12.5987 1.5 12.5 1.5C12.4014 1.5 12.3037 1.51946 12.2126 1.55727C12.1214 1.59508 12.0387 1.6505 11.969 1.72034L2.969 10.7203C2.8994 10.7901 2.84423 10.8729 2.80665 10.964C2.76908 11.0552 2.74983 11.1528 2.75 11.2513V21.7513C2.75 21.9503 2.82902 22.141 2.96967 22.2817C3.11032 22.4223 3.30109 22.5013 3.5 22.5013H10.25C10.4489 22.5013 10.6397 22.4223 10.7803 22.2817C10.921 22.141 11 21.9503 11 21.7513V15.7513H14V21.7513C14 21.9503 14.079 22.141 14.2197 22.2817C14.3603 22.4223 14.5511 22.5013 14.75 22.5013H21.5C21.6989 22.5013 21.8897 22.4223 22.0303 22.2817C22.171 22.141 22.25 21.9503 22.25 21.7513V11.2513C22.2502 11.1528 22.2309 11.0552 22.1933 10.964C22.1558 10.8729 22.1006 10.7901 22.031 10.7203L20 8.69084V3.75134C20 3.55243 19.921 3.36166 19.7803 3.22101C19.6397 3.08036 19.4489 3.00134 19.25 3.00134H17.75C17.5511 3.00134 17.3603 3.08036 17.2197 3.22101C17.079 3.36166 17 3.55243 17 3.75134V5.69084L13.031 1.72034ZM4.25 21.0013V11.5618L12.5 3.31184L20.75 11.5618V21.0013H15.5V15.0013C15.5 14.8024 15.421 14.6117 15.2803 14.471C15.1397 14.3304 14.9489 14.2513 14.75 14.2513H10.25C10.0511 14.2513 9.86032 14.3304 9.71967 14.471C9.57902 14.6117 9.5 14.8024 9.5 15.0013V21.0013H4.25Z" fill="white"/>
</g>
<defs>
<clipPath id="clip0_711_80074">
<rect width="24" height="24" fill="white" transform="translate(0.5)"/>
</clipPath>
</defs>
</svg>