<svg xmlns="http://www.w3.org/2000/svg" width="25" height="24" viewBox="0 0 25 24" fill="none">
<g clip-path="url(#clip0_711_80094)">
<rect width="24" height="24" transform="translate(0.5)" fill="white" fill-opacity="0.01"/>
<path fill-rule="evenodd" clip-rule="evenodd" d="M8.75 15.3785H5V16.8785H8.75V15.3785ZM20 15.3785H16.25V16.8785H20V15.3785ZM1.25 5.21233L12.5 0.695312L23.75 5.21233V6.82872L12.5 2.31175L1.25 6.82872V5.21233ZM21.476 11.9779H21.5C21.8977 11.9784 22.279 12.1366 22.5602 12.4178C22.8414 12.699 22.9996 13.0802 23 13.4779V18.7279C22.9996 19.1256 22.8414 19.5069 22.5602 19.7881C22.279 20.0693 21.8977 20.2275 21.5 20.2279V22.1285C21.4997 22.4268 21.381 22.7127 21.1701 22.9236C20.9592 23.1345 20.6733 23.2532 20.375 23.2535H17.75C17.4517 23.2532 17.1658 23.1345 16.9549 22.9236C16.744 22.7127 16.6253 22.4268 16.625 22.1285V20.2279H8.375V22.1285C8.37465 22.4268 8.25601 22.7127 8.04511 22.9236C7.83421 23.1345 7.54826 23.2532 7.25 23.2535H4.625C4.32674 23.2532 4.04079 23.1345 3.82989 22.9236C3.61899 22.7127 3.50035 22.4268 3.5 22.1285V20.2279C3.10231 20.2275 2.72104 20.0693 2.43983 19.7881C2.15863 19.5069 2.00045 19.1256 2 18.7279V13.4779C2.00045 13.0802 2.15863 12.699 2.43983 12.4178C2.72104 12.1366 3.10231 11.9784 3.5 11.9779H3.52395L5.41892 7.71447C5.59593 7.31695 5.88432 6.97923 6.2492 6.74214C6.61409 6.50506 7.03985 6.37876 7.475 6.37853H17.525C17.9602 6.37873 18.386 6.50501 18.7509 6.7421C19.1158 6.97919 19.4042 7.31693 19.5813 7.71447L21.476 11.9779ZM7.06629 7.99967C6.94462 8.07871 6.84846 8.1913 6.78945 8.32384L5.16542 11.9779H19.8344L18.2104 8.32384C18.1514 8.19134 18.0552 8.07876 17.9336 7.99973C17.812 7.9207 17.67 7.87861 17.525 7.87853H7.475C7.32992 7.87856 7.18795 7.92064 7.06629 7.99967ZM5 21.7535H6.875V20.2279H5V21.7535ZM18.125 21.7535H20V20.2279H18.125V21.7535ZM3.5 18.7279H21.5V13.4779H3.5V18.7279Z" fill="white"/>
</g>
<defs>
<clipPath id="clip0_711_80094">
<rect width="24" height="24" fill="white" transform="translate(0.5)"/>
</clipPath>
</defs>
</svg>