<svg xmlns="http://www.w3.org/2000/svg" width="25" height="24" viewBox="0 0 25 24" fill="none">
<g clip-path="url(#clip0_711_80125)">
<rect width="24" height="24" transform="translate(0.5)" fill="white" fill-opacity="0.01"/>
<path d="M8.75 14.2665C8.86445 15.6968 9.99364 16.8117 12.0231 16.9438V18H12.9234V16.9364C15.0216 16.7897 16.25 15.6675 16.25 14.0391C16.25 12.5575 15.3115 11.7946 13.633 11.3985L12.9234 11.2298V8.35452C13.8238 8.45721 14.396 8.94866 14.5333 9.63081H16.1127C15.9982 8.25183 14.8156 7.17359 12.9234 7.05623V6H12.0231V7.07824C10.2302 7.25428 9.00941 8.33252 9.00941 9.85819C9.00941 11.2078 9.91735 12.066 11.428 12.4181L12.0231 12.5648V15.6161C11.0999 15.4768 10.4896 14.9707 10.3522 14.2665H8.75ZM12.0155 11.0171C11.1305 10.8117 10.6498 10.3936 10.6498 9.76284C10.6498 9.05868 11.1686 8.53056 12.0231 8.37653V11.0171H12.0155ZM13.0532 12.8068C14.1289 13.0562 14.6249 13.4597 14.6249 14.1712C14.6249 14.9853 14.0069 15.5428 12.9234 15.6455V12.7775L13.0532 12.8068Z" fill="white"/>
<path d="M12.5 22.5C6.70101 22.5 2 17.799 2 12C2 6.20101 6.70101 1.5 12.5 1.5C18.299 1.5 23 6.20101 23 12C23 17.799 18.299 22.5 12.5 22.5ZM12.5 24C19.1274 24 24.5 18.6274 24.5 12C24.5 5.37258 19.1274 0 12.5 0C5.87258 0 0.5 5.37258 0.5 12C0.5 18.6274 5.87258 24 12.5 24Z" fill="white"/>
<path d="M12.5 20.25C7.94365 20.25 4.25 16.5563 4.25 12C4.25 7.44365 7.94365 3.75 12.5 3.75C17.0563 3.75 20.75 7.44365 20.75 12C20.75 16.5563 17.0563 20.25 12.5 20.25ZM12.5 21C17.4706 21 21.5 16.9706 21.5 12C21.5 7.02944 17.4706 3 12.5 3C7.52944 3 3.5 7.02944 3.5 12C3.5 16.9706 7.52944 21 12.5 21Z" fill="white"/>
</g>
<defs>
<clipPath id="clip0_711_80125">
<rect width="24" height="24" fill="white" transform="translate(0.5)"/>
</clipPath>
</defs>
</svg>