<svg xmlns="http://www.w3.org/2000/svg" width="25" height="24" viewBox="0 0 25 24" fill="none">
<g clip-path="url(#clip0_711_80084)">
<rect width="24" height="24" transform="translate(0.5)" fill="white" fill-opacity="0.01"/>
<path d="M17 3C17 2.60218 17.158 2.22064 17.4393 1.93934C17.7206 1.65804 18.1022 1.5 18.5 1.5H21.5C21.8978 1.5 22.2794 1.65804 22.5607 1.93934C22.842 2.22064 23 2.60218 23 3V21H23.75C23.9489 21 24.1397 21.079 24.2803 21.2197C24.421 21.3603 24.5 21.5511 24.5 21.75C24.5 21.9489 24.421 22.1397 24.2803 22.2803C24.1397 22.421 23.9489 22.5 23.75 22.5H1.25C1.05109 22.5 0.860322 22.421 0.71967 22.2803C0.579018 22.1397 0.5 21.9489 0.5 21.75C0.5 21.5511 0.579018 21.3603 0.71967 21.2197C0.860322 21.079 1.05109 21 1.25 21H2V16.5C2 16.1022 2.15804 15.7206 2.43934 15.4393C2.72064 15.158 3.10218 15 3.5 15H6.5C6.89782 15 7.27936 15.158 7.56066 15.4393C7.84196 15.7206 8 16.1022 8 16.5V21H9.5V10.5C9.5 10.1022 9.65804 9.72064 9.93934 9.43934C10.2206 9.15804 10.6022 9 11 9H14C14.3978 9 14.7794 9.15804 15.0607 9.43934C15.342 9.72064 15.5 10.1022 15.5 10.5V21H17V3ZM18.5 21H21.5V3H18.5V21ZM14 21V10.5H11V21H14ZM6.5 21V16.5H3.5V21H6.5Z" fill="white"/>
</g>
<defs>
<clipPath id="clip0_711_80084">
<rect width="24" height="24" fill="white" transform="translate(0.5)"/>
</clipPath>
</defs>
</svg>