<svg xmlns="http://www.w3.org/2000/svg" width="25" height="24" viewBox="0 0 25 24" fill="none">
<g clip-path="url(#clip0_711_80115)">
<rect width="24" height="24" transform="translate(0.5)" fill="white" fill-opacity="0.01"/>
<path fill-rule="evenodd" clip-rule="evenodd" d="M24.2255 0.169235C24.3114 0.239638 24.3805 0.328233 24.428 0.428622C24.4755 0.529011 24.5001 0.638688 24.5 0.749735V21.7497C24.4999 21.9231 24.4398 22.091 24.3298 22.225C24.2199 22.359 24.067 22.4508 23.897 22.4847L16.397 23.9847C16.3 24.0041 16.2 24.0041 16.103 23.9847L8.75 22.5147L1.397 23.9847C1.28823 24.0065 1.176 24.0038 1.06838 23.977C0.960764 23.9501 0.860444 23.8997 0.774649 23.8294C0.688854 23.7591 0.61972 23.6707 0.572228 23.5704C0.524735 23.4702 0.500067 23.3607 0.5 23.2497V2.24973C0.500105 2.07642 0.560234 1.90848 0.670165 1.77449C0.780096 1.64049 0.933042 1.54871 1.103 1.51473L8.603 0.0147347C8.70004 -0.00466145 8.79996 -0.00466145 8.897 0.0147347L16.25 1.48473L23.603 0.0147347C23.7117 -0.00714162 23.824 -0.00463134 23.9316 0.0220847C24.0392 0.0488007 24.1396 0.0990574 24.2255 0.169235ZM15.5 2.86473L9.5 1.66473V21.1347L15.5 22.3347V2.86473ZM17 22.3347L23 21.1347V1.66473L17 2.86473V22.3347ZM8 21.1347V1.66473L2 2.86473V22.3347L8 21.1347Z" fill="white"/>
</g>
<defs>
<clipPath id="clip0_711_80115">
<rect width="24" height="24" fill="white" transform="translate(0.5)"/>
</clipPath>
</defs>
</svg>