<svg width="25" height="24" viewBox="0 0 25 24" fill="none" xmlns="http://www.w3.org/2000/svg">
<g clip-path="url(#clip0_1098_91100)">
<path d="M0.570312 2.25C0.570313 1.65326 0.807365 1.08097 1.22932 0.65901C1.65128 0.237053 2.22358 0 2.82031 0L22.3203 0C22.917 0 23.4893 0.237053 23.9113 0.65901C24.3333 1.08097 24.5703 1.65326 24.5703 2.25V21.75C24.5703 22.3467 24.3333 22.919 23.9113 23.341C23.4893 23.7629 22.917 24 22.3203 24H2.82031C2.22358 24 1.65128 23.7629 1.22932 23.341C0.807365 22.919 0.570313 22.3467 0.570313 21.75L0.570312 2.25ZM2.82031 1.5C2.6214 1.5 2.43063 1.57902 2.28998 1.71967C2.14933 1.86032 2.07031 2.05109 2.07031 2.25V7.5H8.07031V1.5H2.82031ZM8.07031 9H2.07031V15H8.07031V9ZM9.57031 15H15.5703V9H9.57031V15ZM8.07031 16.5H2.07031V21.75C2.07031 21.9489 2.14933 22.1397 2.28998 22.2803C2.43063 22.421 2.6214 22.5 2.82031 22.5H8.07031V16.5ZM9.57031 16.5V22.5H15.5703V16.5H9.57031ZM17.0703 16.5V22.5H22.3203C22.5192 22.5 22.71 22.421 22.8506 22.2803C22.9913 22.1397 23.0703 21.9489 23.0703 21.75V16.5H17.0703ZM17.0703 15H23.0703V9H17.0703V15ZM17.0703 7.5H23.0703V2.25C23.0703 2.05109 22.9913 1.86032 22.8506 1.71967C22.71 1.57902 22.5192 1.5 22.3203 1.5H17.0703V7.5ZM15.5703 7.5V1.5H9.57031V7.5H15.5703Z" fill="#212529"/>
</g>
<defs>
<clipPath id="clip0_1098_91100">
<rect width="24" height="24" fill="white" transform="translate(0.570312)"/>
</clipPath>
</defs>
</svg>
