<svg xmlns="http://www.w3.org/2000/svg" width="26" height="26" viewBox="0 0 26 26" fill="none">
<rect width="26" height="26" rx="13" fill="#F2F2F2"/>
<path d="M10.5 10.5C10.6326 10.5 10.7598 10.5527 10.8536 10.6464C10.9473 10.7402 11 10.8674 11 11V17C11 17.1326 10.9473 17.2598 10.8536 17.3536C10.7598 17.4473 10.6326 17.5 10.5 17.5C10.3674 17.5 10.2402 17.4473 10.1464 17.3536C10.0527 17.2598 10 17.1326 10 17V11C10 10.8674 10.0527 10.7402 10.1464 10.6464C10.2402 10.5527 10.3674 10.5 10.5 10.5ZM13 10.5C13.1326 10.5 13.2598 10.5527 13.3536 10.6464C13.4473 10.7402 13.5 10.8674 13.5 11V17C13.5 17.1326 13.4473 17.2598 13.3536 17.3536C13.2598 17.4473 13.1326 17.5 13 17.5C12.8674 17.5 12.7402 17.4473 12.6464 17.3536C12.5527 17.2598 12.5 17.1326 12.5 17V11C12.5 10.8674 12.5527 10.7402 12.6464 10.6464C12.7402 10.5527 12.8674 10.5 13 10.5ZM16 11C16 10.8674 15.9473 10.7402 15.8536 10.6464C15.7598 10.5527 15.6326 10.5 15.5 10.5C15.3674 10.5 15.2402 10.5527 15.1464 10.6464C15.0527 10.7402 15 10.8674 15 11V17C15 17.1326 15.0527 17.2598 15.1464 17.3536C15.2402 17.4473 15.3674 17.5 15.5 17.5C15.6326 17.5 15.7598 17.4473 15.8536 17.3536C15.9473 17.2598 16 17.1326 16 17V11Z" fill="#212529"/>
<path fill-rule="evenodd" clip-rule="evenodd" d="M19.5 8C19.5 8.26522 19.3946 8.51957 19.2071 8.70711C19.0196 8.89464 18.7652 9 18.5 9H18V18C18 18.5304 17.7893 19.0391 17.4142 19.4142C17.0391 19.7893 16.5304 20 16 20H10C9.46957 20 8.96086 19.7893 8.58579 19.4142C8.21071 19.0391 8 18.5304 8 18V9H7.5C7.23478 9 6.98043 8.89464 6.79289 8.70711C6.60536 8.51957 6.5 8.26522 6.5 8V7C6.5 6.73478 6.60536 6.48043 6.79289 6.29289C6.98043 6.10536 7.23478 6 7.5 6H11C11 5.73478 11.1054 5.48043 11.2929 5.29289C11.4804 5.10536 11.7348 5 12 5H14C14.2652 5 14.5196 5.10536 14.7071 5.29289C14.8946 5.48043 15 5.73478 15 6H18.5C18.7652 6 19.0196 6.10536 19.2071 6.29289C19.3946 6.48043 19.5 6.73478 19.5 7V8ZM9.118 9L9 9.059V18C9 18.2652 9.10536 18.5196 9.29289 18.7071C9.48043 18.8946 9.73478 19 10 19H16C16.2652 19 16.5196 18.8946 16.7071 18.7071C16.8946 18.5196 17 18.2652 17 18V9.059L16.882 9H9.118ZM7.5 8V7H18.5V8H7.5Z" fill="#212529"/>
</svg>