<svg xmlns="http://www.w3.org/2000/svg" width="57" height="56" viewBox="0 0 57 56" fill="none">
<rect x="4.5" y="4" width="48" height="48" rx="24" fill="#FEE4E2"/>
<path d="M26 25.5C26.1326 25.5 26.2598 25.5527 26.3536 25.6464C26.4473 25.7402 26.5 25.8674 26.5 26V32C26.5 32.1326 26.4473 32.2598 26.3536 32.3536C26.2598 32.4473 26.1326 32.5 26 32.5C25.8674 32.5 25.7402 32.4473 25.6464 32.3536C25.5527 32.2598 25.5 32.1326 25.5 32V26C25.5 25.8674 25.5527 25.7402 25.6464 25.6464C25.7402 25.5527 25.8674 25.5 26 25.5ZM28.5 25.5C28.6326 25.5 28.7598 25.5527 28.8536 25.6464C28.9473 25.7402 29 25.8674 29 26V32C29 32.1326 28.9473 32.2598 28.8536 32.3536C28.7598 32.4473 28.6326 32.5 28.5 32.5C28.3674 32.5 28.2402 32.4473 28.1464 32.3536C28.0527 32.2598 28 32.1326 28 32V26C28 25.8674 28.0527 25.7402 28.1464 25.6464C28.2402 25.5527 28.3674 25.5 28.5 25.5ZM31.5 26C31.5 25.8674 31.4473 25.7402 31.3536 25.6464C31.2598 25.5527 31.1326 25.5 31 25.5C30.8674 25.5 30.7402 25.5527 30.6464 25.6464C30.5527 25.7402 30.5 25.8674 30.5 26V32C30.5 32.1326 30.5527 32.2598 30.6464 32.3536C30.7402 32.4473 30.8674 32.5 31 32.5C31.1326 32.5 31.2598 32.4473 31.3536 32.3536C31.4473 32.2598 31.5 32.1326 31.5 32V26Z" fill="#EA0101"/>
<path fill-rule="evenodd" clip-rule="evenodd" d="M35 23C35 23.2652 34.8946 23.5196 34.7071 23.7071C34.5196 23.8946 34.2652 24 34 24H33.5V33C33.5 33.5304 33.2893 34.0391 32.9142 34.4142C32.5391 34.7893 32.0304 35 31.5 35H25.5C24.9696 35 24.4609 34.7893 24.0858 34.4142C23.7107 34.0391 23.5 33.5304 23.5 33V24H23C22.7348 24 22.4804 23.8946 22.2929 23.7071C22.1054 23.5196 22 23.2652 22 23V22C22 21.7348 22.1054 21.4804 22.2929 21.2929C22.4804 21.1054 22.7348 21 23 21H26.5C26.5 20.7348 26.6054 20.4804 26.7929 20.2929C26.9804 20.1054 27.2348 20 27.5 20H29.5C29.7652 20 30.0196 20.1054 30.2071 20.2929C30.3946 20.4804 30.5 20.7348 30.5 21H34C34.2652 21 34.5196 21.1054 34.7071 21.2929C34.8946 21.4804 35 21.7348 35 22V23ZM24.618 24L24.5 24.059V33C24.5 33.2652 24.6054 33.5196 24.7929 33.7071C24.9804 33.8946 25.2348 34 25.5 34H31.5C31.7652 34 32.0196 33.8946 32.2071 33.7071C32.3946 33.5196 32.5 33.2652 32.5 33V24.059L32.382 24H24.618ZM23 23V22H34V23H23Z" fill="#EA0101"/>
<rect x="4.5" y="4" width="48" height="48" rx="24" stroke="#FEF3F2" stroke-width="8"/>
</svg>