<svg xmlns="http://www.w3.org/2000/svg" width="24" height="25" viewBox="0 0 24 25" fill="none">
<circle cx="12" cy="12.5" r="12" fill="#0D6EFD"/>
<g clip-path="url(#clip0_329_459931)">
<path d="M9.84173 10.342C9.9564 10.342 10.0664 10.3875 10.1475 10.4686C10.2285 10.5497 10.2741 10.6596 10.2741 10.7743V15.9627C10.2741 16.0774 10.2285 16.1873 10.1475 16.2684C10.0664 16.3495 9.9564 16.3951 9.84173 16.3951C9.72706 16.3951 9.61709 16.3495 9.536 16.2684C9.45492 16.1873 9.40937 16.0774 9.40937 15.9627V10.7743C9.40937 10.6596 9.45492 10.5497 9.536 10.4686C9.61709 10.3875 9.72706 10.342 9.84173 10.342ZM12.0036 10.342C12.1182 10.342 12.2282 10.3875 12.3093 10.4686C12.3904 10.5497 12.4359 10.6596 12.4359 10.7743V15.9627C12.4359 16.0774 12.3904 16.1873 12.3093 16.2684C12.2282 16.3495 12.1182 16.3951 12.0036 16.3951C11.8889 16.3951 11.7789 16.3495 11.6978 16.2684C11.6167 16.1873 11.5712 16.0774 11.5712 15.9627V10.7743C11.5712 10.6596 11.6167 10.5497 11.6978 10.4686C11.7789 10.3875 11.8889 10.342 12.0036 10.342ZM14.5977 10.7743C14.5977 10.6596 14.5522 10.5497 14.4711 10.4686C14.39 10.3875 14.2801 10.342 14.1654 10.342C14.0507 10.342 13.9407 10.3875 13.8597 10.4686C13.7786 10.5497 13.733 10.6596 13.733 10.7743V15.9627C13.733 16.0774 13.7786 16.1873 13.8597 16.2684C13.9407 16.3495 14.0507 16.3951 14.1654 16.3951C14.2801 16.3951 14.39 16.3495 14.4711 16.2684C14.5522 16.1873 14.5977 16.0774 14.5977 15.9627V10.7743Z" fill="white"/>
<path fill-rule="evenodd" clip-rule="evenodd" d="M17.6243 8.18013C17.6243 8.40947 17.5332 8.62942 17.371 8.79158C17.2089 8.95375 16.9889 9.04486 16.7596 9.04486H16.3272V16.8274C16.3272 17.2861 16.145 17.726 15.8207 18.0503C15.4963 18.3747 15.0564 18.5569 14.5977 18.5569H9.40937C8.95069 18.5569 8.51079 18.3747 8.18645 18.0503C7.86212 17.726 7.67991 17.2861 7.67991 16.8274V9.04486H7.24754C7.0182 9.04486 6.79825 8.95375 6.63609 8.79158C6.47392 8.62942 6.38281 8.40947 6.38281 8.18013V7.3154C6.38281 7.08606 6.47392 6.86611 6.63609 6.70394C6.79825 6.54177 7.0182 6.45067 7.24754 6.45067H10.2741C10.2741 6.22133 10.3652 6.00138 10.5274 5.83921C10.6895 5.67704 10.9095 5.58594 11.1388 5.58594H12.8683C13.0976 5.58594 13.3176 5.67704 13.4797 5.83921C13.6419 6.00138 13.733 6.22133 13.733 6.45067H16.7596C16.9889 6.45067 17.2089 6.54177 17.371 6.70394C17.5332 6.86611 17.6243 7.08606 17.6243 7.3154V8.18013ZM8.64668 9.04486L8.54464 9.09588V16.8274C8.54464 17.0568 8.63574 17.2767 8.79791 17.4389C8.96008 17.6011 9.18003 17.6922 9.40937 17.6922H14.5977C14.8271 17.6922 15.047 17.6011 15.2092 17.4389C15.3714 17.2767 15.4625 17.0568 15.4625 16.8274V9.09588L15.3604 9.04486H8.64668ZM7.24754 8.18013V7.3154H16.7596V8.18013H7.24754Z" fill="white"/>
</g>
<defs>
<clipPath id="clip0_329_459931">
<rect width="13.8357" height="13.8357" fill="white" transform="translate(5.08594 5.58594)"/>
</clipPath>
</defs>
</svg>