<svg width="26" height="26" viewBox="0 0 26 26" fill="none" xmlns="http://www.w3.org/2000/svg">
<rect width="26" height="26" rx="13" fill="#F2F2F2"/>
<path d="M20.502 6.94039C20.5954 7.03412 20.6479 7.16106 20.6479 7.29339C20.6479 7.42573 20.5954 7.55267 20.502 7.64639L19.459 8.69039L17.459 6.69039L18.502 5.64639C18.5958 5.55266 18.7229 5.5 18.8555 5.5C18.9881 5.5 19.1152 5.55266 19.209 5.64639L20.502 6.93939V6.94039ZM18.752 9.39639L16.752 7.39639L9.939 14.2104C9.88396 14.2654 9.84253 14.3325 9.818 14.4064L9.013 16.8204C8.9984 16.8644 8.99633 16.9116 9.00701 16.9567C9.0177 17.0018 9.04072 17.0431 9.07351 17.0759C9.10629 17.1087 9.14755 17.1317 9.19267 17.1424C9.23779 17.1531 9.28499 17.151 9.329 17.1364L11.743 16.3314C11.8168 16.3072 11.8839 16.2661 11.939 16.2114L18.752 9.39639Z" fill="#212529"/>
<path fill-rule="evenodd" clip-rule="evenodd" d="M6 18.5004C6 18.8982 6.15804 19.2797 6.43934 19.5611C6.72064 19.8424 7.10218 20.0004 7.5 20.0004H18.5C18.8978 20.0004 19.2794 19.8424 19.5607 19.5611C19.842 19.2797 20 18.8982 20 18.5004V12.5004C20 12.3678 19.9473 12.2406 19.8536 12.1468C19.7598 12.0531 19.6326 12.0004 19.5 12.0004C19.3674 12.0004 19.2402 12.0531 19.1464 12.1468C19.0527 12.2406 19 12.3678 19 12.5004V18.5004C19 18.633 18.9473 18.7602 18.8536 18.8539C18.7598 18.9477 18.6326 19.0004 18.5 19.0004H7.5C7.36739 19.0004 7.24021 18.9477 7.14645 18.8539C7.05268 18.7602 7 18.633 7 18.5004V7.50039C7 7.36778 7.05268 7.24061 7.14645 7.14684C7.24021 7.05307 7.36739 7.00039 7.5 7.00039H14C14.1326 7.00039 14.2598 6.94771 14.3536 6.85395C14.4473 6.76018 14.5 6.633 14.5 6.50039C14.5 6.36779 14.4473 6.24061 14.3536 6.14684C14.2598 6.05307 14.1326 6.00039 14 6.00039H7.5C7.10218 6.00039 6.72064 6.15843 6.43934 6.43973C6.15804 6.72104 6 7.10257 6 7.50039V18.5004Z" fill="#212529"/>
</svg>
