<svg width="24" height="25" viewBox="0 0 24 25" fill="none" xmlns="http://www.w3.org/2000/svg">
<rect width="24" height="24" transform="translate(0 0.5)" fill="white" fill-opacity="0.01"/>
<path d="M24.003 12.575C24.003 5.906 18.63 0.5 12.003 0.5C5.373 0.5015 0 5.906 0 12.5765C0 18.602 4.389 23.597 10.125 24.503V16.0655H7.08V12.5765H10.128V9.914C10.128 6.8885 11.9205 5.2175 14.661 5.2175C15.975 5.2175 17.3475 5.453 17.3475 5.453V8.423H15.834C14.3445 8.423 13.8795 9.3545 13.8795 10.31V12.575H17.2065L16.6755 16.064H13.878V24.5015C19.614 23.5955 24.003 18.6005 24.003 12.575Z" fill="white"/>
</svg>
