<svg width="52" height="37" viewBox="0 0 52 37" fill="none" xmlns="http://www.w3.org/2000/svg">
<g clip-path="url(#clip0_241_484872)">
<path d="M0 0H52V36.2147H0V0Z" fill="white"/>
<path d="M29.25 0H22.75V14.712H0V21.5022H22.75V36.2142H29.25V21.5022H52V14.712H29.25V0Z" fill="#D80027"/>
<path d="M39.9901 24.4062L51.9963 31.3743V24.4062H39.9901ZM31.6484 24.4062L51.9963 36.2152V32.8759L37.4025 24.4062H31.6484ZM46.5763 36.2152L31.6484 27.551V36.2152H46.5763Z" fill="#0052B4"/>
<path d="M31.6484 24.4062L51.9963 36.2152V32.8759L37.4025 24.4062H31.6484Z" fill="white"/>
<path d="M31.6484 24.4062L51.9963 36.2152V32.8759L37.4025 24.4062H31.6484Z" fill="#D80027"/>
<path d="M9.17526 24.4062L0 29.7312V24.4062H9.17526ZM20.3478 25.9079V36.2153H2.58893L20.3478 25.9079Z" fill="#0052B4"/>
<path d="M14.5938 24.4062L0 32.8759V36.2152L20.3478 24.4062H14.5938Z" fill="#D80027"/>
<path d="M12.0062 11.809L0 4.84098V11.809H12.0062ZM20.3478 11.809L0 0V3.33929L14.5938 11.809H20.3478ZM5.41998 0L20.3478 8.66428V0H5.41998Z" fill="#0052B4"/>
<path d="M20.3478 11.809L0 0V3.33929L14.5938 11.809H20.3478Z" fill="white"/>
<path d="M20.3478 11.809L0 0V3.33929L14.5938 11.809H20.3478Z" fill="#D80027"/>
<path d="M42.821 11.8091L51.9963 6.4841V11.8091H42.821ZM31.6484 10.3074V0H49.4074L31.6484 10.3074Z" fill="#0052B4"/>
<path d="M37.4025 11.809L51.9963 3.33929V0L31.6484 11.809H37.4025Z" fill="#D80027"/>
</g>
<defs>
<clipPath id="clip0_241_484872">
<rect width="52" height="36.2143" fill="white"/>
</clipPath>
</defs>
</svg>
