<svg width="25" height="24" viewBox="0 0 25 24" fill="none" xmlns="http://www.w3.org/2000/svg">
<g clip-path="url(#clip0_1098_91059)">
<path d="M21.1406 11.9744H21.1167L19.2219 7.71094C19.0449 7.31339 18.7564 6.97566 18.3915 6.73857C18.0266 6.50148 17.6008 6.3752 17.1656 6.375H7.11563C6.68048 6.37523 6.25472 6.50153 5.88983 6.73861C5.52494 6.9757 5.23656 7.31342 5.05955 7.71094L3.16458 11.9744H3.14062C2.74294 11.9749 2.36167 12.133 2.08046 12.4142C1.79925 12.6954 1.64107 13.0767 1.64062 13.4744V18.7244C1.64107 19.1221 1.79925 19.5034 2.08046 19.7846C2.36167 20.0658 2.74294 20.224 3.14062 20.2244V22.125C3.14097 22.4233 3.25961 22.7092 3.47051 22.9201C3.68142 23.131 3.96736 23.2497 4.26562 23.25H6.89062C7.18889 23.2497 7.47483 23.131 7.68574 22.9201C7.89664 22.7092 8.01528 22.4233 8.01562 22.125V20.2244H16.2656V22.125C16.266 22.4233 16.3846 22.7092 16.5955 22.9201C16.8064 23.131 17.0924 23.2497 17.3906 23.25H20.0156C20.3139 23.2497 20.5998 23.131 20.8107 22.9201C21.0216 22.7092 21.1403 22.4233 21.1406 22.125V20.2244C21.5383 20.224 21.9196 20.0658 22.2008 19.7846C22.482 19.5034 22.6402 19.1221 22.6406 18.7244V13.4744C22.6402 13.0767 22.482 12.6954 22.2008 12.4142C21.9196 12.133 21.5383 11.9749 21.1406 11.9744ZM6.43008 8.32031C6.48909 8.18777 6.58524 8.07517 6.70691 7.99614C6.82858 7.91711 6.97054 7.87503 7.11563 7.875H17.1656C17.3107 7.87508 17.4526 7.91717 17.5742 7.9962C17.6959 8.07523 17.792 8.18781 17.851 8.32031L19.475 11.9744H4.80605L6.43008 8.32031ZM6.51562 21.75H4.64062V20.2244H6.51562V21.75ZM19.6406 21.75H17.7656V20.2244H19.6406V21.75ZM21.1406 18.7244H3.14062V13.4744H21.1406V18.7244Z" fill="#212529"/>
<path d="M4.64062 15.3785H8.39062V16.8785H4.64062V15.3785ZM15.8906 15.3785H19.6406V16.8785H15.8906V15.3785ZM12.1406 0.695312L0.890625 5.21233V6.82872L12.1406 2.31175L23.3906 6.82872V5.21233L12.1406 0.695312Z" fill="#212529"/>
</g>
<defs>
<clipPath id="clip0_1098_91059">
<rect width="24" height="24" fill="white" transform="translate(0.140625)"/>
</clipPath>
</defs>
</svg>
