<svg width="24" height="23" viewBox="0 0 24 23" fill="none" xmlns="http://www.w3.org/2000/svg">
<path fill-rule="evenodd" clip-rule="evenodd" d="M23.04 11.7585C23.04 10.9431 22.9668 10.159 22.8309 9.40625H12V13.8547H18.1891C17.9225 15.2922 17.1123 16.5101 15.8943 17.3256V20.211H19.6109C21.7855 18.209 23.04 15.2608 23.04 11.7585Z" fill="#4285F4"/>
<path fill-rule="evenodd" clip-rule="evenodd" d="M12.0034 23.0025C15.1084 23.0025 17.7116 21.9727 19.6143 20.2164L15.8977 17.3309C14.8679 18.0209 13.5507 18.4286 12.0034 18.4286C9.00815 18.4286 6.47293 16.4057 5.56861 13.6875H1.72656V16.667C3.61884 20.4255 7.50793 23.0025 12.0034 23.0025Z" fill="#34A853"/>
<path fill-rule="evenodd" clip-rule="evenodd" d="M5.56523 13.6855C5.33523 12.9955 5.20455 12.2584 5.20455 11.5005C5.20455 10.7425 5.33523 10.0055 5.56523 9.31548V6.33594H1.72318C0.944318 7.88844 0.5 9.6448 0.5 11.5005C0.5 13.3562 0.944318 15.1125 1.72318 16.665L5.56523 13.6855Z" fill="#FBBC05"/>
<path fill-rule="evenodd" clip-rule="evenodd" d="M12.0034 4.57386C13.6918 4.57386 15.2077 5.15409 16.3995 6.29364L19.6979 2.99523C17.7063 1.13955 15.1032 0 12.0034 0C7.50793 0 3.61884 2.57705 1.72656 6.33545L5.56861 9.315C6.47293 6.59682 9.00815 4.57386 12.0034 4.57386Z" fill="#EA4335"/>
</svg>
