<svg width="33" height="32" viewBox="0 0 33 32" fill="none" xmlns="http://www.w3.org/2000/svg">
<path d="M8.89561 31.8868C6.99256 31.8003 5.95877 31.4836 5.27116 31.2154C4.36005 30.8606 3.71049 30.4384 3.02668 29.7555C2.34288 29.0727 1.91966 28.4231 1.56682 27.512C1.29862 26.8244 0.981922 25.7906 0.895376 23.8875C0.800271 21.8304 0.78125 21.2132 0.78125 16.0014C0.78125 10.7897 0.802173 10.1734 0.894425 8.11436C0.980971 6.21131 1.29957 5.17942 1.56587 4.48991C1.92061 3.5788 2.34383 2.92924 3.02573 2.24448C3.70858 1.56163 4.35815 1.13746 5.27021 0.784617C5.95782 0.51642 6.99161 0.199721 8.89466 0.113175C10.9527 0.019021 11.5709 0 16.7808 0C21.9925 0 22.6088 0.0209231 24.6678 0.113175C26.5709 0.199721 27.6028 0.518323 28.2923 0.784617C29.2034 1.13746 29.853 1.56163 30.5368 2.24448C31.2206 2.92733 31.6419 3.57785 31.9966 4.48896C32.2648 5.17657 32.5815 6.21036 32.6681 8.11341C32.7622 10.1724 32.7812 10.7887 32.7812 16.0005C32.7812 21.2103 32.7622 21.8285 32.6681 23.8875C32.5815 25.7906 32.2629 26.8244 31.9966 27.512C31.6419 28.4231 31.2196 29.0727 30.5368 29.7555C29.8539 30.4384 29.2034 30.8606 28.2923 31.2154C27.6047 31.4836 26.5709 31.8003 24.6678 31.8868C22.6107 31.981 21.9925 32 16.7808 32C11.5709 32 10.9527 31.9819 8.89561 31.8868Z" fill="url(#paint0_radial_358_463645)"/>
<path d="M13.1533 15.8893C13.1533 13.9465 14.7278 12.3712 16.6705 12.3712C18.6133 12.3712 20.1886 13.9465 20.1886 15.8893C20.1886 17.832 18.6133 19.4073 16.6705 19.4073C14.7278 19.4073 13.1533 17.832 13.1533 15.8893ZM11.2515 15.8893C11.2515 18.8822 13.6776 21.3083 16.6705 21.3083C19.6634 21.3083 22.0895 18.8822 22.0895 15.8893C22.0895 12.8963 19.6634 10.4703 16.6705 10.4703C13.6776 10.4703 11.2516 12.8962 11.2516 15.8893M21.0377 10.2554C21.0376 10.5059 21.1118 10.7507 21.2509 10.9591C21.39 11.1674 21.5877 11.3298 21.819 11.4257C22.0504 11.5217 22.305 11.5468 22.5507 11.4981C22.7964 11.4493 23.0221 11.3288 23.1993 11.1517C23.3764 10.9747 23.4971 10.7491 23.5461 10.5035C23.5951 10.2578 23.5701 10.0032 23.4743 9.77174C23.3786 9.5403 23.2163 9.34245 23.0081 9.20321C22.7999 9.06397 22.5551 8.9896 22.3046 8.9895H22.3041C21.9684 8.98966 21.6465 9.12306 21.409 9.36041C21.1716 9.59777 21.038 9.91966 21.0377 10.2554ZM12.407 24.4795C11.3781 24.4327 10.8188 24.2613 10.4472 24.1165C9.95446 23.9247 9.60291 23.6962 9.23329 23.3271C8.86367 22.958 8.63488 22.6068 8.4439 22.114C8.29903 21.7426 8.12764 21.1832 8.08087 20.1543C8.0297 19.0418 8.01949 18.7077 8.01949 15.8894C8.01949 13.0712 8.03055 12.738 8.08087 11.6246C8.12772 10.5957 8.30038 10.0374 8.4439 9.66483C8.63572 9.17212 8.86418 8.82056 9.23329 8.45094C9.6024 8.08132 9.95362 7.85253 10.4472 7.66155C10.8187 7.51668 11.3781 7.34529 12.407 7.29852C13.5194 7.24736 13.8535 7.23714 16.6705 7.23714C19.4875 7.23714 19.822 7.24803 20.9353 7.29869C21.9642 7.34555 22.5226 7.5182 22.8951 7.66172C23.3878 7.8527 23.7394 8.082 24.109 8.45111C24.4786 8.82023 24.7066 9.17229 24.8984 9.665C25.0433 10.0365 25.2147 10.5959 25.2614 11.6248C25.3126 12.7381 25.3228 13.0714 25.3228 15.8896C25.3228 18.7079 25.3126 19.0411 25.2614 20.1544C25.2146 21.1833 25.0424 21.7426 24.8984 22.1142C24.7066 22.6069 24.4781 22.9585 24.109 23.3273C23.7399 23.696 23.3878 23.9248 22.8951 24.1166C22.5237 24.2615 21.9642 24.4329 20.9353 24.4797C19.8229 24.5308 19.4888 24.5411 16.6705 24.5411C13.8523 24.5411 13.519 24.5308 12.407 24.4797M12.3196 5.39985C11.1961 5.45101 10.4284 5.62915 9.758 5.89003C9.0641 6.15944 8.4759 6.52087 7.88854 7.10729C7.30119 7.69372 6.94069 8.28201 6.67128 8.97675C6.4104 9.64761 6.23226 10.4149 6.1811 11.5383C6.12909 12.6636 6.11719 13.0233 6.11719 15.8893C6.11719 18.7552 6.12909 19.115 6.1811 20.2402C6.23226 21.3637 6.4104 22.1309 6.67128 22.8018C6.94069 23.4957 7.30127 24.0851 7.88854 24.6712C8.47581 25.2574 9.06326 25.6183 9.758 25.8885C10.4297 26.1494 11.1961 26.3275 12.3196 26.3787C13.4454 26.4299 13.8046 26.4426 16.6705 26.4426C19.5365 26.4426 19.8962 26.4307 21.0214 26.3787C22.145 26.3275 22.9122 26.1494 23.583 25.8885C24.2769 25.6183 24.8651 25.2577 25.4525 24.6712C26.0399 24.0848 26.3996 23.4957 26.6698 22.8018C26.9306 22.1309 27.1096 21.3637 27.1599 20.2402C27.2111 19.1141 27.223 18.7552 27.223 15.8893C27.223 13.0233 27.2111 12.6636 27.1599 11.5383C27.1088 10.4148 26.9306 9.64719 26.6698 8.97675C26.3996 8.28285 26.0389 7.69465 25.4525 7.10729C24.8661 6.51994 24.2769 6.15944 23.5839 5.89003C22.9122 5.62915 22.1449 5.45017 21.0223 5.39985C19.8969 5.34843 19.5373 5.33594 16.6718 5.33594C13.8063 5.33594 13.4458 5.34784 12.32 5.39985" fill="white"/>
<defs>
<radialGradient id="paint0_radial_358_463645" cx="0" cy="0" r="1" gradientUnits="userSpaceOnUse" gradientTransform="translate(2.85226 31.299) scale(40.6281)">
<stop offset="0.09" stop-color="#FA8F21"/>
<stop offset="0.78" stop-color="#D82D7E"/>
</radialGradient>
</defs>
</svg>
