<svg xmlns="http://www.w3.org/2000/svg" width="24" height="24" viewBox="0 0 24 24" fill="none">
<g clip-path="url(#clip0_716_80143)">
<rect width="24" height="24" fill="white" fill-opacity="0.01"/>
<path d="M13.3988 1.09125C13.0343 -0.36375 10.9688 -0.36375 10.6027 1.09125L10.4963 1.52025C10.4339 1.76956 10.306 1.99765 10.1258 2.18086C9.94563 2.36407 9.71968 2.49571 9.47144 2.56214C9.22319 2.62856 8.96169 2.62734 8.71407 2.55861C8.46645 2.48987 8.24174 2.35613 8.06325 2.17125L7.75575 1.85475C6.71325 0.77625 4.92375 1.80975 5.33625 3.25125L5.45625 3.67725C5.52676 3.92407 5.53002 4.18525 5.46568 4.43375C5.40134 4.68225 5.27174 4.90903 5.09031 5.09062C4.90887 5.2722 4.6822 5.40199 4.43376 5.46654C4.18531 5.53109 3.92413 5.52805 3.67725 5.45775L3.25125 5.33625C1.81125 4.92375 0.77625 6.71325 1.85475 7.75575L2.17125 8.06325C2.35613 8.24174 2.48987 8.46645 2.55861 8.71407C2.62734 8.96169 2.62856 9.22319 2.56214 9.47144C2.49571 9.71968 2.36407 9.94563 2.18086 10.1258C1.99765 10.306 1.76956 10.4339 1.52025 10.4963L1.09125 10.6027C-0.36375 10.9672 -0.36375 13.0328 1.09125 13.3988L1.52025 13.5052C1.76956 13.5676 1.99765 13.6955 2.18086 13.8757C2.36407 14.0559 2.49571 14.2818 2.56214 14.5301C2.62856 14.7783 2.62734 15.0398 2.55861 15.2874C2.48987 15.535 2.35613 15.7598 2.17125 15.9382L1.85475 16.2458C0.77625 17.2882 1.80975 19.0777 3.25125 18.6652L3.67725 18.5452C3.92422 18.4746 4.1856 18.4713 4.43427 18.5357C4.68295 18.6001 4.90987 18.7298 5.09151 18.9115C5.27315 19.0931 5.4029 19.3201 5.4673 19.5687C5.53169 19.8174 5.5284 20.0788 5.45775 20.3258L5.33625 20.7502C4.92375 22.1903 6.71325 23.2253 7.75575 22.1467L8.06325 21.8302C8.24174 21.6454 8.46645 21.5116 8.71407 21.4429C8.96169 21.3742 9.22319 21.3729 9.47144 21.4394C9.71968 21.5058 9.94563 21.6374 10.1258 21.8206C10.306 22.0038 10.4339 22.2319 10.4963 22.4813L10.6027 22.9102C10.9672 24.3652 13.0328 24.3652 13.3988 22.9102L13.5052 22.4813C13.5676 22.2319 13.6955 22.0038 13.8757 21.8206C14.0559 21.6374 14.2818 21.5058 14.5301 21.4394C14.7783 21.3729 15.0398 21.3742 15.2874 21.4429C15.535 21.5116 15.7598 21.6454 15.9382 21.8302L16.2458 22.1467C17.2882 23.2253 19.0777 22.1917 18.6652 20.7502L18.5452 20.3242C18.4746 20.0773 18.4713 19.8159 18.5357 19.5672C18.6001 19.3186 18.7298 19.0916 18.9115 18.91C19.0931 18.7283 19.3201 18.5986 19.5687 18.5342C19.8174 18.4698 20.0788 18.4731 20.3258 18.5438L20.7502 18.6652C22.1903 19.0777 23.2253 17.2882 22.1467 16.2458L21.8302 15.9382C21.6454 15.7598 21.5116 15.535 21.4429 15.2874C21.3742 15.0398 21.3729 14.7783 21.4394 14.5301C21.5058 14.2818 21.6374 14.0559 21.8206 13.8757C22.0038 13.6955 22.2319 13.5676 22.4813 13.5052L22.9102 13.3988C24.3652 13.0343 24.3652 10.9688 22.9102 10.6027L22.4813 10.4963C22.2319 10.4339 22.0038 10.306 21.8206 10.1258C21.6374 9.94563 21.5058 9.71968 21.4394 9.47144C21.3729 9.22319 21.3742 8.96169 21.4429 8.71407C21.5116 8.46645 21.6454 8.24174 21.8302 8.06325L22.1467 7.75575C23.2253 6.71325 22.1917 4.92375 20.7502 5.33625L20.3242 5.45625C20.0774 5.52676 19.8163 5.53002 19.5678 5.46568C19.3193 5.40134 19.0925 5.27174 18.9109 5.09031C18.7293 4.90887 18.5995 4.6822 18.535 4.43376C18.4704 4.18531 18.4734 3.92413 18.5438 3.67725L18.6652 3.25125C19.0777 1.81125 17.2882 0.77625 16.2458 1.85475L15.9382 2.17125C15.7598 2.35613 15.535 2.48987 15.2874 2.55861C15.0398 2.62734 14.7783 2.62856 14.5301 2.56214C14.2818 2.49571 14.0559 2.36407 13.8757 2.18086C13.6955 1.99765 13.5676 1.76956 13.5052 1.52025L13.3988 1.09125ZM12.0007 19.4963C11.0074 19.5103 10.0212 19.3268 9.09937 18.9564C8.17757 18.586 7.33858 18.036 6.63115 17.3385C5.92373 16.6411 5.36199 15.8099 4.97857 14.8935C4.59515 13.977 4.39771 12.9934 4.39771 12C4.39771 11.0066 4.59515 10.023 4.97857 9.10655C5.36199 8.19007 5.92373 7.35895 6.63115 6.66146C7.33858 5.96398 8.17757 5.41405 9.09937 5.04363C10.0212 4.67321 11.0074 4.4897 12.0007 4.50375C13.9891 4.50375 15.896 5.29361 17.3019 6.69957C18.7079 8.10553 19.4977 10.0124 19.4977 12.0007C19.4977 13.9891 18.7079 15.896 17.3019 17.3019C15.896 18.7079 13.9891 19.4977 12.0007 19.4977V19.4963Z" fill="white"/>
</g>
<defs>
<clipPath id="clip0_716_80143">
<rect width="24" height="24" fill="white"/>
</clipPath>
</defs>
</svg>