<svg width="33" height="32" viewBox="0 0 33 32" fill="none" xmlns="http://www.w3.org/2000/svg">
<g clip-path="url(#clip0_358_463662)">
<path d="M24.3516 0H8.35156C7.2907 0 6.27328 0.421427 5.52314 1.17157C4.77299 1.92172 4.35156 2.93913 4.35156 4V28C4.35156 29.0609 4.77299 30.0783 5.52314 30.8284C6.27328 31.5786 7.2907 32 8.35156 32H24.3516C25.4124 32 26.4298 31.5786 27.18 30.8284C27.9301 30.0783 28.3516 29.0609 28.3516 28V4C28.3516 2.93913 27.9301 1.92172 27.18 1.17157C26.4298 0.421427 25.4124 0 24.3516 0V0ZM10.3516 8H22.3516C22.6168 8 22.8711 8.10536 23.0587 8.29289C23.2462 8.48043 23.3516 8.73478 23.3516 9C23.3516 9.26522 23.2462 9.51957 23.0587 9.70711C22.8711 9.89464 22.6168 10 22.3516 10H10.3516C10.0863 10 9.83199 9.89464 9.64446 9.70711C9.45692 9.51957 9.35156 9.26522 9.35156 9C9.35156 8.73478 9.45692 8.48043 9.64446 8.29289C9.83199 8.10536 10.0863 8 10.3516 8ZM9.35156 13C9.35156 12.7348 9.45692 12.4804 9.64446 12.2929C9.83199 12.1054 10.0863 12 10.3516 12H22.3516C22.6168 12 22.8711 12.1054 23.0587 12.2929C23.2462 12.4804 23.3516 12.7348 23.3516 13C23.3516 13.2652 23.2462 13.5196 23.0587 13.7071C22.8711 13.8946 22.6168 14 22.3516 14H10.3516C10.0863 14 9.83199 13.8946 9.64446 13.7071C9.45692 13.5196 9.35156 13.2652 9.35156 13ZM10.3516 16H22.3516C22.6168 16 22.8711 16.1054 23.0587 16.2929C23.2462 16.4804 23.3516 16.7348 23.3516 17C23.3516 17.2652 23.2462 17.5196 23.0587 17.7071C22.8711 17.8946 22.6168 18 22.3516 18H10.3516C10.0863 18 9.83199 17.8946 9.64446 17.7071C9.45692 17.5196 9.35156 17.2652 9.35156 17C9.35156 16.7348 9.45692 16.4804 9.64446 16.2929C9.83199 16.1054 10.0863 16 10.3516 16ZM10.3516 20H16.3516C16.6168 20 16.8711 20.1054 17.0587 20.2929C17.2462 20.4804 17.3516 20.7348 17.3516 21C17.3516 21.2652 17.2462 21.5196 17.0587 21.7071C16.8711 21.8946 16.6168 22 16.3516 22H10.3516C10.0863 22 9.83199 21.8946 9.64446 21.7071C9.45692 21.5196 9.35156 21.2652 9.35156 21C9.35156 20.7348 9.45692 20.4804 9.64446 20.2929C9.83199 20.1054 10.0863 20 10.3516 20Z" fill="#212529"/>
</g>
<defs>
<clipPath id="clip0_358_463662">
<rect width="32" height="32" fill="white" transform="translate(0.351562)"/>
</clipPath>
</defs>
</svg>
