<svg width="25" height="24" viewBox="0 0 25 24" fill="none" xmlns="http://www.w3.org/2000/svg">
<g clip-path="url(#clip0_1098_91092)">
<path d="M16.7812 3C16.7812 2.60218 16.9393 2.22064 17.2206 1.93934C17.5019 1.65804 17.8834 1.5 18.2812 1.5H21.2812C21.6791 1.5 22.0606 1.65804 22.3419 1.93934C22.6232 2.22064 22.7812 2.60218 22.7812 3V21H23.5312C23.7302 21 23.9209 21.079 24.0616 21.2197C24.2022 21.3603 24.2812 21.5511 24.2812 21.75C24.2812 21.9489 24.2022 22.1397 24.0616 22.2803C23.9209 22.421 23.7302 22.5 23.5312 22.5H1.03125C0.832338 22.5 0.641572 22.421 0.50092 22.2803C0.360268 22.1397 0.28125 21.9489 0.28125 21.75C0.28125 21.5511 0.360268 21.3603 0.50092 21.2197C0.641572 21.079 0.832338 21 1.03125 21H1.78125V16.5C1.78125 16.1022 1.93929 15.7206 2.22059 15.4393C2.50189 15.158 2.88343 15 3.28125 15H6.28125C6.67907 15 7.06061 15.158 7.34191 15.4393C7.62321 15.7206 7.78125 16.1022 7.78125 16.5V21H9.28125V10.5C9.28125 10.1022 9.43929 9.72064 9.72059 9.43934C10.0019 9.15804 10.3834 9 10.7812 9H13.7812C14.1791 9 14.5606 9.15804 14.8419 9.43934C15.1232 9.72064 15.2812 10.1022 15.2812 10.5V21H16.7812V3ZM18.2812 21H21.2812V3H18.2812V21ZM13.7812 21V10.5H10.7812V21H13.7812ZM6.28125 21V16.5H3.28125V21H6.28125Z" fill="#212529"/>
</g>
<defs>
<clipPath id="clip0_1098_91092">
<rect width="24" height="24" fill="white" transform="translate(0.28125)"/>
</clipPath>
</defs>
</svg>
