<svg width="30" height="30" viewBox="0 0 30 30" fill="none" xmlns="http://www.w3.org/2000/svg">
<g id="tabler:report-analytics">
<g id="Group">
<path id="Vector" d="M11 6.5H8.5C7.83696 6.5 7.20107 6.76339 6.73223 7.23223C6.26339 7.70107 6 8.33696 6 9V24C6 24.663 6.26339 25.2989 6.73223 25.7678C7.20107 26.2366 7.83696 26.5 8.5 26.5H21C21.663 26.5 22.2989 26.2366 22.7678 25.7678C23.2366 25.2989 23.5 24.663 23.5 24V9C23.5 8.33696 23.2366 7.70107 22.7678 7.23223C22.2989 6.76339 21.663 6.5 21 6.5H18.5" stroke="white" stroke-width="1.5" stroke-linecap="round" stroke-linejoin="round"/>
<path id="Vector_2" d="M11 21.5V15.25M14.75 21.5V20.25M18.5 21.5V17.75M11 6.5C11 5.83696 11.2634 5.20107 11.7322 4.73223C12.2011 4.26339 12.837 4 13.5 4H16C16.663 4 17.2989 4.26339 17.7678 4.73223C18.2366 5.20107 18.5 5.83696 18.5 6.5C18.5 7.16304 18.2366 7.79893 17.7678 8.26777C17.2989 8.73661 16.663 9 16 9H13.5C12.837 9 12.2011 8.73661 11.7322 8.26777C11.2634 7.79893 11 7.16304 11 6.5Z" stroke="white" stroke-width="1.5" stroke-linecap="round" stroke-linejoin="round"/>
</g>
</g>
</svg>
