<svg xmlns="http://www.w3.org/2000/svg" width="56" height="56" viewBox="0 0 56 56" fill="none">
<rect x="4" y="4" width="48" height="48" rx="24" fill="#96F6CA"/>
<path d="M33.8546 23.6469C33.9012 23.6933 33.9381 23.7485 33.9633 23.8093C33.9885 23.87 34.0015 23.9351 34.0015 24.0009C34.0015 24.0667 33.9885 24.1318 33.9633 24.1925C33.9381 24.2533 33.9012 24.3084 33.8546 24.3549L26.8546 31.3549C26.8082 31.4015 26.753 31.4384 26.6923 31.4636C26.6315 31.4888 26.5664 31.5018 26.5006 31.5018C26.4349 31.5018 26.3697 31.4888 26.309 31.4636C26.2483 31.4384 26.1931 31.4015 26.1466 31.3549L22.6466 27.8549C22.5527 27.761 22.5 27.6337 22.5 27.5009C22.5 27.3681 22.5527 27.2408 22.6466 27.1469C22.7405 27.053 22.8679 27.0003 23.0006 27.0003C23.1334 27.0003 23.2607 27.053 23.3546 27.1469L26.5006 30.2939L33.1466 23.6469C33.1931 23.6003 33.2483 23.5634 33.309 23.5382C33.3697 23.513 33.4349 23.5 33.5006 23.5C33.5664 23.5 33.6315 23.513 33.6923 23.5382C33.753 23.5634 33.8082 23.6003 33.8546 23.6469Z" fill="#198754"/>
<rect x="4" y="4" width="48" height="48" rx="24" stroke="#E6FFF3" stroke-width="8"/>
</svg>