<svg width="25" height="24" viewBox="0 0 25 24" fill="none" xmlns="http://www.w3.org/2000/svg">
<g clip-path="url(#clip0_1098_91108)">
<path d="M22.6016 4.5C22.8005 4.5 22.9912 4.57902 23.1319 4.71967C23.2725 4.86032 23.3516 5.05109 23.3516 5.25V18.75C23.3516 18.9489 23.2725 19.1397 23.1319 19.2803C22.9912 19.421 22.8005 19.5 22.6016 19.5H3.10156C2.90265 19.5 2.71188 19.421 2.57123 19.2803C2.43058 19.1397 2.35156 18.9489 2.35156 18.75V5.25C2.35156 5.05109 2.43058 4.86032 2.57123 4.71967C2.71188 4.57902 2.90265 4.5 3.10156 4.5H22.6016ZM3.10156 3C2.50483 3 1.93253 3.23705 1.51057 3.65901C1.08862 4.08097 0.851563 4.65326 0.851562 5.25V18.75C0.851563 19.3467 1.08862 19.919 1.51057 20.341C1.93253 20.7629 2.50483 21 3.10156 21H22.6016C23.1983 21 23.7706 20.7629 24.1926 20.341C24.6145 19.919 24.8516 19.3467 24.8516 18.75V5.25C24.8516 4.65326 24.6145 4.08097 24.1926 3.65901C23.7706 3.23705 23.1983 3 22.6016 3H3.10156Z" fill="#212529"/>
<path d="M8.35156 12C8.35156 11.8011 8.43058 11.6103 8.57123 11.4697C8.71188 11.329 8.90265 11.25 9.10156 11.25H19.6016C19.8005 11.25 19.9912 11.329 20.1319 11.4697C20.2725 11.6103 20.3516 11.8011 20.3516 12C20.3516 12.1989 20.2725 12.3897 20.1319 12.5303C19.9912 12.671 19.8005 12.75 19.6016 12.75H9.10156C8.90265 12.75 8.71188 12.671 8.57123 12.5303C8.43058 12.3897 8.35156 12.1989 8.35156 12ZM8.35156 8.25C8.35156 8.05109 8.43058 7.86032 8.57123 7.71967C8.71188 7.57902 8.90265 7.5 9.10156 7.5H19.6016C19.8005 7.5 19.9912 7.57902 20.1319 7.71967C20.2725 7.86032 20.3516 8.05109 20.3516 8.25C20.3516 8.44891 20.2725 8.63968 20.1319 8.78033C19.9912 8.92098 19.8005 9 19.6016 9H9.10156C8.90265 9 8.71188 8.92098 8.57123 8.78033C8.43058 8.63968 8.35156 8.44891 8.35156 8.25ZM8.35156 15.75C8.35156 15.5511 8.43058 15.3603 8.57123 15.2197C8.71188 15.079 8.90265 15 9.10156 15H19.6016C19.8005 15 19.9912 15.079 20.1319 15.2197C20.2725 15.3603 20.3516 15.5511 20.3516 15.75C20.3516 15.9489 20.2725 16.1397 20.1319 16.2803C19.9912 16.421 19.8005 16.5 19.6016 16.5H9.10156C8.90265 16.5 8.71188 16.421 8.57123 16.2803C8.43058 16.1397 8.35156 15.9489 8.35156 15.75ZM6.85156 8.25C6.85156 8.44891 6.77254 8.63968 6.63189 8.78033C6.49124 8.92098 6.30047 9 6.10156 9C5.90265 9 5.71188 8.92098 5.57123 8.78033C5.43058 8.63968 5.35156 8.44891 5.35156 8.25C5.35156 8.05109 5.43058 7.86032 5.57123 7.71967C5.71188 7.57902 5.90265 7.5 6.10156 7.5C6.30047 7.5 6.49124 7.57902 6.63189 7.71967C6.77254 7.86032 6.85156 8.05109 6.85156 8.25ZM6.85156 12C6.85156 12.1989 6.77254 12.3897 6.63189 12.5303C6.49124 12.671 6.30047 12.75 6.10156 12.75C5.90265 12.75 5.71188 12.671 5.57123 12.5303C5.43058 12.3897 5.35156 12.1989 5.35156 12C5.35156 11.8011 5.43058 11.6103 5.57123 11.4697C5.71188 11.329 5.90265 11.25 6.10156 11.25C6.30047 11.25 6.49124 11.329 6.63189 11.4697C6.77254 11.6103 6.85156 11.8011 6.85156 12ZM6.85156 15.75C6.85156 15.9489 6.77254 16.1397 6.63189 16.2803C6.49124 16.421 6.30047 16.5 6.10156 16.5C5.90265 16.5 5.71188 16.421 5.57123 16.2803C5.43058 16.1397 5.35156 15.9489 5.35156 15.75C5.35156 15.5511 5.43058 15.3603 5.57123 15.2197C5.71188 15.079 5.90265 15 6.10156 15C6.30047 15 6.49124 15.079 6.63189 15.2197C6.77254 15.3603 6.85156 15.5511 6.85156 15.75Z" fill="#212529"/>
</g>
<defs>
<clipPath id="clip0_1098_91108">
<rect width="24" height="24" fill="white" transform="translate(0.851562)"/>
</clipPath>
</defs>
</svg>
