<svg width="25" height="24" viewBox="0 0 25 24" fill="none" xmlns="http://www.w3.org/2000/svg">
<g clip-path="url(#clip0_1098_91068)">
<path d="M0.429688 12C0.429688 8.8174 1.69397 5.76516 3.94441 3.51472C6.19484 1.26428 9.24709 0 12.4297 0C15.6123 0 18.6645 1.26428 20.915 3.51472C23.1654 5.76516 24.4297 8.8174 24.4297 12C24.4297 15.1826 23.1654 18.2348 20.915 20.4853C18.6645 22.7357 15.6123 24 12.4297 24C9.24709 24 6.19484 22.7357 3.94441 20.4853C1.69397 18.2348 0.429688 15.1826 0.429688 12ZM11.6797 1.6155C10.6747 1.9215 9.67719 2.8455 8.84919 4.398C8.57639 4.91414 8.34176 5.44958 8.14719 6H11.6797V1.6155ZM6.56469 6C6.8147 5.20323 7.136 4.4306 7.52469 3.6915C7.78405 3.20108 8.08357 2.73298 8.42019 2.292C6.56169 3.06274 4.9627 4.34943 3.81219 6H6.56469ZM5.69169 11.25C5.73669 9.9345 5.89869 8.673 6.15969 7.5H2.94069C2.38136 8.67758 2.04761 9.94952 1.95669 11.25H5.69169ZM7.70019 7.5C7.40516 8.7297 7.23529 9.9861 7.19319 11.25H11.6797V7.5H7.70019ZM13.1797 7.5V11.25H17.6647C17.6231 9.98615 17.4538 8.72975 17.1592 7.5H13.1797ZM7.19469 12.75C7.2363 14.0138 7.40567 15.2702 7.70019 16.5H11.6797V12.75H7.19469ZM13.1797 12.75V16.5H17.1592C17.4397 15.3525 17.6182 14.088 17.6662 12.75H13.1797ZM8.14719 18C8.35419 18.579 8.58969 19.116 8.84919 19.602C9.67719 21.1545 10.6762 22.077 11.6797 22.3845V18H8.14719ZM8.42019 21.708C8.08355 21.267 7.78402 20.7989 7.52469 20.3085C7.136 19.5694 6.8147 18.7968 6.56469 18H3.81219C4.96263 19.6506 6.56165 20.9373 8.42019 21.708ZM6.15969 16.5C5.88843 15.2671 5.73177 14.0118 5.69169 12.75H1.95669C2.04969 14.085 2.39319 15.3495 2.94069 16.5H6.15969ZM16.4392 21.708C18.2977 20.9373 19.8967 19.6506 21.0472 18H18.2947C18.0447 18.7968 17.7234 19.5694 17.3347 20.3085C17.0754 20.799 16.7759 21.2671 16.4392 21.708ZM13.1797 18V22.3845C14.1847 22.0785 15.1822 21.1545 16.0102 19.602C16.2697 19.116 16.5052 18.579 16.7122 18H13.1797ZM18.6997 16.5H21.9187C22.4662 15.3495 22.8097 14.085 22.9027 12.75H19.1677C19.1276 14.0118 18.971 15.2671 18.6997 16.5ZM22.9027 11.25C22.8117 9.94952 22.478 8.67759 21.9187 7.5H18.6997C18.9607 8.673 19.1227 9.9345 19.1677 11.25H22.9027ZM17.3347 3.6915C17.7052 4.3875 18.0277 5.1615 18.2947 6H21.0472C19.8967 4.34937 18.2977 3.06267 16.4392 2.292C16.7662 2.718 17.0662 3.189 17.3347 3.6915ZM16.7122 6C16.5176 5.44957 16.283 4.91413 16.0102 4.398C15.1822 2.8455 14.1847 1.923 13.1797 1.6155V6H16.7122Z" fill="#212529"/>
</g>
<defs>
<clipPath id="clip0_1098_91068">
<rect width="24" height="24" fill="white" transform="translate(0.429688)"/>
</clipPath>
</defs>
</svg>
