<svg width="33" height="32" viewBox="0 0 33 32" fill="none" xmlns="http://www.w3.org/2000/svg">
<rect x="0.5" width="32" height="32" rx="16" fill="black"/>
<path d="M20.0545 13.7871C21.3235 14.6975 22.878 15.2331 24.557 15.2331V11.9907C24.2393 11.9908 23.9224 11.9575 23.6115 11.8914V14.4436C21.9326 14.4436 20.3783 13.908 19.1089 12.9977V19.6145C19.1089 22.9246 16.4351 25.6078 13.137 25.6078C11.9064 25.6078 10.7626 25.2344 9.8125 24.5941C10.8969 25.7068 12.4093 26.3972 14.0824 26.3972C17.3807 26.3972 20.0546 23.714 20.0546 20.4038V13.7871H20.0545ZM21.221 10.5159C20.5725 9.8049 20.1466 8.88602 20.0545 7.87017V7.45312H19.1585C19.384 8.74428 20.1533 9.84736 21.221 10.5159ZM11.8986 22.054C11.5362 21.5773 11.3404 20.994 11.3413 20.3943C11.3413 18.8804 12.5643 17.6529 14.0731 17.6529C14.3543 17.6529 14.6338 17.6961 14.9018 17.7814V14.4665C14.5886 14.4235 14.2725 14.4052 13.9566 14.4119V16.992C13.6884 16.9067 13.4088 16.8633 13.1275 16.8636C11.6187 16.8636 10.3958 18.091 10.3958 19.6051C10.3958 20.6756 11.0071 21.6025 11.8986 22.054Z" fill="#FF004F"/>
<path d="M19.1079 12.9977C20.3772 13.9079 21.9316 14.4436 23.6104 14.4436V11.8913C22.6733 11.691 21.8437 11.1995 21.2199 10.5159C20.1522 9.8473 19.3829 8.74421 19.1574 7.45312H16.8037V20.4037C16.7984 21.9134 15.5775 23.1359 14.0719 23.1359C13.1847 23.1359 12.3965 22.7115 11.8973 22.054C11.0059 21.6025 10.3946 20.6756 10.3946 19.6051C10.3946 18.0912 11.6175 16.8637 13.1263 16.8637C13.4154 16.8637 13.6941 16.9089 13.9554 16.9921V14.4119C10.7153 14.4791 8.10938 17.1361 8.10938 20.4037C8.10938 22.0349 8.7583 23.5137 9.81151 24.5941C10.7617 25.2344 11.9055 25.6078 13.1361 25.6078C16.4342 25.6078 19.108 22.9245 19.108 19.6146V12.9977H19.1079Z" fill="white"/>
<path d="M23.6106 11.8916V11.2015C22.7655 11.2028 21.9371 10.9653 21.2201 10.5161C21.8548 11.2135 22.6905 11.6943 23.6106 11.8916ZM19.1576 7.45338C19.1361 7.32999 19.1195 7.20578 19.1081 7.08111V6.66406H15.8583V19.6147C15.8531 21.1243 14.6322 22.3468 13.1265 22.3468C12.6845 22.3468 12.2671 22.2415 11.8975 22.0544C12.3967 22.7117 13.1849 23.1361 14.0721 23.1361C15.5775 23.1361 16.7986 21.9138 16.8039 20.404V7.45338H19.1576ZM13.9557 14.4122V13.6775C13.6842 13.6403 13.4104 13.6216 13.1363 13.6217C9.83786 13.6217 7.16406 16.3049 7.16406 19.6147C7.16406 21.6898 8.21491 23.5185 9.81176 24.5943C8.75855 23.5139 8.10963 22.0351 8.10963 20.4039C8.10963 17.1363 10.7154 14.4794 13.9557 14.4122Z" fill="#00F2EA"/>
</svg>
