<svg width="33" height="32" viewBox="0 0 33 32" fill="none" xmlns="http://www.w3.org/2000/svg">
<rect x="0.929688" width="32" height="32" rx="16" fill="#1D9BF0"/>
<path d="M14.0054 24.4363C21.1014 24.4363 24.9814 18.5563 24.9814 13.4603C24.9814 13.2923 24.9814 13.1243 24.9734 12.9643C25.7254 12.4203 26.3814 11.7403 26.9014 10.9643C26.2134 11.2683 25.4694 11.4762 24.6854 11.5722C25.4854 11.0922 26.0934 10.3403 26.3814 9.43625C25.6374 9.87625 24.8134 10.1962 23.9334 10.3722C23.2294 9.62025 22.2294 9.15625 21.1174 9.15625C18.9894 9.15625 17.2614 10.8842 17.2614 13.0122C17.2614 13.3162 17.2934 13.6122 17.3654 13.8923C14.1574 13.7323 11.3174 12.1963 9.41338 9.86025C9.08538 10.4283 8.89338 11.0923 8.89338 11.7963C8.89338 13.1323 9.57338 14.3163 10.6134 15.0043C9.98138 14.9883 9.38937 14.8123 8.86937 14.5243C8.86937 14.5403 8.86937 14.5563 8.86937 14.5723C8.86937 16.4443 10.1974 17.9963 11.9654 18.3563C11.6454 18.4443 11.3014 18.4923 10.9494 18.4923C10.7014 18.4923 10.4614 18.4683 10.2214 18.4203C10.7094 19.9563 12.1334 21.0682 13.8214 21.1003C12.5014 22.1322 10.8374 22.7483 9.02937 22.7483C8.71737 22.7483 8.41337 22.7323 8.10938 22.6923C9.79737 23.7963 11.8294 24.4363 14.0054 24.4363Z" fill="white"/>
</svg>
