<svg width="17" height="16" viewBox="0 0 17 16" fill="none" xmlns="http://www.w3.org/2000/svg">
<g clip-path="url(#clip0_929_39392)">
<path d="M14.5 1C14.7652 1 15.0196 1.10536 15.2071 1.29289C15.3946 1.48043 15.5 1.73478 15.5 2V14C15.5 14.2652 15.3946 14.5196 15.2071 14.7071C15.0196 14.8946 14.7652 15 14.5 15H2.5C2.23478 15 1.98043 14.8946 1.79289 14.7071C1.60536 14.5196 1.5 14.2652 1.5 14V2C1.5 1.73478 1.60536 1.48043 1.79289 1.29289C1.98043 1.10536 2.23478 1 2.5 1H14.5ZM2.5 0C1.96957 0 1.46086 0.210714 1.08579 0.585786C0.710714 0.960859 0.5 1.46957 0.5 2V14C0.5 14.5304 0.710714 15.0391 1.08579 15.4142C1.46086 15.7893 1.96957 16 2.5 16H14.5C15.0304 16 15.5391 15.7893 15.9142 15.4142C16.2893 15.0391 16.5 14.5304 16.5 14V2C16.5 1.46957 16.2893 0.960859 15.9142 0.585786C15.5391 0.210714 15.0304 0 14.5 0H2.5Z" fill="#0D6EFD"/>
<path d="M8.5 4C8.63261 4 8.75979 4.05268 8.85355 4.14645C8.94732 4.24021 9 4.36739 9 4.5V7.5H12C12.1326 7.5 12.2598 7.55268 12.3536 7.64645C12.4473 7.74021 12.5 7.86739 12.5 8C12.5 8.13261 12.4473 8.25979 12.3536 8.35355C12.2598 8.44732 12.1326 8.5 12 8.5H9V11.5C9 11.6326 8.94732 11.7598 8.85355 11.8536C8.75979 11.9473 8.63261 12 8.5 12C8.36739 12 8.24021 11.9473 8.14645 11.8536C8.05268 11.7598 8 11.6326 8 11.5V8.5H5C4.86739 8.5 4.74021 8.44732 4.64645 8.35355C4.55268 8.25979 4.5 8.13261 4.5 8C4.5 7.86739 4.55268 7.74021 4.64645 7.64645C4.74021 7.55268 4.86739 7.5 5 7.5H8V4.5C8 4.36739 8.05268 4.24021 8.14645 4.14645C8.24021 4.05268 8.36739 4 8.5 4Z" fill="#0D6EFD"/>
</g>
<defs>
<clipPath id="clip0_929_39392">
<rect width="16" height="16" fill="white" transform="translate(0.5)"/>
</clipPath>
</defs>
</svg>
