<svg width="42" height="28" viewBox="0 0 42 28" fill="none" xmlns="http://www.w3.org/2000/svg">
<g clip-path="url(#clip0_108_977589)">
<path d="M0 0H42V28H0V0Z" fill="white"/>
<path d="M0 0H42V2.15322H0V0ZM0 4.30643H42V6.45965H0V4.30643ZM0 8.61287H42V10.7661H0V8.61287ZM0 12.9193H42V15.0725H0V12.9193ZM0 17.2339H42V19.3871H0V17.2339ZM0 21.5404H42V23.6936H0V21.5404ZM0 25.8468H42V28H0V25.8468Z" fill="#D80027"/>
<path d="M0 0H21V15.0725H0V0Z" fill="#2E52B2"/>
<path d="M3.91686 11.3731L3.58937 10.3252L3.22914 11.3731H2.14844L3.02446 12.0036L2.69698 13.0515L3.58937 12.4047L4.45721 13.0515L4.12154 12.0036L5.01393 11.3731H3.91686ZM8.52621 11.3731L8.19054 10.3252L7.84668 11.3731H6.76598L7.64201 12.0036L7.31452 13.0515L8.19054 12.4047L9.07475 13.0515L8.74727 12.0036L9.62329 11.3731H8.52621ZM13.1519 11.3731L12.7999 10.3252L12.4724 11.3731H11.3672L12.2677 12.0036L11.9239 13.0515L12.7999 12.4047L13.7005 13.0515L13.3566 12.0036L14.2326 11.3731H13.1519ZM17.7531 11.3731L17.4256 10.3252L17.0818 11.3731H15.9929L16.8771 12.0036L16.5496 13.0515L17.4256 12.4047L18.3098 13.0515L17.9578 12.0036L18.8584 11.3731H17.7531ZM8.19054 6.16613L7.84668 7.21408H6.76598L7.64201 7.86087L7.31452 8.89244L8.19054 8.25385L9.07475 8.89244L8.74727 7.86087L9.62329 7.21408H8.52621L8.19054 6.16613ZM3.58937 6.16613L3.22914 7.21408H2.14844L3.02446 7.86087L2.69698 8.89244L3.58937 8.25385L4.45721 8.89244L4.12154 7.86087L5.01393 7.21408H3.91686L3.58937 6.16613ZM12.7999 6.16613L12.4724 7.21408H11.3672L12.2677 7.86087L11.9239 8.89244L12.7999 8.25385L13.7005 8.89244L13.3566 7.86087L14.2326 7.21408H13.1519L12.7999 6.16613ZM17.4256 6.16613L17.0818 7.21408H15.9929L16.8771 7.86087L16.5496 8.89244L17.4256 8.25385L18.3098 8.89244L17.9578 7.86087L18.8584 7.21408H17.7531L17.4256 6.16613ZM3.58937 2.02344L3.22914 3.05502H2.14844L3.02446 3.7018L2.69698 4.74157L3.58937 4.09478L4.45721 4.74157L4.12154 3.7018L5.01393 3.05502H3.91686L3.58937 2.02344ZM8.19054 2.02344L7.84668 3.05502H6.76598L7.64201 3.7018L7.31452 4.74157L8.19054 4.09478L9.07475 4.74157L8.74727 3.7018L9.62329 3.05502H8.52621L8.19054 2.02344ZM12.7999 2.02344L12.4724 3.05502H11.3672L12.2677 3.7018L11.9239 4.74157L12.7999 4.09478L13.7005 4.74157L13.3566 3.7018L14.2326 3.05502H13.1519L12.7999 2.02344ZM17.4256 2.02344L17.0818 3.05502H15.9929L16.8771 3.7018L16.5496 4.74157L17.4256 4.09478L18.3098 4.74157L17.9578 3.7018L18.8584 3.05502H17.7531L17.4256 2.02344Z" fill="white"/>
</g>
<defs>
<clipPath id="clip0_108_977589">
<rect width="42" height="28" fill="white"/>
</clipPath>
</defs>
</svg>
