<svg width="198" height="19" viewBox="0 0 198 19" fill="none" xmlns="http://www.w3.org/2000/svg">
<path d="M17.4373 16.2587C16.5423 16.2587 15.6491 16.2605 14.7542 16.2587C13.0851 16.2551 13.0501 16.1916 13.9048 14.6403C14.8102 12.9966 15.6684 11.322 16.6544 9.73271C17.2078 8.8419 17.1273 8.12525 16.6386 7.28524C15.6334 5.56349 14.6981 3.79819 13.6894 2.07643C13.2112 1.26 13.2725 0.800991 14.2831 0.793733C16.46 0.781033 18.6369 0.781033 20.8139 0.795548C21.3866 0.799176 21.8612 1.03322 22.1624 1.5902C23.208 3.5206 24.2605 5.44737 25.3201 7.3687C25.7685 8.17968 25.7562 8.96345 25.3026 9.76718C24.3008 11.5379 23.2868 13.3032 22.3305 15.1012C21.8822 15.9466 21.278 16.3149 20.3533 16.2678C19.383 16.2188 18.4093 16.2569 17.4373 16.2569V16.2587Z" fill="white"/>
<path d="M4.67185 18.5282C3.58426 18.5282 2.49492 18.5173 1.40733 18.5318C0.738312 18.5409 0.419566 18.3849 0.838139 17.6338C3.78917 12.3361 6.7332 7.03109 9.66847 1.7225C10.0783 0.982268 10.3532 0.998597 10.7491 1.7479C11.7368 3.61842 12.7544 5.47262 13.8017 7.31049C14.25 8.09789 14.2272 8.83267 13.8104 9.59105C12.348 12.249 10.8734 14.8978 9.42153 17.5612C9.03273 18.276 8.48631 18.5681 7.70345 18.5391C6.69467 18.501 5.68239 18.53 4.67185 18.53V18.5282Z" fill="white"/>
<path d="M114.773 18.0475C114.716 18.2768 114.664 18.4892 114.609 18.7201C114.023 18.7201 113.452 18.7201 112.881 18.7201C111.658 18.7201 110.437 18.7201 109.214 18.7201C109.057 18.7201 108.899 18.7201 108.744 18.7001C108.14 18.6185 107.91 18.4107 107.883 17.832C107.839 16.8809 107.831 15.9282 107.809 14.9755C107.806 14.8524 107.809 14.7277 107.809 14.5999C107.697 14.5861 107.632 14.5707 107.566 14.5707C106.097 14.5707 104.627 14.5722 103.158 14.5661C102.969 14.5661 102.882 14.6353 102.809 14.7908C102.499 15.4464 102.171 16.0959 101.86 16.7516C101.53 17.4473 101.685 17.7689 102.489 18.0598C102.447 18.2691 102.403 18.4831 102.356 18.7232C102.015 18.7232 101.68 18.7232 101.346 18.7232C100.023 18.7232 98.6991 18.7247 97.3764 18.7232C96.4256 18.7216 96.119 18.2537 96.5561 17.4473C99.1411 12.6761 101.731 7.90799 104.314 3.13682C104.435 2.91366 104.549 2.67356 104.59 2.43038C104.658 2.01021 104.526 1.864 104.088 1.74703C104.014 1.72702 103.941 1.70547 103.84 1.67623C103.871 1.4977 103.882 1.31762 103.942 1.15294C103.967 1.08522 104.096 1.01442 104.181 1.01135C104.528 0.995954 104.875 1.00519 105.223 1.00519C107.297 1.00519 109.372 1.00365 111.448 1.00519C112.581 1.00673 112.808 1.16525 112.886 2.21645C113.002 3.75708 113.059 5.30232 113.139 6.84448C113.289 9.7826 113.438 12.7207 113.586 15.6604C113.604 16.0097 113.606 16.3591 113.632 16.707C113.695 17.5873 113.845 17.7658 114.775 18.0506L114.773 18.0475ZM107.698 11.511C107.663 10.3351 107.614 9.15465 107.596 7.97417C107.578 6.79985 107.592 5.62553 107.592 4.64205C106.588 6.82755 105.503 9.18851 104.435 11.511H107.7H107.698Z" fill="white"/>
<path d="M48.8603 12.5605C48.6956 13.2269 48.5293 13.8825 48.3711 14.5397C48.1933 15.2816 48.009 16.0219 47.8525 16.7683C47.6828 17.5779 47.8084 17.7626 48.6761 18.0473C48.6255 18.2628 48.5733 18.4829 48.5162 18.7199H46.2803C45.2039 18.7199 44.1275 18.7199 43.0511 18.7199C42.9271 18.7199 42.8048 18.7199 42.6809 18.7153C41.8556 18.6768 41.5213 18.2874 41.6942 17.524C41.9307 16.4805 42.1834 15.4401 42.4379 14.4012C43.3365 10.7366 44.2367 7.07208 45.1321 3.40752C45.1876 3.18127 45.2234 2.95041 45.2561 2.71955C45.3311 2.19164 45.1794 1.95 44.6608 1.76377C44.589 1.73761 44.5156 1.71452 44.452 1.69297C44.4439 1.65757 44.4308 1.63603 44.4357 1.6191C44.5379 1.20765 44.8157 1.00192 45.2691 1.00192C48.7331 1.00192 52.1988 0.994228 55.6628 1.00962C56.2744 1.0127 56.8991 1.05887 57.496 1.18354C58.724 1.44056 59.3552 2.17471 59.5101 3.35057C59.6569 4.4541 59.4482 5.52068 59.1856 6.58419C58.8822 7.81238 58.4566 9.00056 57.8499 10.1287C56.9985 11.7094 55.6482 12.5374 53.7645 12.5543C52.2624 12.5682 50.7587 12.5605 49.2567 12.562C49.1343 12.562 49.012 12.562 48.8603 12.562V12.5605ZM49.728 8.94207C50.2564 8.94207 50.8354 8.96054 51.4111 8.93746C52.0439 8.91129 52.5625 8.64811 52.8789 8.1202C53.3779 7.28909 53.6421 6.38411 53.6601 5.42834C53.6715 4.80501 53.3926 4.49719 52.7386 4.43409C52.1727 4.37868 51.5986 4.38484 51.0278 4.3833C50.9577 4.3833 50.8403 4.48796 50.8223 4.56183C50.444 6.04705 50.077 7.53535 49.728 8.94207Z" fill="white"/>
<path d="M117.619 5.12206C117.639 5.03279 117.663 4.96199 117.668 4.88965C117.691 4.60646 117.857 4.54952 118.14 4.55106C119.642 4.56491 121.145 4.55413 122.647 4.55875C123.859 4.56183 124.154 4.9189 123.884 6.02704C123.274 8.52959 122.667 11.0322 122.064 13.5362C122.011 13.7517 121.974 13.9749 121.969 14.1934C121.962 14.5028 122.09 14.766 122.432 14.8537C123.282 15.0723 124.087 14.9384 124.438 14.1165C124.683 13.5424 124.849 12.9345 125.002 12.3296C125.487 10.4181 125.953 8.50189 126.418 6.58727C126.641 5.66843 126.594 5.58224 125.72 5.10974C125.766 4.93429 125.811 4.75268 125.859 4.56645C127.571 4.56645 129.264 4.56491 130.957 4.56952C131.1 4.56952 131.247 4.60185 131.387 4.63417C131.859 4.74344 132.097 5.00047 132.035 5.45912C131.953 6.05474 131.815 6.64421 131.673 7.23061C130.9 10.4242 130.115 13.6147 129.339 16.8083C129.151 17.5794 129.269 17.7934 130.063 18.1504C130.026 18.3213 129.985 18.5029 129.941 18.7045C129.84 18.7091 129.742 18.7199 129.644 18.7199C128.108 18.7199 126.571 18.726 125.035 18.7153C124.771 18.7137 124.497 18.6722 124.246 18.5952C123.849 18.4721 123.698 18.2058 123.712 17.8103C123.73 17.307 123.942 16.8684 124.19 16.439C124.255 16.3266 124.313 16.2096 124.375 16.0942L124.278 16.0403C124.22 16.1158 124.156 16.1881 124.102 16.2666C123.75 16.7822 123.409 17.3039 123.049 17.8134C122.742 18.2459 122.311 18.5183 121.768 18.6198C120.449 18.8661 119.121 18.9554 117.792 18.7291C116.336 18.4829 115.727 17.6702 116.016 16.2897C116.328 14.7968 116.709 13.3177 117.068 11.834C117.497 10.0625 117.937 8.29258 118.37 6.52109C118.57 5.69921 118.453 5.47912 117.623 5.12052L117.619 5.12206Z" fill="white"/>
<path d="M195.716 18.1613C195.667 18.3521 195.623 18.5245 195.573 18.72C195.038 18.72 194.513 18.72 193.989 18.72C192.89 18.72 191.791 18.72 190.693 18.72C190.525 18.72 190.356 18.72 190.191 18.6907C189.508 18.5707 189.222 18.1951 189.375 17.5564C190.031 14.8261 190.697 12.0973 191.37 9.37156C191.546 8.66204 191.466 8.24957 191.05 8.03717C190.535 7.77399 189.63 7.89558 189.26 8.3573C188.997 8.68359 188.782 9.08375 188.679 9.48084C188.046 11.9449 187.448 14.4167 186.849 16.8885C186.678 17.5949 186.82 17.8058 187.63 18.1613C187.588 18.3367 187.544 18.5184 187.493 18.7231C186.983 18.7231 186.481 18.7231 185.977 18.7231C184.845 18.7231 183.711 18.7261 182.58 18.7215C182.379 18.7215 182.175 18.7077 181.979 18.6692C181.516 18.5784 181.27 18.3352 181.32 17.8904C181.392 17.2517 181.518 16.616 181.669 15.9896C182.431 12.8376 183.209 9.69015 183.982 6.53964C183.99 6.50886 183.995 6.47808 184.002 6.44576C184.163 5.6716 184.038 5.44689 183.278 5.14831C183.26 4.61886 183.317 4.56038 183.842 4.56038C185.3 4.56038 186.758 4.55884 188.214 4.56038C189.49 4.56191 189.848 5.02672 189.452 6.18411C189.335 6.52887 189.163 6.85823 189.018 7.19375C189.044 7.20914 189.072 7.223 189.098 7.23839C189.147 7.16143 189.211 7.0891 189.242 7.00599C189.468 6.39343 189.899 5.90554 190.32 5.41149C190.763 4.88974 191.337 4.58346 192.037 4.51574C193.221 4.40031 194.41 4.36491 195.589 4.56192C195.873 4.60963 196.154 4.69889 196.418 4.81125C196.99 5.05442 197.276 5.49614 197.334 6.07945C197.417 6.9198 197.153 7.71397 196.961 8.51583C196.3 11.2662 195.628 14.015 194.966 16.7653C194.764 17.6041 194.868 17.7873 195.718 18.1628L195.716 18.1613Z" fill="white"/>
<path d="M171.845 19C170.589 18.8676 169.325 18.7814 168.079 18.5921C166.207 18.3059 165.471 16.9792 165.537 15.4493C165.625 13.4054 166.148 11.4323 166.828 9.50383C167.163 8.55729 167.572 7.61691 168.087 6.74886C168.851 5.46065 170.155 4.84963 171.654 4.61261C173.964 4.24785 176.278 4.21706 178.564 4.75267C180.141 5.12205 180.867 6.02703 180.916 7.55842C180.955 8.79739 180.67 9.99634 180.37 11.1907C179.991 12.7021 179.606 14.2134 178.946 15.6448C178.411 16.8022 177.648 17.7672 176.381 18.2966C175.591 18.626 174.755 18.7691 173.905 18.8369C173.225 18.8907 172.54 18.903 171.856 18.9323C171.853 18.9538 171.848 18.9769 171.845 18.9985V19ZM172.458 15.5047C173.169 15.5447 173.748 15.1754 174.081 14.4428C174.169 14.2488 174.262 14.0534 174.317 13.8502C174.572 12.9083 174.83 11.9679 175.053 11.0198C175.224 10.2888 175.369 9.55 175.484 8.8097C175.581 8.17713 175.252 7.74003 174.598 7.63845C174.275 7.58766 173.921 7.59536 173.601 7.66C172.856 7.81083 172.475 8.34643 172.308 8.98823C171.861 10.6997 171.426 12.4142 171.047 14.1396C170.853 15.0245 171.346 15.4986 172.46 15.5047H172.458Z" fill="white"/>
<path d="M61.319 4.55867C62.0137 4.55867 62.6742 4.55867 63.3348 4.55867C65.0945 4.55867 66.8559 4.54943 68.6156 4.56636C69.1505 4.57098 69.6953 4.60176 70.2188 4.7018C71.6817 4.98345 72.458 6.21626 72.1057 7.67532C71.3816 10.6719 70.6395 13.6654 69.9089 16.6605C69.8632 16.8452 69.8241 17.033 69.8062 17.2223C69.7735 17.5609 69.9285 17.8117 70.2449 17.9795C70.6722 18.2057 70.6705 18.2073 70.5026 18.7213C69.8159 18.7213 69.1228 18.7213 68.4297 18.7213C67.5213 18.7213 66.6129 18.7213 65.7061 18.7213C65.5267 18.7213 65.3456 18.7213 65.1695 18.6952C64.4633 18.5936 64.2269 18.3181 64.3492 17.6532C64.4291 17.2207 64.5905 16.8021 64.7275 16.3804C64.7846 16.2049 64.8727 16.0387 64.8792 15.834C64.845 15.8725 64.7977 15.9048 64.7814 15.9494C64.4699 16.7236 63.9105 17.3454 63.4016 18.001C63.0461 18.4582 62.5748 18.6952 61.999 18.7906C61.0287 18.9507 60.0599 18.9753 59.0928 18.7829C57.7669 18.5197 56.971 17.7717 56.909 16.5097C56.8112 14.5089 57.3069 12.6173 58.5057 10.9443C59.2934 9.84389 60.4888 9.40833 61.8702 9.39909C62.8797 9.3914 63.8876 9.39294 64.8972 9.38986C65.1206 9.38986 65.3456 9.3914 65.5691 9.38063C66.2459 9.3483 66.696 8.81116 66.5427 8.18629C66.5117 8.06163 66.3568 7.92465 66.2231 7.87232C66.0551 7.80768 65.8496 7.80922 65.662 7.80768C64.5188 7.80306 63.3755 7.8046 62.2306 7.8046C62.0855 7.8046 61.9387 7.8046 61.7936 7.79998C60.9781 7.76766 60.6764 7.42137 60.833 6.67029C60.9781 5.97616 61.1493 5.28819 61.3157 4.56328L61.319 4.55867ZM64.9347 15.1307C65.2201 13.9979 65.4957 12.9067 65.7566 11.8693C65.3424 11.8693 64.8857 11.8524 64.4307 11.8739C63.9333 11.897 63.4424 11.9648 63.1293 12.4019C62.7313 12.959 62.5209 13.5746 62.5177 14.2441C62.5144 14.7428 62.7101 14.9798 63.2287 15.0383C63.7914 15.1014 64.3622 15.1014 64.933 15.1291L64.9347 15.1307Z" fill="white"/>
<path d="M73.6369 13.9271C73.7657 14.7459 74.3969 14.9429 75.1536 14.9429C76.2855 14.9429 77.4173 14.9429 78.5492 14.9045C79.1722 14.8845 79.4559 14.5843 79.3565 14.0949C79.3206 13.9179 79.1852 13.7178 79.0303 13.6101C78.7547 13.4177 78.4366 13.273 78.1235 13.1345C77.4353 12.8282 76.7389 12.5389 76.0457 12.2403C74.5355 11.5877 74.1001 10.8998 74.2534 9.34066C74.3561 8.29254 74.6285 7.2829 75.1047 6.32405C75.6298 5.26824 76.5073 4.69262 77.7304 4.6249C78.6813 4.57257 79.6337 4.56488 80.5862 4.55872C82.0996 4.54795 83.6131 4.55564 85.1266 4.55564H85.5343C85.2831 5.48217 85.0613 6.37638 84.7955 7.25828C84.6438 7.76156 84.1953 7.91547 83.6898 7.92008C82.6916 7.92932 81.6935 7.9247 80.6971 7.93086C80.485 7.93086 80.2698 7.93855 80.061 7.96934C79.6533 8.02936 79.4021 8.25561 79.3516 8.58497C79.2977 8.92665 79.3956 9.11134 79.8196 9.29757C80.8243 9.73928 81.8452 10.1471 82.8433 10.5981C83.2641 10.7874 83.68 11.0136 84.0388 11.2922C84.7596 11.8494 84.8705 12.6451 84.7205 13.4362C84.5362 14.4089 84.3095 15.3862 83.9686 16.3189C83.4239 17.8072 82.2024 18.549 80.5715 18.6444C79.332 18.7168 78.086 18.7029 76.8416 18.7152C75.7212 18.726 74.5991 18.7214 73.4787 18.7152C72.2539 18.7091 71.9244 18.3105 72.2017 17.19C72.4333 16.2542 72.6681 15.3185 72.8997 14.3827C72.9845 14.04 73.2308 13.8871 73.6385 13.9241L73.6369 13.9271Z" fill="white"/>
<path d="M88.4436 7.69706H87.0786C87.2237 7.09836 87.3672 6.50273 87.514 5.91018C87.5858 5.62237 87.576 5.25299 87.7668 5.07446C87.9381 4.91286 88.3311 4.96826 88.6247 4.91439C90.4562 4.58195 91.8865 3.7216 92.7362 2.10864C92.8308 1.9301 92.9417 1.87008 93.1488 1.87316C93.8403 1.88393 94.5334 1.87778 95.2755 1.87778C95.0243 2.81046 94.7862 3.69852 94.5465 4.58657H98.2307C98.0154 5.40382 97.8213 6.21646 97.5865 7.01987C97.4364 7.53546 96.9945 7.7063 96.4709 7.71861C95.9213 7.73092 95.3717 7.72169 94.8237 7.734C94.0702 7.75093 93.7963 7.94178 93.6201 8.64052C93.1716 10.4074 92.7443 12.1789 92.3105 13.9488C92.2811 14.072 92.2697 14.1997 92.2632 14.3259C92.242 14.7938 92.4165 15.0493 92.9058 15.0939C93.5043 15.1478 94.111 15.1355 94.7144 15.1262C95.1369 15.1201 95.4076 14.8784 95.5951 14.5321C95.8414 14.0797 95.8479 14.0827 96.4611 14.1643C96.3926 14.4398 96.3242 14.7107 96.2557 14.9831C96.0436 15.8373 95.8365 16.6915 95.6163 17.5426C95.3587 18.5415 95.1238 18.7169 94.0393 18.72C92.2453 18.7246 90.4513 18.7246 88.6573 18.72C88.2887 18.72 87.9152 18.7138 87.5515 18.6661C86.511 18.5261 86.0185 17.9474 86.1881 16.9639C86.3577 15.985 86.6105 15.02 86.8454 14.052C87.2971 12.1881 87.7603 10.3274 88.2218 8.46507C88.2854 8.20958 88.3686 7.95717 88.4436 7.70014V7.69706Z" fill="white"/>
<path d="M147.736 7.69686H146.367C146.462 7.30901 146.555 6.92424 146.649 6.53946C146.755 6.10698 146.879 5.67912 146.966 5.24201C147.005 5.04193 147.101 4.9896 147.299 4.97883C148.494 4.90957 149.565 4.5248 150.529 3.85222C151.177 3.40127 151.651 2.81949 152 2.14691C152.113 1.93144 152.247 1.8668 152.491 1.87295C153.162 1.88834 153.834 1.87911 154.561 1.87911C154.311 2.81487 154.072 3.70908 153.837 4.5879H157.524C157.298 5.42978 157.097 6.27166 156.838 7.09661C156.686 7.58297 156.226 7.70917 155.737 7.71994C155.21 7.73226 154.683 7.72302 154.156 7.73226C153.352 7.74765 153.087 7.92926 152.901 8.65879C152.455 10.4149 152.03 12.1771 151.599 13.9363C151.576 14.0287 151.565 14.1241 151.558 14.218C151.508 14.809 151.681 15.0537 152.314 15.1137C152.857 15.166 153.409 15.1445 153.957 15.1322C154.404 15.123 154.698 14.8859 154.894 14.5135C155.127 14.0687 155.171 14.0579 155.748 14.1733C155.533 15.0352 155.319 15.8971 155.099 16.759C154.991 17.1792 154.881 17.5993 154.753 18.0164C154.633 18.412 154.347 18.6398 153.909 18.6829C153.731 18.6998 153.551 18.7198 153.374 18.7198C151.4 18.7229 149.427 18.7275 147.453 18.7152C147.121 18.7136 146.782 18.6659 146.46 18.5859C145.871 18.4381 145.487 18.0595 145.482 17.4793C145.477 16.9791 145.549 16.4666 145.664 15.9771C146.271 13.4423 146.902 10.9136 147.527 8.38175C147.584 8.14935 147.665 7.9231 147.734 7.6984L147.736 7.69686Z" fill="white"/>
<path d="M145.806 4.59416C145.553 5.51608 145.312 6.43799 145.046 7.35221C144.955 7.66464 144.697 7.84933 144.351 7.86626C143.78 7.89397 143.21 7.90166 142.639 7.91243C142.135 7.92167 141.629 7.90936 141.125 7.92936C140.259 7.96322 139.605 8.33722 139.323 9.1237C139.052 9.88247 138.845 10.6628 138.648 11.4431C138.483 12.088 138.314 12.7406 138.253 13.3993C138.17 14.3104 138.578 14.8075 139.547 14.8799C140.499 14.9491 141.466 14.883 142.425 14.8337C142.826 14.8137 143.203 14.6075 143.384 14.2612C143.583 13.8841 143.877 13.9056 144.27 13.9503C144.216 14.175 144.165 14.3843 144.115 14.5951C143.926 15.3678 143.74 16.1389 143.546 16.9099C143.218 18.2228 142.74 18.6691 141.328 18.8261C139.361 19.0462 137.391 19.0708 135.435 18.7107C135.032 18.6368 134.631 18.5137 134.254 18.3598C133.051 17.8703 132.578 16.9299 132.522 15.7541C132.464 14.5043 132.694 13.2823 133.043 12.0895C133.473 10.6151 133.943 9.14832 134.496 7.71081C134.739 7.07979 135.173 6.4934 135.615 5.95626C136.456 4.9343 137.671 4.5957 138.982 4.57723C141.213 4.54799 143.444 4.56184 145.676 4.55877C145.707 4.55877 145.738 4.57416 145.806 4.59109V4.59416Z" fill="white"/>
<path d="M163.009 18.7138C161.247 18.7138 159.532 18.7339 157.819 18.7062C156.95 18.6923 156.669 18.306 156.837 17.5026C156.863 17.3779 156.894 17.2548 156.925 17.1317C157.796 13.5379 158.669 9.94567 159.538 6.3519C159.687 5.7378 159.58 5.51155 158.987 5.22375C158.773 5.12063 158.84 4.99904 158.876 4.85898C158.913 4.71277 158.897 4.55116 159.158 4.55424C160.773 4.56656 162.386 4.56194 164 4.56656C164.111 4.56656 164.224 4.58656 164.333 4.60503C165.003 4.71123 165.241 4.96056 165.113 5.57927C164.856 6.81208 164.553 8.03566 164.256 9.26077C163.633 11.8341 163 14.4059 162.377 16.9808C162.24 17.5441 162.358 17.7812 162.894 18.0397C163.278 18.2244 162.981 18.4737 163.01 18.7169L163.009 18.7138Z" fill="white"/>
</svg>
