<svg width="33" height="32" viewBox="0 0 33 32" fill="none" xmlns="http://www.w3.org/2000/svg">
<rect x="0.210938" width="32" height="32" rx="16" fill="#FF0000"/>
<path d="M25.526 11.4222C25.3064 10.6065 24.6632 9.96339 23.8475 9.74378C22.3574 9.33594 16.3966 9.33594 16.3966 9.33594C16.3966 9.33594 10.4358 9.33594 8.94559 9.72809C8.14559 9.9477 7.48676 10.6065 7.26716 11.4222C6.875 12.9124 6.875 16.0026 6.875 16.0026C6.875 16.0026 6.875 19.1085 7.26716 20.583C7.48676 21.3987 8.1299 22.0418 8.94559 22.2614C10.4515 22.6693 16.3966 22.6693 16.3966 22.6693C16.3966 22.6693 22.3574 22.6693 23.8475 22.2771C24.6632 22.0575 25.3064 21.4144 25.526 20.5987C25.9181 19.1085 25.9181 16.0183 25.9181 16.0183C25.9181 16.0183 25.9338 12.9124 25.526 11.4222Z" fill="white"/>
<path d="M14.5 18.8582L19.4569 16.0033L14.5 13.1484V18.8582Z" fill="#FF0000"/>
</svg>
