<svg xmlns="http://www.w3.org/2000/svg" width="46" height="32" viewBox="0 0 46 32" fill="none">
<path d="M44.7523 4.99592C44.4921 4.02945 43.9827 3.14827 43.275 2.44055C42.5673 1.73283 41.6861 1.22341 40.7196 0.963266C37.1604 2.91941e-07 22.8584 0 22.8584 0C22.8584 0 8.55633 2.91941e-07 4.99715 0.963266C4.03068 1.22341 3.14949 1.73283 2.44178 2.44055C1.73406 3.14827 1.22464 4.02945 0.964494 4.99592C0.299915 8.62574 -0.0225869 12.3099 0.00122847 16C-0.0225869 19.6901 0.299915 23.3743 0.964494 27.0041C1.22464 27.9706 1.73406 28.8517 2.44178 29.5595C3.14949 30.2672 4.03068 30.7766 4.99715 31.0367C8.55633 32 22.8584 32 22.8584 32C22.8584 32 37.1604 32 40.7196 31.0367C41.6861 30.7766 42.5673 30.2672 43.275 29.5595C43.9827 28.8517 44.4921 27.9706 44.7523 27.0041C45.4168 23.3743 45.7393 19.6901 45.7155 16C45.7393 12.3099 45.4168 8.62574 44.7523 4.99592ZM18.2869 22.8571V9.14286L30.1563 16L18.2869 22.8571Z" fill="white"/>
</svg>