<svg xmlns="http://www.w3.org/2000/svg" width="198" height="104" viewBox="0 0 198 104" fill="none">
<g clip-path="url(#clip0_700_80054)">
<path d="M17.4353 58.2555C16.5404 58.2555 15.6472 58.2573 14.7522 58.2555C13.0832 58.2519 13.0482 58.1884 13.9028 56.6372C14.8083 54.9934 15.6664 53.3188 16.6525 51.7295C17.2059 50.8387 17.1253 50.1221 16.6367 49.2821C15.6314 47.5603 14.6962 45.795 13.6874 44.0733C13.2093 43.2568 13.2706 42.7978 14.2811 42.7906C16.4581 42.7779 18.635 42.7779 20.8119 42.7924C21.3846 42.796 21.8592 43.03 22.1605 43.587C23.206 45.5174 24.2586 47.4442 25.3182 49.3655C25.7665 50.1765 25.7542 50.9603 25.3006 51.764C24.2989 53.5347 23.2848 55.3 22.3286 57.098C21.8802 57.9435 21.276 58.3118 20.3513 58.2646C19.3811 58.2156 18.4073 58.2537 17.4353 58.2537V58.2555Z" fill="white"/>
<path d="M4.67039 60.5314C3.5828 60.5314 2.49346 60.5205 1.40586 60.535C0.736847 60.5441 0.418101 60.3881 0.836675 59.6369C3.78771 54.3392 6.73173 49.0343 9.66701 43.7257C10.0768 42.9854 10.3518 43.0018 10.7476 43.7511C11.7354 45.6216 12.7529 47.4758 13.8002 49.3137C14.2485 50.1011 14.2258 50.8358 13.809 51.5942C12.3466 54.2521 10.8719 56.901 9.42006 59.5644C9.03126 60.2792 8.48484 60.5713 7.70198 60.5423C6.6932 60.5042 5.68092 60.5332 4.67039 60.5332V60.5314Z" fill="white"/>
</g>
<path d="M114.772 60.0451C114.715 60.2744 114.663 60.4868 114.607 60.7176C114.022 60.7176 113.451 60.7176 112.88 60.7176C111.657 60.7176 110.435 60.7176 109.212 60.7176C109.055 60.7176 108.897 60.7176 108.742 60.6976C108.139 60.6161 107.909 60.4083 107.881 59.8296C107.837 58.8784 107.829 57.9257 107.808 56.973C107.805 56.8499 107.808 56.7252 107.808 56.5975C107.695 56.5837 107.63 56.5683 107.565 56.5683C106.095 56.5683 104.626 56.5698 103.157 56.5636C102.967 56.5636 102.881 56.6329 102.808 56.7883C102.498 57.444 102.17 58.0935 101.858 58.7491C101.529 59.4448 101.684 59.7665 102.488 60.0574C102.445 60.2667 102.401 60.4806 102.354 60.7207C102.013 60.7207 101.679 60.7207 101.345 60.7207C100.022 60.7207 98.6976 60.7223 97.375 60.7207C96.4242 60.7192 96.1176 60.2513 96.5546 59.4448C99.1396 54.6736 101.729 49.9056 104.313 45.1344C104.434 44.9112 104.548 44.6711 104.588 44.4279C104.657 44.0078 104.525 43.8616 104.086 43.7446C104.013 43.7246 103.939 43.703 103.838 43.6738C103.869 43.4953 103.881 43.3152 103.941 43.1505C103.965 43.0828 104.094 43.012 104.179 43.0089C104.526 42.9935 104.874 43.0027 105.221 43.0027C107.296 43.0027 109.37 43.0012 111.446 43.0027C112.58 43.0043 112.807 43.1628 112.885 44.214C113.001 45.7546 113.058 47.2999 113.138 48.842C113.288 51.7802 113.436 54.7183 113.584 57.6579C113.602 58.0073 113.604 58.3567 113.63 58.7045C113.694 59.5849 113.844 59.7634 114.773 60.0481L114.772 60.0451ZM107.697 53.5086C107.661 52.3327 107.612 51.1522 107.594 49.9717C107.576 48.7974 107.591 47.6231 107.591 46.6396C106.586 48.8251 105.502 51.1861 104.434 53.5086H107.699H107.697Z" fill="white"/>
<path d="M48.8589 54.5605C48.6942 55.2269 48.5278 55.8825 48.3696 56.5397C48.1918 57.2816 48.0076 58.0219 47.851 58.7683C47.6814 59.5779 47.807 59.7626 48.6746 60.0473C48.624 60.2628 48.5718 60.4829 48.5148 60.7199H46.2788C45.2024 60.7199 44.126 60.7199 43.0496 60.7199C42.9257 60.7199 42.8034 60.7199 42.6794 60.7153C41.8542 60.6768 41.5198 60.2874 41.6927 59.524C41.9292 58.4805 42.182 57.4401 42.4364 56.4012C43.335 52.7366 44.2353 49.0721 45.1306 45.4075C45.1861 45.1813 45.222 44.9504 45.2546 44.7195C45.3296 44.1916 45.1779 43.95 44.6593 43.7638C44.5876 43.7376 44.5142 43.7145 44.4506 43.693C44.4424 43.6576 44.4294 43.636 44.4343 43.6191C44.5365 43.2076 44.8143 43.0019 45.2676 43.0019C48.7317 43.0019 52.1973 42.9942 55.6614 43.0096C56.273 43.0127 56.8976 43.0589 57.4945 43.1835C58.7226 43.4406 59.3537 44.1747 59.5087 45.3506C59.6554 46.4541 59.4467 47.5207 59.1841 48.5842C58.8808 49.8124 58.4551 51.0006 57.8484 52.1287C56.9971 53.7094 55.6467 54.5374 53.763 54.5543C52.2609 54.5682 50.7573 54.5605 49.2552 54.562C49.1329 54.562 49.0106 54.562 48.8589 54.562V54.5605ZM49.7265 50.9421C50.2549 50.9421 50.8339 50.9605 51.4096 50.9375C52.0424 50.9113 52.561 50.6481 52.8774 50.1202C53.3765 49.2891 53.6407 48.3841 53.6586 47.4283C53.67 46.805 53.3912 46.4972 52.7372 46.4341C52.1712 46.3787 51.5972 46.3848 51.0264 46.3833C50.9562 46.3833 50.8388 46.488 50.8209 46.5618C50.4425 48.0471 50.0755 49.5353 49.7265 50.9421Z" fill="white"/>
<path d="M117.618 47.1257C117.638 47.0365 117.662 46.9657 117.667 46.8933C117.69 46.6101 117.856 46.5532 118.139 46.5547C119.641 46.5686 121.144 46.5578 122.646 46.5624C123.858 46.5655 124.153 46.9226 123.883 48.0307C123.273 50.5333 122.666 53.0358 122.063 55.5399C122.01 55.7554 121.973 55.9785 121.968 56.1971C121.961 56.5065 122.089 56.7696 122.431 56.8574C123.281 57.0759 124.087 56.942 124.437 56.1201C124.682 55.5461 124.848 54.9381 125.001 54.3333C125.486 52.4217 125.952 50.5056 126.417 48.5909C126.641 47.6721 126.593 47.5859 125.719 47.1134C125.765 46.938 125.81 46.7563 125.858 46.5701C127.57 46.5701 129.263 46.5686 130.956 46.5732C131.099 46.5732 131.246 46.6055 131.386 46.6378C131.858 46.7471 132.096 47.0041 132.034 47.4628C131.952 48.0584 131.814 48.6479 131.672 49.2343C130.899 52.4279 130.114 55.6184 129.338 58.812C129.15 59.5831 129.268 59.797 130.062 60.1541C130.025 60.3249 129.984 60.5065 129.94 60.7082C129.839 60.7128 129.741 60.7236 129.643 60.7236C128.107 60.7236 126.57 60.7297 125.034 60.7189C124.77 60.7174 124.496 60.6758 124.245 60.5989C123.848 60.4758 123.697 60.2095 123.711 59.814C123.729 59.3107 123.941 58.872 124.189 58.4426C124.254 58.3303 124.312 58.2133 124.374 58.0979L124.277 58.044C124.219 58.1194 124.155 58.1918 124.101 58.2702C123.749 58.7858 123.408 59.3076 123.048 59.817C122.741 60.2495 122.31 60.5219 121.767 60.6235C120.448 60.8698 119.12 60.959 117.791 60.7328C116.335 60.4865 115.727 59.6739 116.015 58.2933C116.327 56.8004 116.708 55.3214 117.067 53.8377C117.496 52.0662 117.936 50.2962 118.369 48.5247C118.569 47.7029 118.452 47.4828 117.622 47.1242L117.618 47.1257Z" fill="white"/>
<path d="M195.715 60.1615C195.666 60.3524 195.622 60.5248 195.571 60.7202C195.037 60.7202 194.511 60.7202 193.988 60.7202C192.889 60.7202 191.789 60.7202 190.692 60.7202C190.524 60.7202 190.354 60.7202 190.189 60.691C189.506 60.5709 189.221 60.1954 189.374 59.5567C190.03 56.8263 190.695 54.0975 191.369 51.3718C191.545 50.6623 191.465 50.2498 191.049 50.0374C190.534 49.7742 189.628 49.8958 189.258 50.3575C188.996 50.6838 188.78 51.084 188.678 51.4811C188.045 53.9452 187.446 56.4169 186.848 58.8887C186.677 59.5951 186.818 59.806 187.629 60.1615C187.587 60.337 187.543 60.5186 187.492 60.7233C186.981 60.7233 186.479 60.7233 185.975 60.7233C184.843 60.7233 183.71 60.7264 182.578 60.7218C182.377 60.7218 182.174 60.7079 181.978 60.6694C181.515 60.5786 181.268 60.3354 181.319 59.8907C181.391 59.2519 181.516 58.6163 181.668 57.9899C182.43 54.8378 183.208 51.6904 183.981 48.5399C183.989 48.5091 183.994 48.4783 184 48.446C184.162 47.6718 184.036 47.4471 183.276 47.1486C183.258 46.6191 183.315 46.5606 183.84 46.5606C185.298 46.5606 186.756 46.5591 188.213 46.5606C189.488 46.5622 189.847 47.027 189.451 48.1844C189.333 48.5291 189.162 48.8585 189.017 49.194C189.043 49.2094 189.071 49.2232 189.097 49.2386C189.146 49.1617 189.209 49.0893 189.24 49.0062C189.467 48.3937 189.898 47.9058 190.318 47.4117C190.762 46.89 191.336 46.5837 192.036 46.516C193.22 46.4006 194.409 46.3652 195.588 46.5622C195.872 46.6099 196.152 46.6991 196.416 46.8115C196.989 47.0547 197.274 47.4964 197.333 48.0797C197.416 48.92 197.152 49.7142 196.959 50.5161C196.299 53.2664 195.627 56.0152 194.965 58.7656C194.763 59.6044 194.867 59.7875 195.717 60.1631L195.715 60.1615Z" fill="white"/>
<path d="M171.844 61C170.588 60.8676 169.324 60.7814 168.078 60.5921C166.206 60.3059 165.47 58.9792 165.535 57.4493C165.623 55.4054 166.147 53.4323 166.827 51.5038C167.161 50.5573 167.571 49.6169 168.086 48.7489C168.849 47.4606 170.154 46.8496 171.653 46.6126C173.962 46.2478 176.276 46.2171 178.563 46.7527C180.14 47.122 180.866 48.027 180.915 49.5584C180.954 50.7974 180.668 51.9963 180.368 53.1907C179.99 54.7021 179.605 56.2134 178.944 57.6448C178.41 58.8022 177.646 59.7672 176.379 60.2966C175.59 60.626 174.753 60.7691 173.903 60.8369C173.223 60.8907 172.538 60.903 171.855 60.9323C171.852 60.9538 171.847 60.9769 171.844 60.9985V61ZM172.457 57.5047C173.168 57.5447 173.747 57.1754 174.079 56.4428C174.168 56.2488 174.261 56.0534 174.316 55.8502C174.57 54.9083 174.828 53.9679 175.052 53.0198C175.223 52.2888 175.368 51.55 175.482 50.8097C175.58 50.1771 175.25 49.74 174.596 49.6385C174.274 49.5877 173.92 49.5954 173.6 49.66C172.855 49.8108 172.473 50.3464 172.307 50.9882C171.86 52.6997 171.424 54.4142 171.046 56.1396C170.852 57.0245 171.344 57.4986 172.458 57.5047H172.457Z" fill="white"/>
<path d="M61.3204 46.5572C62.0152 46.5572 62.6757 46.5572 63.3362 46.5572C65.096 46.5572 66.8573 46.548 68.6171 46.5649C69.152 46.5695 69.6967 46.6003 70.2202 46.7003C71.6832 46.982 72.4595 48.2148 72.1072 49.6739C71.3831 52.6705 70.641 55.664 69.9104 58.659C69.8647 58.8437 69.8256 59.0315 69.8076 59.2208C69.775 59.5594 69.9299 59.8103 70.2463 59.978C70.6736 60.2043 70.672 60.2058 70.504 60.7199C69.8174 60.7199 69.1243 60.7199 68.4311 60.7199C67.5227 60.7199 66.6143 60.7199 65.7075 60.7199C65.5281 60.7199 65.3471 60.7199 65.171 60.6937C64.4648 60.5921 64.2283 60.3166 64.3506 59.6518C64.4306 59.2193 64.592 58.8006 64.729 58.3789C64.7861 58.2035 64.8742 58.0372 64.8807 57.8326C64.8464 57.871 64.7991 57.9033 64.7828 57.948C64.4713 58.7221 63.9119 59.3439 63.4031 59.9996C63.0475 60.4567 62.5762 60.6937 62.0005 60.7891C61.0301 60.9492 60.0614 60.9738 59.0942 60.7814C57.7683 60.5183 56.9724 59.7703 56.9105 58.5082C56.8126 56.5074 57.3084 54.6159 58.5071 52.9429C59.2948 51.8424 60.4903 51.4069 61.8717 51.3976C62.8812 51.3899 63.8891 51.3915 64.8986 51.3884C65.1221 51.3884 65.3471 51.3899 65.5705 51.3792C66.2474 51.3468 66.6975 50.8097 66.5442 50.1848C66.5132 50.0602 66.3583 49.9232 66.2245 49.8709C66.0566 49.8062 65.8511 49.8078 65.6635 49.8062C64.5202 49.8016 63.377 49.8031 62.2321 49.8031C62.0869 49.8031 61.9402 49.8031 61.795 49.7985C60.9796 49.7662 60.6779 49.4199 60.8344 48.6688C60.9796 47.9747 61.1508 47.2867 61.3172 46.5618L61.3204 46.5572ZM64.9361 57.1292C65.2215 55.9964 65.4972 54.9052 65.7581 53.8679C65.3439 53.8679 64.8872 53.8509 64.4322 53.8725C63.9348 53.8956 63.4439 53.9633 63.1307 54.4004C62.7328 54.9575 62.5224 55.5732 62.5191 56.2427C62.5159 56.7413 62.7116 56.9784 63.2302 57.0368C63.7929 57.0999 64.3637 57.0999 64.9345 57.1276L64.9361 57.1292Z" fill="white"/>
<path d="M73.6364 55.9288C73.7652 56.7476 74.3964 56.9446 75.1531 56.9446C76.285 56.9446 77.4168 56.9446 78.5487 56.9062C79.1717 56.8862 79.4555 56.586 79.356 56.0966C79.3201 55.9196 79.1847 55.7195 79.0298 55.6118C78.7542 55.4194 78.4361 55.2747 78.123 55.1362C77.4348 54.8299 76.7384 54.5406 76.0452 54.242C74.535 53.5894 74.0996 52.9015 74.2529 51.3424C74.3556 50.2943 74.628 49.2846 75.1042 48.3258C75.6294 47.2699 76.5068 46.6943 77.73 46.6266C78.6808 46.5743 79.6332 46.5666 80.5857 46.5604C82.0991 46.5497 83.6126 46.5574 85.1261 46.5574H85.5338C85.2827 47.4839 85.0609 48.3781 84.795 49.26C84.6433 49.7633 84.1948 49.9172 83.6893 49.9218C82.6912 49.931 81.693 49.9264 80.6966 49.9326C80.4846 49.9326 80.2693 49.9403 80.0605 49.971C79.6528 50.0311 79.4016 50.2573 79.3511 50.5867C79.2973 50.9284 79.3951 51.113 79.8191 51.2993C80.8238 51.741 81.8447 52.1489 82.8428 52.5998C83.2636 52.7891 83.6795 53.0154 84.0383 53.2939C84.7591 53.8511 84.87 54.6468 84.72 55.4379C84.5357 56.4106 84.309 57.3879 83.9682 58.3206C83.4234 59.8089 82.2019 60.5507 80.571 60.6462C79.3315 60.7185 78.0855 60.7046 76.8411 60.7169C75.7207 60.7277 74.5986 60.7231 73.4782 60.7169C72.2534 60.7108 71.924 60.3122 72.2012 59.1917C72.4328 58.2559 72.6676 57.3202 72.8992 56.3844C72.984 56.0417 73.2303 55.8888 73.638 55.9258L73.6364 55.9288Z" fill="white"/>
<path d="M88.4446 49.699H87.0796C87.2247 49.1003 87.3682 48.5047 87.515 47.9121C87.5868 47.6243 87.577 47.2549 87.7678 47.0764C87.939 46.9148 88.3321 46.9702 88.6256 46.9163C90.4571 46.5839 91.8874 45.7236 92.7371 44.1106C92.8317 43.9321 92.9426 43.872 93.1498 43.8751C93.8413 43.8859 94.5344 43.8797 95.2765 43.8797C95.0253 44.8124 94.7872 45.7005 94.5474 46.5885H98.2317C98.0164 47.4058 97.8223 48.2184 97.5874 49.0218C97.4374 49.5374 96.9954 49.7083 96.4719 49.7206C95.9223 49.7329 95.3727 49.7236 94.8247 49.736C94.0712 49.7529 93.7972 49.9437 93.6211 50.6425C93.1726 52.4093 92.7453 54.1808 92.3115 55.9508C92.2821 56.0739 92.2707 56.2017 92.2642 56.3279C92.243 56.7957 92.4175 57.0512 92.9068 57.0959C93.5053 57.1497 94.112 57.1374 94.7154 57.1282C95.1378 57.122 95.4086 56.8804 95.5961 56.5341C95.8424 56.0816 95.8489 56.0847 96.4621 56.1663C96.3936 56.4418 96.3251 56.7126 96.2566 56.9851C96.0446 57.8392 95.8375 58.6934 95.6173 59.5446C95.3596 60.5434 95.1248 60.7189 94.0402 60.722C92.2462 60.7266 90.4523 60.7266 88.6583 60.722C88.2897 60.722 87.9162 60.7158 87.5525 60.6681C86.512 60.528 86.0195 59.9493 86.1891 58.9659C86.3587 57.987 86.6115 57.022 86.8463 56.0539C87.2981 54.1901 87.7613 52.3293 88.2228 50.467C88.2864 50.2115 88.3696 49.9591 88.4446 49.7021V49.699Z" fill="white"/>
<path d="M147.731 49.6993H146.362C146.457 49.3115 146.55 48.9267 146.645 48.5419C146.751 48.1094 146.874 47.6816 146.961 47.2445C147 47.0444 147.096 46.992 147.294 46.9813C148.489 46.912 149.561 46.5272 150.524 45.8547C151.172 45.4037 151.646 44.8219 151.995 44.1494C152.108 43.9339 152.242 43.8692 152.486 43.8754C153.157 43.8908 153.829 43.8816 154.556 43.8816C154.306 44.8173 154.067 45.7115 153.832 46.5903H157.519C157.293 47.4322 157.092 48.2741 156.833 49.0991C156.681 49.5854 156.221 49.7116 155.732 49.7224C155.205 49.7347 154.678 49.7255 154.152 49.7347C153.348 49.7501 153.082 49.9317 152.896 50.6612C152.451 52.4173 152.025 54.1796 151.594 55.9388C151.571 56.0311 151.56 56.1265 151.554 56.2204C151.503 56.8114 151.676 57.0561 152.309 57.1162C152.852 57.1685 153.405 57.1469 153.953 57.1346C154.399 57.1254 154.693 56.8884 154.889 56.5159C155.122 56.0711 155.166 56.0603 155.743 56.1758C155.528 57.0377 155.314 57.8996 155.094 58.7614C154.987 59.1816 154.876 59.6018 154.748 60.0189C154.628 60.4144 154.342 60.6422 153.904 60.6853C153.726 60.7022 153.546 60.7222 153.369 60.7222C151.395 60.7253 149.422 60.7299 147.449 60.7176C147.116 60.7161 146.777 60.6684 146.455 60.5883C145.867 60.4406 145.482 60.062 145.477 59.4817C145.472 58.9815 145.544 58.469 145.659 57.9796C146.266 55.4447 146.897 52.916 147.522 50.3842C147.579 50.1518 147.661 49.9255 147.729 49.7008L147.731 49.6993Z" fill="white"/>
<path d="M145.808 46.5907C145.556 47.5127 145.314 48.4346 145.048 49.3488C144.957 49.6612 144.699 49.8459 144.354 49.8628C143.783 49.8905 143.212 49.8982 142.641 49.909C142.137 49.9183 141.632 49.9059 141.128 49.9259C140.262 49.9598 139.608 50.3338 139.326 51.1203C139.055 51.879 138.848 52.6594 138.65 53.4397C138.486 54.0846 138.316 54.7371 138.256 55.3959C138.173 56.307 138.58 56.8041 139.549 56.8765C140.501 56.9457 141.469 56.8795 142.428 56.8303C142.829 56.8103 143.206 56.604 143.387 56.2577C143.586 55.8807 143.879 55.9022 144.272 55.9469C144.218 56.1716 144.168 56.3809 144.117 56.5917C143.928 57.3644 143.742 58.1354 143.548 58.9065C143.22 60.2194 142.742 60.6657 141.33 60.8227C139.363 61.0428 137.393 61.0674 135.438 60.7073C135.035 60.6334 134.634 60.5102 134.257 60.3563C133.053 59.8669 132.58 58.9265 132.525 57.7507C132.466 56.5009 132.696 55.2789 133.045 54.0861C133.476 52.6117 133.945 51.1449 134.498 49.7074C134.741 49.0764 135.175 48.49 135.617 47.9528C136.459 46.9309 137.674 46.5923 138.985 46.5738C141.216 46.5446 143.447 46.5584 145.678 46.5553C145.709 46.5553 145.74 46.5707 145.808 46.5877V46.5907Z" fill="white"/>
<path d="M163.007 60.7143C161.245 60.7143 159.53 60.7343 157.817 60.7066C156.948 60.6928 156.667 60.3065 156.835 59.5031C156.861 59.3784 156.892 59.2553 156.923 59.1322C157.794 55.5384 158.667 51.9462 159.536 48.3524C159.685 47.7383 159.579 47.512 158.985 47.2242C158.771 47.1211 158.838 46.9995 158.874 46.8595C158.912 46.7133 158.895 46.5517 159.156 46.5547C160.771 46.567 162.384 46.5624 163.998 46.567C164.109 46.567 164.222 46.5871 164.331 46.6055C165.001 46.7117 165.239 46.961 165.111 47.5798C164.855 48.8126 164.551 50.0361 164.254 51.2613C163.631 53.8346 162.999 56.4064 162.376 58.9813C162.239 59.5446 162.356 59.7816 162.893 60.0402C163.276 60.2249 162.979 60.4742 163.008 60.7174L163.007 60.7143Z" fill="white"/>
<path d="M160.861 43.0504C162.324 43.0504 163.767 43.0166 165.207 43.0658C165.883 43.0889 166.091 43.4213 165.976 44.0631C165.881 44.5818 165.754 45.0959 165.62 45.6084C165.601 45.6838 165.467 45.7869 165.385 45.7869C164.064 45.7961 162.743 45.8085 161.422 45.7838C160.657 45.77 160.313 45.3129 160.478 44.6141C160.597 44.1093 160.718 43.606 160.838 43.1012C160.845 43.072 160.864 43.0458 160.861 43.052V43.0504Z" fill="white"/>
<defs>
<clipPath id="clip0_700_80054">
<rect width="25" height="20" fill="white" transform="translate(0.648438 42)"/>
</clipPath>
</defs>
</svg>