<svg xmlns="http://www.w3.org/2000/svg" width="262" height="32" viewBox="0 0 264 32" fill="none">
<path d="M150.359 26.9072C150.281 27.2269 150.21 27.5231 150.134 27.845C149.335 27.845 148.555 27.845 147.776 27.845C146.106 27.845 144.438 27.845 142.768 27.845C142.554 27.845 142.338 27.845 142.127 27.8171C141.303 27.7033 140.989 27.4136 140.951 26.6067C140.891 25.2805 140.879 23.9521 140.851 22.6237C140.846 22.452 140.851 22.2782 140.851 22.1001C140.697 22.0808 140.608 22.0593 140.519 22.0593C138.512 22.0593 136.506 22.0615 134.5 22.0529C134.241 22.0529 134.123 22.1495 134.023 22.3662C133.6 23.2804 133.152 24.186 132.727 25.1002C132.277 26.0702 132.489 26.5187 133.587 26.9243C133.529 27.2162 133.469 27.5145 133.404 27.8492C132.939 27.8492 132.482 27.8492 132.026 27.8492C130.22 27.8492 128.411 27.8514 126.605 27.8492C125.307 27.8471 124.889 27.1947 125.485 26.0702C129.015 19.4176 132.551 12.7693 136.078 6.11667C136.243 5.8055 136.399 5.47072 136.455 5.13166C136.548 4.5458 136.368 4.34193 135.769 4.17883C135.669 4.15093 135.568 4.12089 135.43 4.08011C135.473 3.83118 135.488 3.58009 135.571 3.35047C135.604 3.25605 135.78 3.15733 135.896 3.15304C136.37 3.13158 136.844 3.14446 137.319 3.14446C140.151 3.14446 142.984 3.14231 145.819 3.14446C147.366 3.1466 147.676 3.36764 147.783 4.83336C147.941 6.98151 148.019 9.1361 148.128 11.2864C148.333 15.3831 148.535 19.4798 148.738 23.5787C148.762 24.0658 148.765 24.553 148.8 25.038C148.887 26.2655 149.092 26.5144 150.361 26.9114L150.359 26.9072ZM140.699 17.7931C140.65 16.1535 140.583 14.5075 140.559 12.8616C140.534 11.2242 140.554 9.58676 140.554 8.21546C139.183 11.2628 137.702 14.5548 136.243 17.7931H140.701H140.699Z" fill="#212529"/>
<path d="M60.3608 19.2598C60.1359 20.189 59.9087 21.1032 59.6927 22.0196C59.45 23.0539 59.1984 24.0862 58.9846 25.127C58.753 26.2558 58.9245 26.5133 60.1092 26.9103C60.0401 27.2107 59.9689 27.5176 59.8909 27.8481H56.8379C55.3682 27.8481 53.8985 27.8481 52.4288 27.8481C52.2596 27.8481 52.0926 27.8481 51.9233 27.8417C50.7965 27.788 50.34 27.2451 50.5761 26.1807C50.899 24.7257 51.2441 23.275 51.5915 21.8264C52.8185 16.7168 54.0477 11.6071 55.2702 6.49751C55.346 6.18205 55.3949 5.86015 55.4395 5.53825C55.5419 4.80217 55.3348 4.46525 54.6267 4.20558C54.5287 4.1691 54.4285 4.13691 54.3417 4.10686C54.3305 4.05751 54.3127 4.02746 54.3194 4.00385C54.4589 3.43016 54.8382 3.14331 55.4573 3.14331C60.1871 3.14331 64.9191 3.13258 69.6489 3.15404C70.484 3.15833 71.3369 3.22271 72.1519 3.39654C73.8287 3.75492 74.6905 4.77856 74.902 6.41811C75.1025 7.95679 74.8174 9.44397 74.4589 10.9269C74.0447 12.6394 73.4635 14.2961 72.6351 15.8691C71.4727 18.0731 69.6289 19.2276 67.0569 19.2512C65.006 19.2705 62.9528 19.2598 60.9019 19.2619C60.7349 19.2619 60.5679 19.2619 60.3608 19.2619V19.2598ZM61.5455 14.2145C62.267 14.2145 63.0575 14.2403 63.8436 14.2081C64.7076 14.1716 65.4157 13.8047 65.8477 13.0686C66.5291 11.9097 66.8899 10.6479 66.9144 9.31521C66.93 8.44608 66.5492 8.01688 65.6562 7.9289C64.8835 7.85164 64.0997 7.86022 63.3203 7.85808C63.2245 7.85808 63.0642 8.00401 63.0397 8.10701C62.5231 10.1779 62.022 12.2531 61.5455 14.2145Z" fill="#212529"/>
<path d="M154.245 8.88996C154.272 8.76549 154.305 8.66677 154.312 8.56591C154.343 8.17105 154.57 8.09165 154.956 8.09379C157.007 8.11311 159.06 8.09808 161.111 8.10452C162.765 8.10881 163.168 8.60669 162.799 10.1518C161.966 13.6412 161.137 17.1306 160.313 20.6222C160.242 20.9226 160.191 21.2338 160.184 21.5385C160.175 21.9699 160.349 22.3368 160.817 22.4591C161.977 22.7639 163.077 22.5772 163.556 21.4312C163.89 20.6307 164.117 19.7831 164.326 18.9397C164.988 16.2744 165.624 13.6026 166.259 10.933C166.564 9.65179 166.5 9.53161 165.306 8.87279C165.368 8.62815 165.431 8.37492 165.495 8.11525C167.833 8.11525 170.145 8.11311 172.456 8.11954C172.652 8.11954 172.853 8.16461 173.044 8.20968C173.688 8.36204 174.013 8.72042 173.928 9.35993C173.817 10.1904 173.628 11.0124 173.434 11.83C172.378 16.2829 171.307 20.7316 170.247 25.1846C169.991 26.2597 170.152 26.558 171.236 27.0559C171.185 27.2941 171.129 27.5473 171.069 27.8284C170.931 27.8349 170.797 27.8499 170.664 27.8499C168.566 27.8499 166.468 27.8585 164.371 27.8435C164.01 27.8413 163.636 27.7834 163.293 27.6761C162.752 27.5044 162.545 27.1331 162.565 26.5816C162.589 25.8799 162.879 25.2683 163.217 24.6695C163.306 24.5129 163.384 24.3498 163.469 24.1888L163.338 24.1137C163.257 24.2189 163.17 24.3197 163.097 24.4292C162.616 25.1481 162.151 25.8756 161.658 26.5859C161.24 27.1889 160.652 27.5688 159.91 27.7104C158.109 28.0538 156.296 28.1782 154.481 27.8628C152.493 27.5194 151.662 26.3863 152.056 24.4614C152.482 22.3797 153.003 20.3174 153.493 18.2487C154.078 15.7786 154.68 13.3107 155.27 10.8407C155.544 9.69471 155.383 9.38783 154.25 8.88781L154.245 8.88996Z" fill="#212529"/>
<path d="M260.876 27.0718C260.809 27.3379 260.749 27.5782 260.68 27.8507C259.95 27.8507 259.233 27.8507 258.518 27.8507C257.017 27.8507 255.516 27.8507 254.017 27.8507C253.788 27.8507 253.556 27.8507 253.332 27.81C252.399 27.6426 252.009 27.119 252.218 26.2284C253.113 22.4214 254.022 18.6165 254.942 14.8159C255.182 13.8266 255.073 13.2515 254.505 12.9553C253.801 12.5884 252.566 12.7579 252.06 13.4017C251.702 13.8567 251.408 14.4146 251.267 14.9683C250.403 18.404 249.586 21.8505 248.769 25.297C248.535 26.282 248.729 26.576 249.835 27.0718C249.778 27.3164 249.717 27.5696 249.648 27.855C248.951 27.855 248.266 27.855 247.577 27.855C246.032 27.855 244.484 27.8593 242.939 27.8529C242.665 27.8529 242.387 27.8336 242.119 27.7799C241.487 27.6533 241.151 27.3142 241.22 26.6941C241.318 25.8035 241.489 24.9172 241.696 24.0437C242.736 19.6487 243.799 15.2601 244.854 10.8673C244.865 10.8244 244.872 10.7814 244.881 10.7364C245.101 9.65693 244.93 9.34362 243.892 8.92729C243.868 8.18907 243.945 8.10752 244.663 8.10752C246.653 8.10752 248.644 8.10537 250.633 8.10752C252.374 8.10967 252.864 8.75776 252.323 10.3716C252.162 10.8523 251.929 11.3115 251.73 11.7793C251.766 11.8008 251.804 11.8201 251.84 11.8416C251.906 11.7343 251.993 11.6334 252.036 11.5175C252.345 10.6634 252.933 9.98313 253.508 9.29426C254.113 8.56676 254.897 8.13971 255.852 8.04529C257.469 7.88434 259.092 7.83498 260.702 8.10967C261.09 8.17619 261.473 8.30066 261.834 8.45732C262.615 8.79639 263.005 9.41229 263.085 10.2256C263.199 11.3973 262.838 12.5047 262.575 13.6227C261.673 17.4577 260.756 21.2904 259.852 25.1253C259.576 26.2949 259.718 26.5503 260.878 27.0739L260.876 27.0718Z" fill="#212529"/>
<path d="M228.283 28.2404C226.568 28.0559 224.842 27.9357 223.141 27.6717C220.585 27.2726 219.58 25.4227 219.669 23.2896C219.79 20.4397 220.505 17.6885 221.433 14.9996C221.89 13.6798 222.449 12.3686 223.152 11.1582C224.194 9.36202 225.976 8.51005 228.022 8.17957C231.176 7.67096 234.335 7.62804 237.457 8.37485C239.611 8.88989 240.602 10.1517 240.669 12.287C240.722 14.0146 240.332 15.6863 239.923 17.3516C239.406 19.459 238.88 21.5663 237.979 23.5621C237.248 25.1759 236.206 26.5215 234.476 27.2597C233.398 27.7189 232.256 27.9185 231.095 28.0129C230.167 28.088 229.232 28.1052 228.298 28.146C228.294 28.176 228.287 28.2082 228.283 28.2383V28.2404ZM229.12 23.3668C230.091 23.4226 230.882 22.9076 231.336 21.8861C231.456 21.6157 231.583 21.3432 231.659 21.0599C232.006 19.7465 232.358 18.4353 232.663 17.1134C232.897 16.094 233.095 15.0639 233.251 14.0317C233.385 13.1497 232.935 12.5402 232.042 12.3986C231.601 12.3278 231.118 12.3385 230.681 12.4287C229.664 12.639 229.142 13.3858 228.915 14.2807C228.305 16.667 227.711 19.0577 227.194 21.4633C226.929 22.6973 227.601 23.3583 229.122 23.3668H229.12Z" fill="#212529"/>
<path d="M77.3737 8.10507C78.3224 8.10507 79.2242 8.10507 80.1261 8.10507C82.5289 8.10507 84.9338 8.09219 87.3366 8.1158C88.067 8.12224 88.8108 8.16516 89.5256 8.30465C91.5231 8.69736 92.583 10.4163 92.102 12.4507C91.1133 16.629 90.1001 20.803 89.1025 24.9791C89.0401 25.2366 88.9867 25.4984 88.9622 25.7624C88.9177 26.2345 89.1292 26.5843 89.5612 26.8182C90.1446 27.1337 90.1424 27.1358 89.913 27.8526C88.9755 27.8526 88.0291 27.8526 87.0827 27.8526C85.8424 27.8526 84.602 27.8526 83.3639 27.8526C83.119 27.8526 82.8718 27.8526 82.6313 27.8161C81.6671 27.6745 81.3442 27.2903 81.5112 26.3633C81.6203 25.7602 81.8408 25.1765 82.0278 24.5885C82.1058 24.3439 82.226 24.1121 82.2349 23.8267C82.1882 23.8803 82.1236 23.9254 82.1013 23.9876C81.676 25.0671 80.9122 25.9341 80.2174 26.8483C79.732 27.4856 79.0884 27.8161 78.3023 27.9492C76.9774 28.1723 75.6546 28.2067 74.3341 27.9384C72.5237 27.5715 71.437 26.5285 71.3524 24.7688C71.2188 21.979 71.8957 19.3415 73.5324 17.0088C74.608 15.4744 76.2403 14.8671 78.1264 14.8542C79.5048 14.8435 80.881 14.8457 82.2594 14.8414C82.5645 14.8414 82.8718 14.8435 83.1769 14.8285C84.101 14.7834 84.7156 14.0345 84.5063 13.1632C84.464 12.9894 84.2524 12.7984 84.0698 12.7254C83.8405 12.6353 83.5599 12.6374 83.3038 12.6353C81.7428 12.6288 80.1818 12.631 78.6185 12.631C78.4203 12.631 78.2199 12.631 78.0217 12.6246C76.9083 12.5795 76.4964 12.0966 76.7101 11.0494C76.9083 10.0815 77.1421 9.12227 77.3693 8.11151L77.3737 8.10507ZM82.3106 22.846C82.7003 21.2665 83.0767 19.745 83.433 18.2986C82.8673 18.2986 82.2438 18.275 81.6225 18.305C80.9434 18.3372 80.2731 18.4316 79.8455 19.0411C79.3022 19.818 79.0149 20.6764 79.0105 21.6099C79.006 22.3052 79.2732 22.6357 79.9814 22.7172C80.7496 22.8052 81.529 22.8052 82.3084 22.8438L82.3106 22.846Z" fill="#212529"/>
<path d="M94.1944 21.1645C94.3703 22.3062 95.2321 22.5808 96.2653 22.5808C97.8108 22.5808 99.3562 22.5808 100.902 22.5272C101.752 22.4993 102.14 22.0808 102.004 21.3984C101.955 21.1516 101.77 20.8726 101.559 20.7224C101.182 20.4542 100.748 20.2524 100.32 20.0593C99.3807 19.6322 98.4298 19.2288 97.4834 18.8125C95.4214 17.9026 94.8268 16.9433 95.0361 14.7694C95.1764 13.308 95.5483 11.9002 96.1985 10.5632C96.9156 9.09106 98.1136 8.28846 99.7837 8.19403C101.082 8.12107 102.382 8.11034 103.683 8.10175C105.749 8.08673 107.816 8.09746 109.882 8.09746H110.439C110.096 9.38936 109.793 10.6362 109.43 11.8658C109.223 12.5676 108.611 12.7822 107.921 12.7886C106.558 12.8015 105.195 12.7951 103.834 12.8036C103.545 12.8036 103.251 12.8144 102.966 12.8573C102.409 12.941 102.066 13.2565 101.997 13.7157C101.924 14.1921 102.057 14.4496 102.636 14.7093C104.008 15.3252 105.402 15.8939 106.765 16.5227C107.339 16.7866 107.907 17.1021 108.397 17.4905C109.381 18.2674 109.533 19.3769 109.328 20.4799C109.076 21.8362 108.767 23.1989 108.301 24.4994C107.558 26.5746 105.89 27.6089 103.663 27.742C101.97 27.8428 100.269 27.8235 98.5701 27.8407C97.0403 27.8557 95.5082 27.8493 93.9784 27.8407C92.306 27.8321 91.8562 27.2763 92.2348 25.714C92.551 24.4092 92.8716 23.1045 93.1879 21.7997C93.3036 21.3219 93.6399 21.1087 94.1966 21.1602L94.1944 21.1645Z" fill="#212529"/>
<path d="M114.406 12.48H112.542C112.74 11.6452 112.936 10.8147 113.136 9.9885C113.234 9.58719 113.221 9.07215 113.482 8.82322C113.715 8.59789 114.252 8.67514 114.653 8.60003C117.154 8.1365 119.107 6.93688 120.267 4.68787C120.396 4.43893 120.547 4.35524 120.83 4.35953C121.774 4.37455 122.721 4.36597 123.734 4.36597C123.391 5.66645 123.066 6.90469 122.739 8.14293H127.769C127.475 9.28246 127.21 10.4156 126.889 11.5358C126.685 12.2547 126.081 12.4929 125.366 12.5101C124.616 12.5272 123.865 12.5143 123.117 12.5315C122.088 12.5551 121.714 12.8212 121.474 13.7955C120.861 16.2591 120.278 18.7292 119.686 21.1971C119.646 21.3688 119.63 21.5469 119.621 21.7228C119.592 22.3752 119.83 22.7315 120.498 22.7937C121.316 22.8688 122.144 22.8516 122.968 22.8388C123.545 22.8302 123.914 22.4933 124.17 22.0104C124.507 21.3795 124.516 21.3838 125.353 21.4975C125.259 21.8816 125.166 22.2593 125.072 22.6392C124.783 23.8302 124.5 25.0212 124.199 26.208C123.848 27.6007 123.527 27.8454 122.046 27.8497C119.597 27.8561 117.147 27.8561 114.698 27.8497C114.194 27.8497 113.684 27.8411 113.188 27.7746C111.767 27.5793 111.094 26.7724 111.326 25.4011C111.558 24.0362 111.903 22.6907 112.223 21.3409C112.84 18.742 113.473 16.1475 114.103 13.5509C114.19 13.1946 114.303 12.8427 114.406 12.4843V12.48Z" fill="#212529"/>
<path d="M195.367 12.4804H193.499C193.628 11.9396 193.755 11.4031 193.884 10.8666C194.029 10.2636 194.198 9.66699 194.316 9.05753C194.369 8.77855 194.501 8.70558 194.77 8.69056C196.402 8.59399 197.865 8.05749 199.181 7.11969C200.065 6.49091 200.713 5.67972 201.19 4.74191C201.344 4.44147 201.526 4.35134 201.86 4.35993C202.776 4.38139 203.693 4.36851 204.686 4.36851C204.345 5.67328 204.018 6.92011 203.697 8.14548H208.732C208.423 9.31934 208.149 10.4932 207.795 11.6435C207.588 12.3216 206.96 12.4976 206.292 12.5126C205.572 12.5298 204.853 12.5169 204.134 12.5298C203.036 12.5512 202.673 12.8045 202.419 13.8217C201.811 16.2702 201.23 18.7274 200.642 21.1803C200.611 21.3091 200.595 21.4421 200.587 21.573C200.518 22.3971 200.754 22.7383 201.618 22.822C202.359 22.895 203.114 22.8649 203.862 22.8477C204.472 22.8349 204.873 22.5044 205.14 21.9851C205.459 21.3649 205.519 21.3498 206.307 21.5108C206.013 22.7125 205.722 23.9143 205.421 25.1161C205.274 25.7019 205.123 26.2878 204.949 26.8694C204.784 27.4209 204.394 27.7385 203.795 27.7986C203.553 27.8222 203.308 27.8501 203.065 27.8501C200.371 27.8544 197.676 27.8608 194.982 27.8436C194.527 27.8415 194.064 27.775 193.625 27.6634C192.822 27.4574 192.296 26.9294 192.289 26.1204C192.283 25.423 192.381 24.7083 192.539 24.0259C193.367 20.4914 194.229 16.9656 195.082 13.4354C195.16 13.1113 195.271 12.7959 195.365 12.4825L195.367 12.4804Z" fill="#212529"/>
<path d="M192.728 8.15184C192.383 9.4373 192.053 10.7228 191.69 11.9975C191.566 12.4331 191.214 12.6906 190.742 12.7142C189.962 12.7529 189.183 12.7636 188.404 12.7786C187.716 12.7915 187.025 12.7743 186.337 12.8022C185.155 12.8494 184.262 13.3709 183.877 14.4675C183.507 15.5255 183.224 16.6135 182.955 17.7016C182.73 18.6007 182.498 19.5106 182.416 20.4291C182.302 21.6996 182.859 22.3927 184.182 22.4936C185.482 22.5902 186.803 22.4979 188.112 22.4292C188.66 22.4013 189.174 22.1137 189.421 21.6309C189.693 21.1051 190.094 21.1352 190.631 21.1974C190.557 21.5107 190.488 21.8026 190.419 22.0966C190.161 23.1739 189.907 24.249 189.642 25.3242C189.194 27.1547 188.542 27.777 186.613 27.9959C183.928 28.3028 181.238 28.3371 178.568 27.835C178.018 27.732 177.47 27.5603 176.956 27.3457C175.312 26.6633 174.666 25.3521 174.591 23.7125C174.51 21.97 174.824 20.266 175.301 18.6029C175.889 16.547 176.53 14.5019 177.285 12.4975C177.617 11.6176 178.209 10.8 178.813 10.0511C179.962 8.62611 181.621 8.15399 183.411 8.12823C186.457 8.08746 189.504 8.10677 192.55 8.10248C192.592 8.10248 192.635 8.12394 192.728 8.14755V8.15184Z" fill="#212529"/>
<path d="M216.216 27.837C213.811 27.837 211.469 27.8649 209.13 27.8263C207.943 27.807 207.56 27.2684 207.79 26.1481C207.825 25.9743 207.868 25.8026 207.91 25.631C209.099 20.62 210.291 15.6113 211.477 10.6003C211.68 9.74409 211.535 9.42862 210.725 9.02732C210.433 8.88354 210.524 8.71401 210.573 8.51872C210.625 8.31485 210.602 8.08952 210.959 8.09381C213.163 8.11098 215.365 8.10454 217.57 8.11098C217.721 8.11098 217.875 8.13888 218.024 8.16463C218.94 8.3127 219.265 8.66036 219.089 9.52305C218.739 11.242 218.325 12.9481 217.92 14.6563C217.069 18.2444 216.205 21.8304 215.354 25.4206C215.167 26.2061 215.328 26.5366 216.06 26.8971C216.584 27.1546 216.178 27.5023 216.218 27.8413L216.216 27.837Z" fill="#212529"/>
<path d="M213.289 3.21114C215.287 3.21114 217.258 3.16392 219.224 3.2326C220.146 3.26479 220.431 3.72832 220.273 4.62321C220.144 5.34641 219.97 6.06318 219.787 6.77779C219.761 6.88295 219.578 7.02673 219.467 7.02673C217.663 7.03961 215.859 7.05678 214.055 7.02244C213.011 7.00313 212.541 6.36576 212.766 5.39148C212.929 4.68759 213.093 3.98584 213.258 3.28196C213.267 3.24118 213.294 3.2047 213.289 3.21328V3.21114Z" fill="#212529"/>
<g clip-path="url(#clip0_173_427731)">
<path d="M27.1407 26.0166C25.694 26.0166 24.2501 26.0195 22.8033 26.0166C20.1052 26.0108 20.0486 25.9092 21.4302 23.4273C22.8939 20.7973 24.2812 18.118 25.8752 15.5751C26.7698 14.1498 26.6396 13.0031 25.8497 11.6591C24.2246 8.90431 22.7127 6.07983 21.082 3.32503C20.3091 2.01874 20.4082 1.28432 22.0418 1.27271C25.5609 1.25239 29.0801 1.25239 32.5992 1.27561C33.525 1.28142 34.2923 1.65588 34.7793 2.54706C36.4695 5.6357 38.171 8.71853 39.8839 11.7927C40.6087 13.0902 40.5889 14.3443 39.8556 15.6302C38.2361 18.4634 36.5969 21.2879 35.0511 24.1646C34.3263 25.5173 33.3495 26.1066 31.8546 26.0312C30.2862 25.9528 28.712 26.0137 27.1407 26.0137V26.0166Z" fill="#212529"/>
<path d="M6.50176 29.6455C4.7436 29.6455 2.9826 29.6281 1.22443 29.6513C0.142921 29.6658 -0.372355 29.4162 0.304298 28.2144C5.07485 19.7381 9.83407 11.2501 14.5791 2.75638C15.2416 1.57202 15.6861 1.59815 16.326 2.79702C17.9228 5.78987 19.5677 8.75658 21.2607 11.6972C21.9855 12.957 21.9487 14.1327 21.2749 15.3461C18.9108 19.5987 16.527 23.8369 14.1799 28.0983C13.5514 29.242 12.6681 29.7094 11.4025 29.6629C9.77178 29.602 8.13536 29.6484 6.50176 29.6484V29.6455Z" fill="#212529"/>
</g>
<defs>
<clipPath id="clip0_173_427731">
<rect width="40.4142" height="32" fill="white"/>
</clipPath>
</defs>
</svg>