<svg width="26" height="21" viewBox="0 0 26 21" fill="none" xmlns="http://www.w3.org/2000/svg">
<g clip-path="url(#clip0_1594_75617)">
<path d="M17.2869 16.5055C16.3919 16.5055 15.4987 16.5073 14.6038 16.5055C12.9348 16.5019 12.8997 16.4384 13.7544 14.8872C14.6598 13.2434 15.518 11.5688 16.504 9.97954C17.0574 9.08872 16.9769 8.37208 16.4883 7.53207C15.483 5.81031 14.5478 4.04501 13.539 2.32326C13.0609 1.50683 13.1221 1.04782 14.1327 1.04056C16.3096 1.02786 18.4865 1.02786 20.6635 1.04237C21.2362 1.046 21.7108 1.28004 22.012 1.83703C23.0576 3.76743 24.1101 5.6942 25.1697 7.61552C25.6181 8.42651 25.6058 9.21028 25.1522 10.014C24.1504 11.7847 23.1364 13.55 22.1802 15.348C21.7318 16.1935 21.1276 16.5618 20.2029 16.5146C19.2326 16.4656 18.2589 16.5037 17.2869 16.5037V16.5055Z" fill="white"/>
<path d="M4.52195 18.7814C3.43436 18.7814 2.34502 18.7705 1.25743 18.785C0.58841 18.7941 0.269663 18.6381 0.688237 17.8869C3.63927 12.5892 6.5833 7.28427 9.51857 1.97567C9.92838 1.23544 10.2033 1.25177 10.5992 2.00107C11.5869 3.8716 12.6045 5.72579 13.6518 7.56366C14.1001 8.35106 14.0773 9.08585 13.6605 9.84422C12.1981 12.5021 10.7235 15.151 9.27163 17.8144C8.88283 18.5292 8.3364 18.8213 7.55355 18.7923C6.54477 18.7542 5.53248 18.7832 4.52195 18.7832V18.7814Z" fill="white"/>
</g>
<defs>
<clipPath id="clip0_1594_75617">
<rect width="25" height="20" fill="white" transform="translate(0.5 0.25)"/>
</clipPath>
</defs>
</svg>
