<svg xmlns="http://www.w3.org/2000/svg" width="262" height="32" viewBox="0 0 262 32" fill="none">
<path d="M122.679 30.3062C122.583 30.7139 122.495 31.0915 122.402 31.5019C121.42 31.5019 120.462 31.5019 119.505 31.5019C117.453 31.5019 115.403 31.5019 113.351 31.5019C113.088 31.5019 112.823 31.5019 112.563 31.4664C111.551 31.3214 111.165 30.952 111.118 29.9232C111.044 28.2322 111.031 26.5386 110.995 24.8449C110.99 24.626 110.995 24.4044 110.995 24.1773C110.806 24.1526 110.697 24.1253 110.588 24.1253C108.122 24.1253 105.657 24.128 103.192 24.1171C102.874 24.1171 102.729 24.2402 102.606 24.5165C102.086 25.6821 101.536 26.8368 101.014 28.0024C100.461 29.2391 100.721 29.811 102.07 30.3281C101.999 30.7002 101.925 31.0806 101.846 31.5074C101.274 31.5074 100.713 31.5074 100.152 31.5074C97.9328 31.5074 95.711 31.5102 93.492 31.5074C91.8968 31.5047 91.3824 30.6729 92.1157 29.2391C96.4525 20.7571 100.798 12.2804 105.132 3.79837C105.334 3.40162 105.526 2.97478 105.594 2.54247C105.709 1.7955 105.487 1.53557 104.751 1.32762C104.628 1.29205 104.505 1.25374 104.335 1.20175C104.387 0.884361 104.407 0.56423 104.508 0.271462C104.549 0.151071 104.765 0.0252076 104.907 0.0197353C105.49 -0.00762631 106.073 0.00879063 106.656 0.00879063C110.136 0.00879063 113.616 0.00605447 117.1 0.00879063C119.001 0.0115268 119.382 0.293351 119.513 2.16215C119.707 4.90104 119.803 7.64814 119.937 10.3898C120.189 15.6131 120.438 20.8364 120.687 26.0625C120.717 26.6836 120.72 27.3047 120.763 27.923C120.87 29.4881 121.122 29.8055 122.681 30.3117L122.679 30.3062ZM110.809 18.6858C110.749 16.5954 110.667 14.4967 110.637 12.3981C110.607 10.3104 110.631 8.22273 110.631 6.47433C108.946 10.3597 107.126 14.5569 105.334 18.6858H110.812H110.809Z" fill="white"/>
<path d="M12.0969 20.552C11.8206 21.7367 11.5415 22.9023 11.2761 24.0706C10.9779 25.3895 10.6687 26.7056 10.406 28.0326C10.1214 29.4718 10.3321 29.8002 11.7878 30.3063C11.7029 30.6894 11.6154 31.0807 11.5196 31.502H7.76835C5.96248 31.502 4.15662 31.502 2.35076 31.502C2.14281 31.502 1.9376 31.502 1.72965 31.4938C0.345156 31.4254 -0.215756 30.7332 0.0742761 29.3761C0.471019 27.5209 0.895123 25.6713 1.32196 23.8244C2.82959 17.3096 4.33994 10.7948 5.84209 4.28003C5.93512 3.87782 5.99532 3.46739 6.05004 3.05697C6.1759 2.11847 5.92144 1.68889 5.05134 1.35782C4.93095 1.3113 4.80783 1.27026 4.70112 1.23195C4.68744 1.16902 4.66555 1.13072 4.67375 1.10062C4.84522 0.369153 5.31128 0.00342019 6.07193 0.00342019C11.8835 0.00342019 17.6979 -0.0102606 23.5095 0.017101C24.5355 0.0225733 25.5835 0.104658 26.5849 0.326287C28.6452 0.783225 29.7041 2.08837 29.964 4.17879C30.2103 6.14062 29.8601 8.03677 29.4195 9.92746C28.9106 12.1109 28.1965 14.2232 27.1786 16.2288C25.7504 19.0389 23.4848 20.5109 20.3246 20.541C17.8046 20.5656 15.2818 20.5519 12.7618 20.5547C12.5566 20.5547 12.3514 20.5547 12.0969 20.5547V20.552ZM13.5526 14.1192C14.4391 14.1192 15.4104 14.1521 16.3763 14.111C17.4379 14.0645 18.308 13.5966 18.8388 12.6581C19.6761 11.1806 20.1194 9.57176 20.1495 7.8726C20.1686 6.76446 19.7007 6.21723 18.6035 6.10505C17.6541 6.00655 16.691 6.01749 15.7333 6.01475C15.6156 6.01475 15.4186 6.20081 15.3885 6.33215C14.7538 8.97254 14.1381 11.6184 13.5526 14.1192Z" fill="white"/>
<path d="M127.453 7.32816C127.486 7.16946 127.527 7.0436 127.535 6.915C127.574 6.41154 127.853 6.31031 128.326 6.31304C130.846 6.33767 133.369 6.31851 135.889 6.32672C137.922 6.33219 138.417 6.96698 137.963 8.93701C136.939 13.386 135.922 17.835 134.909 22.2867C134.822 22.6698 134.759 23.0665 134.751 23.4551C134.74 24.005 134.953 24.4729 135.528 24.6289C136.953 25.0174 138.305 24.7794 138.893 23.3183C139.304 22.2977 139.583 21.2169 139.84 20.1416C140.652 16.7433 141.435 13.3368 142.215 9.93298C142.59 8.29949 142.51 8.14627 141.044 7.30627C141.12 6.99434 141.197 6.67148 141.276 6.3404C144.149 6.3404 146.989 6.33767 149.83 6.34588C150.07 6.34588 150.317 6.40334 150.552 6.46079C151.343 6.65506 151.742 7.112 151.638 7.92737C151.501 8.98627 151.269 10.0342 151.031 11.0767C149.734 16.7542 148.418 22.4263 147.115 28.1038C146.801 29.4746 146.998 29.8549 148.33 30.4897C148.267 30.7934 148.199 31.1163 148.125 31.4747C147.955 31.4829 147.791 31.5021 147.627 31.5021C145.049 31.5021 142.472 31.513 139.895 31.4939C139.451 31.4911 138.992 31.4173 138.57 31.2805C137.905 31.0616 137.651 30.5882 137.676 29.885C137.706 28.9903 138.061 28.2105 138.477 27.4471C138.587 27.2474 138.682 27.0394 138.786 26.8342L138.625 26.7384C138.526 26.8725 138.42 27.0011 138.329 27.1407C137.738 28.0573 137.167 28.9848 136.562 29.8905C136.048 30.6594 135.325 31.1437 134.414 31.3242C132.2 31.762 129.973 31.9207 127.743 31.5185C125.3 31.0807 124.279 29.636 124.764 27.1817C125.286 24.5276 125.926 21.8982 126.528 19.2605C127.248 16.1112 127.987 12.9646 128.712 9.81532C129.048 8.35421 128.851 7.96294 127.459 7.32542L127.453 7.32816Z" fill="white"/>
<path d="M258.477 30.5088C258.395 30.8481 258.321 31.1546 258.236 31.5021C257.339 31.5021 256.457 31.5021 255.579 31.5021C253.735 31.5021 251.891 31.5021 250.049 31.5021C249.768 31.5021 249.483 31.5021 249.207 31.4501C248.06 31.2366 247.581 30.569 247.839 29.4335C248.939 24.5796 250.055 19.7284 251.185 14.8826C251.48 13.6213 251.346 12.888 250.649 12.5104C249.784 12.0425 248.265 12.2587 247.644 13.0795C247.204 13.6596 246.843 14.371 246.67 15.0769C245.609 19.4575 244.604 23.8518 243.6 28.246C243.313 29.5019 243.551 29.8768 244.911 30.5088C244.84 30.8208 244.766 31.1436 244.681 31.5075C243.825 31.5075 242.982 31.5075 242.136 31.5075C240.238 31.5075 238.336 31.513 236.437 31.5048C236.1 31.5048 235.758 31.4802 235.43 31.4118C234.653 31.2503 234.24 30.818 234.325 30.0273C234.445 28.8918 234.656 27.7617 234.91 26.6481C236.188 21.0445 237.493 15.449 238.79 9.84812C238.804 9.7934 238.812 9.73867 238.823 9.68121C239.094 8.30493 238.883 7.90545 237.608 7.37463C237.578 6.4334 237.674 6.32942 238.555 6.32942C241.001 6.32942 243.447 6.32669 245.89 6.32942C248.03 6.33216 248.632 7.15848 247.967 9.21607C247.77 9.82896 247.483 10.4145 247.239 11.011C247.283 11.0383 247.33 11.063 247.373 11.0903C247.456 10.9535 247.562 10.8249 247.614 10.6772C247.995 9.58818 248.717 8.72082 249.423 7.84252C250.167 6.91496 251.13 6.37046 252.304 6.25007C254.29 6.04486 256.285 5.98193 258.263 6.33216C258.739 6.41698 259.21 6.57568 259.653 6.77542C260.614 7.20773 261.093 7.993 261.191 9.03001C261.331 10.5239 260.887 11.9358 260.564 13.3613C259.456 18.2509 258.329 23.1376 257.218 28.0271C256.879 29.5183 257.054 29.8439 258.479 30.5116L258.477 30.5088Z" fill="white"/>
<path d="M218.428 31.9999C216.321 31.7646 214.201 31.6114 212.11 31.2748C208.969 30.7659 207.735 28.4073 207.844 25.6876C207.992 22.054 208.87 18.5462 210.011 15.1178C210.572 13.4351 211.259 11.7633 212.124 10.2201C213.404 7.92993 215.593 6.84368 218.108 6.42231C221.982 5.77384 225.865 5.71912 229.701 6.6713C232.347 7.32797 233.564 8.93683 233.646 11.6593C233.712 13.8619 233.233 15.9934 232.73 18.1166C232.095 20.8035 231.449 23.4904 230.341 26.0351C229.444 28.0927 228.163 29.8082 226.037 30.7495C224.713 31.335 223.309 31.5895 221.884 31.7099C220.743 31.8056 219.593 31.8275 218.447 31.8795C218.442 31.9178 218.433 31.9588 218.428 31.9972V31.9999ZM219.457 25.7861C220.65 25.8572 221.621 25.2005 222.179 23.8981C222.327 23.5534 222.483 23.2059 222.576 22.8447C223.003 21.1702 223.435 19.4984 223.81 17.8129C224.097 16.5133 224.341 15.1999 224.532 13.8838C224.696 12.7592 224.144 11.9822 223.046 11.8016C222.505 11.7113 221.911 11.725 221.375 11.8399C220.124 12.108 219.484 13.0602 219.205 14.2012C218.455 17.2438 217.725 20.2919 217.09 23.3591C216.764 24.9324 217.591 25.7751 219.459 25.7861H219.457Z" fill="white"/>
<path d="M32.9983 6.32673C34.1639 6.32673 35.272 6.32673 36.3802 6.32673C39.3325 6.32673 42.2875 6.31032 45.2398 6.34042C46.1373 6.34862 47.0512 6.40335 47.9295 6.5812C50.3838 7.08191 51.6862 9.27357 51.0952 11.8675C49.8804 17.1947 48.6354 22.5166 47.4096 27.8411C47.333 28.1695 47.2673 28.5033 47.2372 28.8398C47.1825 29.4418 47.4425 29.8878 47.9733 30.186C48.6901 30.5882 48.6874 30.591 48.4056 31.5048C47.2537 31.5048 46.0908 31.5048 44.9279 31.5048C43.4039 31.5048 41.8799 31.5048 40.3585 31.5048C40.0576 31.5048 39.7539 31.5048 39.4584 31.4583C38.2736 31.2777 37.8769 30.788 38.0821 29.6059C38.2161 28.8371 38.487 28.0929 38.7169 27.3431C38.8126 27.0312 38.9604 26.7357 38.9713 26.3718C38.9139 26.4402 38.8345 26.4977 38.8071 26.577C38.2845 27.9533 37.346 29.0587 36.4924 30.2243C35.8959 31.037 35.1051 31.4583 34.1393 31.628C32.5113 31.9125 30.886 31.9563 29.2634 31.6143C27.0389 31.1464 25.7037 29.8166 25.5997 27.573C25.4356 24.016 26.2673 20.6532 28.2784 17.679C29.6 15.7227 31.6056 14.9484 33.9231 14.9319C35.6168 14.9183 37.3077 14.921 39.0014 14.9155C39.3763 14.9155 39.7539 14.9183 40.1287 14.8991C41.2642 14.8417 42.0194 13.8867 41.7622 12.7759C41.7102 12.5542 41.4503 12.3107 41.2259 12.2177C40.9441 12.1028 40.5993 12.1055 40.2847 12.1028C38.3666 12.0946 36.4486 12.0973 34.5278 12.0973C34.2843 12.0973 34.038 12.0973 33.7945 12.0891C32.4264 12.0316 31.9202 11.416 32.1829 10.0807C32.4264 8.84673 32.7137 7.62367 32.9928 6.33494L32.9983 6.32673ZM39.0643 25.1214C39.5432 23.1076 40.0056 21.1676 40.4434 19.3235C39.7484 19.3235 38.9823 19.2934 38.2189 19.3317C37.3843 19.3727 36.5608 19.4931 36.0354 20.2702C35.3678 21.2607 35.0148 22.3551 35.0094 23.5454C35.0039 24.4319 35.3322 24.8532 36.2023 24.9572C37.1463 25.0694 38.104 25.0694 39.0616 25.1187L39.0643 25.1214Z" fill="white"/>
<path d="M53.6646 22.9816C53.8808 24.4372 54.9397 24.7875 56.2092 24.7875C58.1081 24.7875 60.007 24.7875 61.9059 24.7191C62.9511 24.6835 63.4272 24.1499 63.2603 23.2798C63.2001 22.9652 62.973 22.6095 62.7131 22.4179C62.2507 22.0759 61.7171 21.8187 61.1918 21.5725C60.0371 21.028 58.8688 20.5136 57.7059 19.9828C55.1722 18.8226 54.4417 17.5996 54.6989 14.8278C54.8713 12.9645 55.3282 11.1696 56.1271 9.46498C57.0082 7.58798 58.4802 6.56466 60.5324 6.44427C62.1275 6.35124 63.7255 6.33756 65.3234 6.32661C67.8625 6.30746 70.4017 6.32114 72.9408 6.32114H73.6249C73.2035 7.96831 72.8314 9.55801 72.3854 11.1258C72.1309 12.0206 71.3785 12.2942 70.5303 12.3024C68.8557 12.3188 67.1812 12.3106 65.5094 12.3215C65.1537 12.3215 64.7926 12.3352 64.4423 12.3899C63.7583 12.4966 63.3369 12.8989 63.2521 13.4844C63.1618 14.0918 63.326 14.4202 64.0374 14.7512C65.7228 15.5365 67.4357 16.2616 69.1102 17.0633C69.8161 17.3998 70.5139 17.8021 71.1158 18.2973C72.3252 19.2878 72.5112 20.7024 72.2595 22.1088C71.9503 23.838 71.57 25.5755 70.9982 27.2336C70.0843 29.8794 68.0349 31.1983 65.2987 31.3679C63.2193 31.4965 61.1288 31.4719 59.0412 31.4938C57.1614 31.5129 55.2789 31.5047 53.3992 31.4938C51.3443 31.4828 50.7916 30.7742 51.2568 28.7822C51.6453 27.1187 52.0393 25.4551 52.4279 23.7915C52.5702 23.1822 52.9833 22.9105 53.6673 22.9761L53.6646 22.9816Z" fill="white"/>
<path d="M78.5064 11.9058H76.2162C76.4597 10.8415 76.7005 9.78256 76.9467 8.72914C77.0671 8.21748 77.0507 7.5608 77.3709 7.2434C77.6582 6.95611 78.3176 7.05461 78.8101 6.95885C81.8828 6.36784 84.2824 4.83832 85.7079 1.97083C85.8666 1.65344 86.0527 1.54673 86.4002 1.5522C87.5603 1.57135 88.7232 1.56041 89.9681 1.56041C89.5467 3.21852 89.1473 4.79728 88.7451 6.37604H94.926C94.5649 7.82894 94.2393 9.27363 93.8453 10.7019C93.5935 11.6185 92.852 11.9222 91.9737 11.9441C91.0516 11.966 90.1295 11.9496 89.2102 11.9715C87.9461 12.0016 87.4864 12.3409 87.1909 13.5831C86.4385 16.7242 85.7216 19.8735 84.9938 23.0201C84.9445 23.239 84.9254 23.4661 84.9144 23.6904C84.8789 24.5222 85.1716 24.9764 85.9925 25.0558C86.9966 25.1515 88.0145 25.1297 89.0269 25.1132C89.7355 25.1023 90.1897 24.6727 90.5044 24.0571C90.9176 23.2527 90.9285 23.2581 91.9573 23.4031C91.8424 23.8929 91.7275 24.3745 91.6125 24.8588C91.2568 26.3773 90.9094 27.8959 90.54 29.409C90.1077 31.1848 89.7137 31.4967 87.8941 31.5022C84.8843 31.5104 81.8746 31.5104 78.8648 31.5022C78.2464 31.5022 77.6198 31.4912 77.0097 31.4064C75.264 31.1574 74.4377 30.1286 74.7223 28.3802C75.0068 26.64 75.4309 24.9244 75.8249 23.2034C76.5828 19.8899 77.3599 16.5819 78.1342 13.2712C78.241 12.817 78.3805 12.3682 78.5064 11.9113V11.9058Z" fill="white"/>
<path d="M177.979 11.9056H175.684C175.842 11.2161 175.998 10.532 176.157 9.84799C176.335 9.07914 176.543 8.31848 176.688 7.54142C176.753 7.18572 176.915 7.09269 177.246 7.07353C179.252 6.95041 181.049 6.26637 182.666 5.07067C183.753 4.26897 184.549 3.23471 185.134 2.03901C185.323 1.65595 185.547 1.54103 185.958 1.55197C187.082 1.57933 188.21 1.56292 189.43 1.56292C189.011 3.2265 188.609 4.81621 188.215 6.37855H194.402C194.021 7.87523 193.685 9.3719 193.25 10.8385C192.995 11.7031 192.224 11.9275 191.403 11.9466C190.519 11.9685 189.635 11.9521 188.752 11.9685C187.403 11.9959 186.957 12.3187 186.645 13.6157C185.898 16.7376 185.184 19.8705 184.461 22.998C184.423 23.1621 184.404 23.3318 184.393 23.4987C184.308 24.5494 184.598 24.9844 185.66 25.0911C186.571 25.1841 187.498 25.1458 188.418 25.124C189.167 25.1075 189.66 24.6862 189.988 24.024C190.38 23.2333 190.453 23.2141 191.422 23.4193C191.061 24.9516 190.702 26.4838 190.333 28.0161C190.152 28.763 189.966 29.51 189.753 30.2515C189.55 30.9547 189.072 31.3596 188.336 31.4363C188.037 31.4664 187.736 31.5019 187.438 31.5019C184.127 31.5074 180.817 31.5156 177.506 31.4937C176.948 31.491 176.379 31.4062 175.84 31.2639C174.852 31.0012 174.206 30.3281 174.198 29.2966C174.19 28.4073 174.31 27.4962 174.504 26.6261C175.522 22.1197 176.581 17.6241 177.629 13.1232C177.725 12.71 177.862 12.3078 177.977 11.9083L177.979 11.9056Z" fill="white"/>
<path d="M174.742 6.38954C174.318 8.0285 173.913 9.66746 173.467 11.2927C173.314 11.8482 172.882 12.1765 172.302 12.2066C171.344 12.2559 170.386 12.2695 169.429 12.2887C168.583 12.3051 167.735 12.2832 166.89 12.3188C165.437 12.379 164.339 13.0439 163.866 14.442C163.412 15.791 163.064 17.1782 162.733 18.5654C162.457 19.7119 162.172 20.872 162.071 22.0431C161.932 23.6629 162.616 24.5467 164.241 24.6753C165.839 24.7984 167.461 24.6807 169.07 24.5932C169.743 24.5576 170.375 24.191 170.679 23.5753C171.013 22.905 171.505 22.9433 172.165 23.0226C172.075 23.4221 171.99 23.7942 171.905 24.1691C171.588 25.5426 171.276 26.9134 170.95 28.2843C170.4 30.6182 169.598 31.4117 167.229 31.6908C163.929 32.082 160.624 32.1258 157.343 31.4856C156.667 31.3542 155.994 31.1353 155.362 30.8617C153.343 29.9916 152.549 28.3198 152.456 26.2294C152.358 24.0077 152.744 21.8351 153.329 19.7146C154.051 17.0934 154.84 14.4858 155.767 11.9303C156.175 10.8084 156.903 9.76596 157.644 8.81104C159.056 6.99423 161.094 6.39228 163.294 6.35945C167.037 6.30746 170.78 6.33208 174.523 6.32661C174.575 6.32661 174.627 6.35397 174.742 6.38407V6.38954Z" fill="white"/>
<path d="M203.603 31.4911C200.648 31.4911 197.77 31.5266 194.897 31.4774C193.439 31.4528 192.968 30.766 193.25 29.3377C193.294 29.1161 193.346 28.8972 193.397 28.6783C194.859 22.2894 196.322 15.9032 197.781 9.51427C198.03 8.42254 197.852 8.02033 196.856 7.50866C196.498 7.32534 196.61 7.10919 196.67 6.8602C196.733 6.60026 196.706 6.31296 197.143 6.31844C199.852 6.34033 202.558 6.33212 205.267 6.34033C205.453 6.34033 205.642 6.3759 205.825 6.40873C206.95 6.59752 207.349 7.04078 207.133 8.14072C206.703 10.3324 206.194 12.5076 205.697 14.6856C204.651 19.2605 203.59 23.8326 202.544 28.4102C202.315 29.4116 202.512 29.833 203.412 30.2926C204.055 30.621 203.557 31.0642 203.606 31.4965L203.603 31.4911Z" fill="white"/>
<path d="M200.008 0.0882915C202.462 0.0882915 204.884 0.0280961 207.3 0.115653C208.433 0.156695 208.783 0.747705 208.589 1.88868C208.43 2.81077 208.216 3.72464 207.992 4.63578C207.959 4.76985 207.735 4.95318 207.598 4.95318C205.382 4.96959 203.165 4.99148 200.949 4.9477C199.666 4.92308 199.089 4.11044 199.365 2.86823C199.565 1.97077 199.767 1.07604 199.97 0.178585C199.981 0.126598 200.013 0.0800831 200.008 0.0910277V0.0882915Z" fill="white"/>
</svg>