<svg width="17" height="15" viewBox="0 0 17 15" fill="none" xmlns="http://www.w3.org/2000/svg">
<path fill-rule="evenodd" clip-rule="evenodd" d="M16.9998 7.9998C16.9998 8.26502 16.8945 8.51937 16.7069 8.70691C16.5194 8.89444 16.2651 8.9998 15.9998 8.9998H4.41383L8.70783 13.2918C8.80081 13.3848 8.87456 13.4952 8.92488 13.6166C8.9752 13.7381 9.0011 13.8683 9.0011 13.9998C9.0011 14.1313 8.9752 14.2615 8.92488 14.383C8.87456 14.5044 8.80081 14.6148 8.70783 14.7078C8.61486 14.8008 8.50448 14.8745 8.383 14.9248C8.26152 14.9752 8.13132 15.0011 7.99983 15.0011C7.86835 15.0011 7.73815 14.9752 7.61667 14.9248C7.49519 14.8745 7.38481 14.8008 7.29183 14.7078L1.29183 8.7078C1.19871 8.61491 1.12482 8.50456 1.07441 8.38307C1.024 8.26157 0.998047 8.13133 0.998047 7.9998C0.998047 7.86826 1.024 7.73802 1.07441 7.61653C1.12482 7.49504 1.19871 7.38469 1.29183 7.2918L7.29183 1.2918C7.47961 1.10403 7.73428 0.998535 7.99983 0.998535C8.26539 0.998535 8.52006 1.10403 8.70783 1.2918C8.89561 1.47957 9.0011 1.73425 9.0011 1.9998C9.0011 2.26535 8.89561 2.52003 8.70783 2.7078L4.41383 6.9998H15.9998C16.2651 6.9998 16.5194 7.10516 16.7069 7.29269C16.8945 7.48023 16.9998 7.73458 16.9998 7.9998Z" fill="#212529"/>
</svg>
