<svg width="18" height="20" viewBox="0 0 18 20" fill="none" xmlns="http://www.w3.org/2000/svg">
<path d="M8.99951 19.9992C9.66255 19.9992 10.2984 19.7358 10.7673 19.267C11.2361 18.7981 11.4995 18.1622 11.4995 17.4992H6.49951C6.49951 18.1622 6.7629 18.7981 7.23174 19.267C7.70059 19.7358 8.33647 19.9992 8.99951 19.9992ZM8.99951 2.3967L8.00326 2.59795C6.87321 2.8282 5.85742 3.44183 5.12783 4.33498C4.39823 5.22813 3.99964 6.34593 3.99951 7.4992C3.99951 8.2842 3.83201 10.2455 3.42576 12.1767C3.22576 13.1354 2.95576 14.1342 2.59701 14.9992H15.402C15.0433 14.1342 14.7745 13.1367 14.5733 12.1767C14.167 10.2455 13.9995 8.2842 13.9995 7.4992C13.9991 6.34615 13.6004 5.22864 12.8708 4.33574C12.1412 3.44285 11.1256 2.82941 9.99576 2.5992L8.99951 2.39545V2.3967ZM16.7745 14.9992C17.0533 15.558 17.3758 16.0005 17.7495 16.2492H0.249512C0.623262 16.0005 0.945762 15.558 1.22451 14.9992C2.34951 12.7492 2.74951 8.5992 2.74951 7.4992C2.74951 4.4742 4.89951 1.9492 7.75576 1.37295C7.73832 1.19914 7.75749 1.02361 7.81205 0.857668C7.86662 0.691727 7.95535 0.539064 8.07254 0.409524C8.18973 0.279985 8.33276 0.176445 8.49243 0.105582C8.65209 0.0347198 8.82483 -0.00189209 8.99951 -0.00189209C9.17419 -0.00189209 9.34694 0.0347198 9.5066 0.105582C9.66626 0.176445 9.8093 0.279985 9.92648 0.409524C10.0437 0.539064 10.1324 0.691727 10.187 0.857668C10.2415 1.02361 10.2607 1.19914 10.2433 1.37295C11.6561 1.66033 12.9262 2.42715 13.8386 3.54358C14.7509 4.66 15.2493 6.05742 15.2495 7.4992C15.2495 8.5992 15.6495 12.7492 16.7745 14.9992Z" fill="white"/>
</svg>
