<svg width="25" height="24" viewBox="0 0 25 24" fill="none" xmlns="http://www.w3.org/2000/svg">
<path d="M11.75 1.527C9.80596 1.66631 7.93906 2.34397 6.3583 3.48409C4.77754 4.62422 3.54531 6.18183 2.79956 7.98253C2.0538 9.78324 1.82396 11.756 2.13576 13.6799C2.44756 15.6038 3.28869 17.403 4.565 18.876L11.75 11.6895V1.527ZM13.25 1.527V11.25H22.973C22.7923 8.73107 21.7098 6.36162 19.9241 4.57589C18.1384 2.79015 15.7689 1.70774 13.25 1.527ZM22.973 12.75H12.8105L5.6255 19.935C7.09853 21.2109 8.89757 22.0516 10.8213 22.3632C12.745 22.6747 14.7174 22.4448 16.5178 21.6991C18.3183 20.9534 19.8757 19.7213 21.0157 18.1408C22.1558 16.5603 22.8335 14.6938 22.973 12.75ZM0.5 12C0.5 8.8174 1.76428 5.76516 4.01472 3.51472C6.26516 1.26428 9.3174 0 12.5 0C15.6826 0 18.7348 1.26428 20.9853 3.51472C23.2357 5.76516 24.5 8.8174 24.5 12C24.5 15.1826 23.2357 18.2348 20.9853 20.4853C18.7348 22.7357 15.6826 24 12.5 24C9.3174 24 6.26516 22.7357 4.01472 20.4853C1.76428 18.2348 0.5 15.1826 0.5 12Z" fill="white"/>
</svg>
