<svg width="15" height="14" viewBox="0 0 15 14" fill="none" xmlns="http://www.w3.org/2000/svg">
<path d="M14.4995 6.99902C14.4995 8.85554 13.762 10.636 12.4493 11.9488C11.1365 13.2615 9.35603 13.999 7.49951 13.999C5.643 13.999 3.86252 13.2615 2.54976 11.9488C1.23701 10.636 0.499512 8.85554 0.499512 6.99902C0.499512 5.14251 1.23701 3.36203 2.54976 2.04928C3.86252 0.736521 5.643 -0.000976562 7.49951 -0.000976562C9.35603 -0.000976562 11.1365 0.736521 12.4493 2.04928C13.762 3.36203 14.4995 5.14251 14.4995 6.99902ZM5.18426 4.06427C5.10211 3.98212 4.99069 3.93597 4.87451 3.93597C4.75833 3.93597 4.64691 3.98212 4.56476 4.06427C4.48261 4.14642 4.43646 4.25784 4.43646 4.37402C4.43646 4.4902 4.48261 4.60162 4.56476 4.68377L6.88089 6.99902L4.56476 9.31427C4.52408 9.35495 4.49182 9.40324 4.4698 9.45639C4.44779 9.50953 4.43646 9.5665 4.43646 9.62402C4.43646 9.68155 4.44779 9.73851 4.4698 9.79166C4.49182 9.84481 4.52408 9.8931 4.56476 9.93377C4.64691 10.0159 4.75833 10.0621 4.87451 10.0621C4.93204 10.0621 4.989 10.0507 5.04215 10.0287C5.09529 10.0067 5.14358 9.97445 5.18426 9.93377L7.49951 7.61765L9.81476 9.93377C9.85544 9.97445 9.90373 10.0067 9.95688 10.0287C10.01 10.0507 10.067 10.0621 10.1245 10.0621C10.182 10.0621 10.239 10.0507 10.2921 10.0287C10.3453 10.0067 10.3936 9.97445 10.4343 9.93377C10.4749 9.8931 10.5072 9.84481 10.5292 9.79166C10.5512 9.73851 10.5626 9.68155 10.5626 9.62402C10.5626 9.5665 10.5512 9.50953 10.5292 9.45639C10.5072 9.40324 10.4749 9.35495 10.4343 9.31427L8.11814 6.99902L10.4343 4.68377C10.4749 4.6431 10.5072 4.59481 10.5292 4.54166C10.5512 4.48851 10.5626 4.43155 10.5626 4.37402C10.5626 4.3165 10.5512 4.25953 10.5292 4.20639C10.5072 4.15324 10.4749 4.10495 10.4343 4.06427C10.3936 4.0236 10.3453 3.99133 10.2921 3.96932C10.239 3.9473 10.182 3.93597 10.1245 3.93597C10.067 3.93597 10.01 3.9473 9.95688 3.96932C9.90373 3.99133 9.85544 4.0236 9.81476 4.06427L7.49951 6.3804L5.18426 4.06427Z" fill="#6C757D"/>
</svg>
