<svg width="17" height="14" viewBox="0 0 17 14" fill="none" xmlns="http://www.w3.org/2000/svg">
<path d="M13.859 10.238C15.56 8.72 16.5 7 16.5 7C16.5 7 13.5 1.5 8.5 1.5C7.53959 1.5033 6.59005 1.70342 5.71 2.088L6.48 2.859C7.12744 2.62315 7.81095 2.50167 8.5 2.5C10.62 2.5 12.379 3.668 13.668 4.957C14.2884 5.58069 14.8445 6.26512 15.328 7C15.27 7.087 15.206 7.183 15.133 7.288C14.798 7.768 14.303 8.408 13.668 9.043C13.503 9.208 13.331 9.371 13.151 9.529L13.859 10.238Z" fill="#212529"/>
<path d="M11.797 8.176C12.0202 7.55184 12.0615 6.87714 11.9162 6.23042C11.7709 5.58369 11.4449 4.99152 10.9762 4.52282C10.5075 4.05411 9.91531 3.72814 9.26858 3.58283C8.62185 3.43752 7.94716 3.47884 7.323 3.702L8.146 4.525C8.53031 4.46999 8.92215 4.50524 9.29047 4.62796C9.65879 4.75068 9.99347 4.95749 10.268 5.23201C10.5425 5.50653 10.7493 5.8412 10.872 6.20953C10.9948 6.57785 11.03 6.96969 10.975 7.354L11.797 8.176ZM8.854 9.475L9.676 10.297C9.05184 10.5202 8.37715 10.5615 7.73042 10.4162C7.08369 10.2709 6.49153 9.94488 6.02282 9.47618C5.55411 9.00747 5.22814 8.4153 5.08283 7.76858C4.93752 7.12185 4.97885 6.44715 5.202 5.823L6.025 6.646C5.96999 7.03031 6.00524 7.42215 6.12796 7.79047C6.25068 8.15879 6.45749 8.49347 6.73201 8.76799C7.00653 9.0425 7.34121 9.24932 7.70953 9.37203C8.07785 9.49475 8.46969 9.53 8.854 9.475Z" fill="#212529"/>
<path d="M3.85 4.47C3.67 4.63 3.497 4.792 3.332 4.957C2.71165 5.58069 2.15552 6.26512 1.672 7L1.867 7.288C2.202 7.768 2.697 8.408 3.332 9.043C4.621 10.332 6.381 11.5 8.5 11.5C9.216 11.5 9.89 11.367 10.52 11.14L11.29 11.912C10.4099 12.2965 9.4604 12.4967 8.5 12.5C3.5 12.5 0.5 7 0.5 7C0.5 7 1.439 5.279 3.141 3.762L3.849 4.471L3.85 4.47ZM14.146 13.354L2.146 1.354L2.854 0.645996L14.854 12.646L14.146 13.354Z" fill="#212529"/>
</svg>
