<svg width="25" height="24" viewBox="0 0 25 24" fill="none" xmlns="http://www.w3.org/2000/svg">
<path d="M17.0029 3.0011C17.0029 2.60327 17.161 2.22174 17.4423 1.94044C17.7236 1.65913 18.1051 1.5011 18.5029 1.5011H21.5029C21.9008 1.5011 22.2823 1.65913 22.5636 1.94044C22.8449 2.22174 23.0029 2.60327 23.0029 3.0011V21.0011H23.7529C23.9518 21.0011 24.1426 21.0801 24.2833 21.2208C24.4239 21.3614 24.5029 21.5522 24.5029 21.7511C24.5029 21.95 24.4239 22.1408 24.2833 22.2814C24.1426 22.4221 23.9518 22.5011 23.7529 22.5011H1.25293C1.05402 22.5011 0.863252 22.4221 0.7226 22.2814C0.581947 22.1408 0.50293 21.95 0.50293 21.7511C0.50293 21.5522 0.581947 21.3614 0.7226 21.2208C0.863252 21.0801 1.05402 21.0011 1.25293 21.0011H2.00293V16.5011C2.00293 16.1033 2.16096 15.7217 2.44227 15.4404C2.72357 15.1591 3.1051 15.0011 3.50293 15.0011H6.50293C6.90075 15.0011 7.28229 15.1591 7.56359 15.4404C7.84489 15.7217 8.00293 16.1033 8.00293 16.5011V21.0011H9.50293V10.5011C9.50293 10.1033 9.66096 9.72174 9.94227 9.44044C10.2236 9.15913 10.6051 9.0011 11.0029 9.0011H14.0029C14.4008 9.0011 14.7823 9.15913 15.0636 9.44044C15.3449 9.72174 15.5029 10.1033 15.5029 10.5011V21.0011H17.0029V3.0011ZM18.5029 21.0011H21.5029V3.0011H18.5029V21.0011ZM14.0029 21.0011V10.5011H11.0029V21.0011H14.0029ZM6.50293 21.0011V16.5011H3.50293V21.0011H6.50293Z" fill="white"/>
</svg>
