<svg width="17" height="11" viewBox="0 0 17 11" fill="none" xmlns="http://www.w3.org/2000/svg">
<path d="M16.5 5.5C16.5 5.5 13.5 0 8.5 0C3.5 0 0.5 5.5 0.5 5.5C0.5 5.5 3.5 11 8.5 11C13.5 11 16.5 5.5 16.5 5.5ZM1.673 5.5C2.15651 4.76512 2.71264 4.08069 3.333 3.457C4.62 2.168 6.38 1 8.5 1C10.62 1 12.379 2.168 13.668 3.457C14.2884 4.08069 14.8445 4.76512 15.328 5.5C15.27 5.587 15.206 5.683 15.133 5.788C14.798 6.268 14.303 6.908 13.668 7.543C12.379 8.832 10.619 10 8.5 10C6.38 10 4.621 8.832 3.332 7.543C2.71165 6.91931 2.15652 6.23487 1.673 5.5Z" fill="#212529"/>
<path d="M8.5 3C7.83696 3 7.20107 3.26339 6.73223 3.73223C6.26339 4.20107 6 4.83696 6 5.5C6 6.16304 6.26339 6.79893 6.73223 7.26777C7.20107 7.73661 7.83696 8 8.5 8C9.16304 8 9.79893 7.73661 10.2678 7.26777C10.7366 6.79893 11 6.16304 11 5.5C11 4.83696 10.7366 4.20107 10.2678 3.73223C9.79893 3.26339 9.16304 3 8.5 3ZM5 5.5C5 4.57174 5.36875 3.6815 6.02513 3.02513C6.6815 2.36875 7.57174 2 8.5 2C9.42826 2 10.3185 2.36875 10.9749 3.02513C11.6313 3.6815 12 4.57174 12 5.5C12 6.42826 11.6313 7.3185 10.9749 7.97487C10.3185 8.63125 9.42826 9 8.5 9C7.57174 9 6.6815 8.63125 6.02513 7.97487C5.36875 7.3185 5 6.42826 5 5.5Z" fill="#212529"/>
</svg>
