<svg width="25" height="24" viewBox="0 0 25 24" fill="none" xmlns="http://www.w3.org/2000/svg">
<path fill-rule="evenodd" clip-rule="evenodd" d="M8.75293 15.3761H5.00293V16.8761H8.75293V15.3761ZM20.0029 15.3761H16.2529V16.8761H20.0029V15.3761ZM1.25293 5.20989L12.5029 0.692871L23.7529 5.20989V6.82628L12.5029 2.30931L1.25293 6.82628V5.20989ZM21.479 11.9755H21.5029C21.9006 11.9759 22.2819 12.1341 22.5631 12.4153C22.8443 12.6965 23.0025 13.0778 23.0029 13.4755V18.7255C23.0025 19.1232 22.8443 19.5045 22.5631 19.7857C22.2819 20.0669 21.9006 20.225 21.5029 20.2255V22.1261C21.5026 22.4244 21.3839 22.7103 21.173 22.9212C20.9621 23.1321 20.6762 23.2507 20.3779 23.2511H17.7529C17.4547 23.2507 17.1687 23.1321 16.9578 22.9212C16.7469 22.7103 16.6283 22.4244 16.6279 22.1261V20.2255H8.37793V22.1261C8.37758 22.4244 8.25894 22.7103 8.04804 22.9212C7.83714 23.1321 7.55119 23.2507 7.25293 23.2511H4.62793C4.32967 23.2507 4.04372 23.1321 3.83282 22.9212C3.62191 22.7103 3.50328 22.4244 3.50293 22.1261V20.2255C3.10524 20.225 2.72397 20.0669 2.44276 19.7857C2.16155 19.5045 2.00338 19.1232 2.00293 18.7255V13.4755C2.00338 13.0778 2.16155 12.6965 2.44276 12.4153C2.72397 12.1341 3.10524 11.9759 3.50293 11.9755H3.52688L5.42185 7.71203C5.59886 7.31451 5.88725 6.97679 6.25213 6.7397C6.61702 6.50262 7.04278 6.37632 7.47793 6.37609H17.5279C17.9631 6.37629 18.3889 6.50257 18.7538 6.73966C19.1188 6.97675 19.4072 7.31448 19.5842 7.71203L21.479 11.9755ZM7.06922 7.99723C6.94755 8.07626 6.85139 8.18886 6.79238 8.3214L5.16835 11.9754H19.8373L18.2133 8.3214C18.1543 8.1889 18.0582 8.07632 17.9365 7.99729C17.8149 7.91826 17.673 7.87616 17.5279 7.87609H7.47793C7.33285 7.87612 7.19088 7.9182 7.06922 7.99723ZM5.00293 21.7511H6.87793V20.2255H5.00293V21.7511ZM18.1279 21.7511H20.0029V20.2255H18.1279V21.7511ZM3.50293 18.7255H21.5029V13.4755H3.50293V18.7255Z" fill="white"/>
</svg>
