<svg width="25" height="24" viewBox="0 0 25 24" fill="none" xmlns="http://www.w3.org/2000/svg">
<path d="M13.0339 1.7201C12.9643 1.65025 12.8815 1.59484 12.7904 1.55703C12.6993 1.51922 12.6016 1.49976 12.5029 1.49976C12.4043 1.49976 12.3066 1.51922 12.2155 1.55703C12.1244 1.59484 12.0416 1.65025 11.9719 1.7201L2.97193 10.7201C2.90233 10.7899 2.84716 10.8727 2.80958 10.9638C2.77201 11.0549 2.75275 11.1525 2.75293 11.2511V21.7511C2.75293 21.95 2.83195 22.1408 2.9726 22.2814C3.11325 22.4221 3.30402 22.5011 3.50293 22.5011H10.2529C10.4518 22.5011 10.6426 22.4221 10.7833 22.2814C10.9239 22.1408 11.0029 21.95 11.0029 21.7511V15.7511H14.0029V21.7511C14.0029 21.95 14.0819 22.1408 14.2226 22.2814C14.3633 22.4221 14.554 22.5011 14.7529 22.5011H21.5029C21.7018 22.5011 21.8926 22.4221 22.0333 22.2814C22.1739 22.1408 22.2529 21.95 22.2529 21.7511V11.2511C22.2531 11.1525 22.2339 11.0549 22.1963 10.9638C22.1587 10.8727 22.1035 10.7899 22.0339 10.7201L20.0029 8.6906V3.7511C20.0029 3.55218 19.9239 3.36142 19.7833 3.22077C19.6426 3.08011 19.4518 3.0011 19.2529 3.0011H17.7529C17.554 3.0011 17.3633 3.08011 17.2226 3.22077C17.0819 3.36142 17.0029 3.55218 17.0029 3.7511V5.6906L13.0339 1.7201ZM4.25293 21.0011V11.5616L12.5029 3.3116L20.7529 11.5616V21.0011H15.5029V15.0011C15.5029 14.8022 15.4239 14.6114 15.2833 14.4708C15.1426 14.3301 14.9518 14.2511 14.7529 14.2511H10.2529C10.054 14.2511 9.86325 14.3301 9.7226 14.4708C9.58195 14.6114 9.50293 14.8022 9.50293 15.0011V21.0011H4.25293Z" fill="white"/>
</svg>
