<svg width="25" height="25" viewBox="0 0 25 25" fill="none" xmlns="http://www.w3.org/2000/svg">
<rect width="24" height="24" transform="translate(0 0.5)" fill="white" fill-opacity="0.01"/>
<path d="M24.003 12.5745C24.003 5.90551 18.63 0.499512 12.003 0.499512C5.373 0.501012 0 5.90551 0 12.576C0 18.6015 4.389 23.5965 10.125 24.5025V16.065H7.08V12.576H10.128V9.91351C10.128 6.88801 11.9205 5.21701 14.661 5.21701C15.975 5.21701 17.3475 5.45251 17.3475 5.45251V8.42251H15.834C14.3445 8.42251 13.8795 9.35401 13.8795 10.3095V12.5745H17.2065L16.6755 16.0635H13.878V24.501C19.614 23.595 24.003 18.6 24.003 12.5745Z" fill="white"/>
</svg>
