<svg width="20" height="23" viewBox="0 0 20 23" fill="none" xmlns="http://www.w3.org/2000/svg">
<path d="M19.2808 17.924C18.933 18.7275 18.5213 19.4672 18.0442 20.1472C17.394 21.0743 16.8616 21.716 16.4513 22.0724C15.8153 22.6573 15.1338 22.9568 14.4041 22.9739C13.8802 22.9739 13.2485 22.8248 12.513 22.5224C11.7752 22.2214 11.0972 22.0724 10.4772 22.0724C9.82695 22.0724 9.12959 22.2214 8.38368 22.5224C7.63662 22.8248 7.03481 22.9824 6.57468 22.998C5.87491 23.0278 5.1774 22.7197 4.48118 22.0724C4.03681 21.6848 3.48099 21.0204 2.81515 20.0791C2.10075 19.0739 1.51342 17.9084 1.05329 16.5795C0.560506 15.1442 0.313477 13.7543 0.313477 12.4087C0.313477 10.8673 0.646541 9.53789 1.31366 8.42385C1.83796 7.529 2.53546 6.82312 3.40844 6.30493C4.28142 5.78674 5.22468 5.52267 6.24048 5.50578C6.7963 5.50578 7.52518 5.6777 8.43095 6.01559C9.33417 6.35462 9.91412 6.52655 10.1684 6.52655C10.3585 6.52655 11.0028 6.32552 12.0949 5.92473C13.1278 5.55305 13.9995 5.39916 14.7136 5.45978C16.6487 5.61595 18.1024 6.37876 19.0693 7.75303C17.3386 8.80163 16.4826 10.2703 16.4996 12.1544C16.5152 13.622 17.0476 14.8432 18.0939 15.8129C18.5681 16.2629 19.0977 16.6107 19.6868 16.8578C19.5591 17.2283 19.4242 17.5832 19.2808 17.924ZM14.8428 0.460131C14.8428 1.61039 14.4226 2.68439 13.5849 3.67847C12.5741 4.86023 11.3514 5.54311 10.0256 5.43536C10.0087 5.29736 9.99888 5.15213 9.99888 4.99951C9.99888 3.89526 10.4796 2.71349 11.3333 1.74724C11.7595 1.25801 12.3015 0.851218 12.9588 0.526714C13.6147 0.207053 14.2352 0.0302728 14.8187 0C14.8357 0.153772 14.8428 0.307554 14.8428 0.460116V0.460131Z" fill="white"/>
</svg>
