<svg width="25" height="24" viewBox="0 0 25 24" fill="none" xmlns="http://www.w3.org/2000/svg">
<path fill-rule="evenodd" clip-rule="evenodd" d="M24.2284 0.170516C24.3143 0.24092 24.3835 0.329515 24.4309 0.429904C24.4784 0.530292 24.503 0.63997 24.5029 0.751016V21.751C24.5028 21.9243 24.4427 22.0923 24.3328 22.2263C24.2228 22.3603 24.0699 22.452 23.8999 22.486L16.3999 23.986C16.3029 24.0053 16.203 24.0053 16.1059 23.986L8.75293 22.516L1.39993 23.986C1.29116 24.0078 1.17893 24.0051 1.07131 23.9782C0.963693 23.9514 0.863374 23.901 0.777579 23.8307C0.691784 23.7604 0.62265 23.6719 0.575157 23.5717C0.527665 23.4715 0.502997 23.3619 0.50293 23.251V2.25102C0.503034 2.0777 0.563164 1.90976 0.673095 1.77577C0.783026 1.64177 0.935972 1.54999 1.10593 1.51602L8.60593 0.0160164C8.70297 -0.00337971 8.80289 -0.00337971 8.89993 0.0160164L16.2529 1.48602L23.6059 0.0160164C23.7147 -0.00585988 23.8269 -0.00334961 23.9345 0.0233664C24.0422 0.0500824 24.1425 0.100339 24.2284 0.170516ZM15.5029 2.86602L9.50293 1.66602V21.136L15.5029 22.336V2.86602ZM17.0029 22.336L23.0029 21.136V1.66602L17.0029 2.86602V22.336ZM8.00293 21.136V1.66602L2.00293 2.86602V22.336L8.00293 21.136Z" fill="white"/>
</svg>
