<svg width="24" height="24" viewBox="0 0 24 24" fill="none" xmlns="http://www.w3.org/2000/svg">
<path d="M13.4009 1.09162C13.0364 -0.363384 10.9709 -0.363384 10.6049 1.09162L10.4984 1.52062C10.4361 1.76993 10.3082 1.99802 10.128 2.18123C9.94783 2.36443 9.72188 2.49608 9.47363 2.5625C9.22538 2.62893 8.96388 2.62771 8.71627 2.55898C8.46865 2.49024 8.24394 2.35649 8.06545 2.17162L7.75795 1.85512C6.71545 0.776616 4.92595 1.81012 5.33845 3.25162L5.45845 3.67762C5.52896 3.92443 5.53221 4.18562 5.46787 4.43411C5.40353 4.68261 5.27394 4.9094 5.09251 5.09098C4.91107 5.27257 4.6844 5.40236 4.43595 5.46691C4.18751 5.53146 3.92633 5.52842 3.67945 5.45812L3.25345 5.33662C1.81345 4.92412 0.778447 6.71362 1.85695 7.75612L2.17345 8.06362C2.35833 8.24211 2.49207 8.46682 2.56081 8.71444C2.62954 8.96205 2.63076 9.22355 2.56434 9.4718C2.49791 9.72005 2.36627 9.946 2.18306 10.1262C1.99985 10.3064 1.77176 10.4343 1.52245 10.4966L1.09345 10.6031C-0.361553 10.9676 -0.361553 13.0331 1.09345 13.3991L1.52245 13.5056C1.77176 13.5679 1.99985 13.6958 2.18306 13.876C2.36627 14.0562 2.49791 14.2822 2.56434 14.5304C2.63076 14.7787 2.62954 15.0402 2.56081 15.2878C2.49207 15.5354 2.35833 15.7601 2.17345 15.9386L1.85695 16.2461C0.778447 17.2886 1.81195 19.0781 3.25345 18.6656L3.67945 18.5456C3.92642 18.475 4.1878 18.4717 4.43647 18.5361C4.68515 18.6005 4.91207 18.7302 5.09371 18.9119C5.27535 19.0935 5.4051 19.3204 5.46949 19.5691C5.53389 19.8178 5.53059 20.0791 5.45995 20.3261L5.33845 20.7506C4.92595 22.1906 6.71545 23.2256 7.75795 22.1471L8.06545 21.8306C8.24394 21.6457 8.46865 21.512 8.71627 21.4433C8.96388 21.3745 9.22538 21.3733 9.47363 21.4397C9.72188 21.5062 9.94783 21.6378 10.128 21.821C10.3082 22.0042 10.4361 22.2323 10.4984 22.4816L10.6049 22.9106C10.9694 24.3656 13.0349 24.3656 13.4009 22.9106L13.5074 22.4816C13.5698 22.2323 13.6977 22.0042 13.8779 21.821C14.0581 21.6378 14.284 21.5062 14.5323 21.4397C14.7805 21.3733 15.042 21.3745 15.2896 21.4433C15.5372 21.512 15.762 21.6457 15.9404 21.8306L16.2479 22.1471C17.2904 23.2256 19.0799 22.1921 18.6674 20.7506L18.5474 20.3246C18.4768 20.0776 18.4735 19.8163 18.5379 19.5676C18.6023 19.3189 18.732 19.092 18.9137 18.9104C19.0953 18.7287 19.3222 18.599 19.5709 18.5346C19.8196 18.4702 20.081 18.4735 20.3279 18.5441L20.7524 18.6656C22.1924 19.0781 23.2274 17.2886 22.1489 16.2461L21.8324 15.9386C21.6476 15.7601 21.5138 15.5354 21.4451 15.2878C21.3764 15.0402 21.3751 14.7787 21.4416 14.5304C21.508 14.2822 21.6396 14.0562 21.8228 13.876C22.006 13.6958 22.2341 13.5679 22.4834 13.5056L22.9124 13.3991C24.3674 13.0346 24.3674 10.9691 22.9124 10.6031L22.4834 10.4966C22.2341 10.4343 22.006 10.3064 21.8228 10.1262C21.6396 9.946 21.508 9.72005 21.4416 9.4718C21.3751 9.22355 21.3764 8.96205 21.4451 8.71444C21.5138 8.46682 21.6476 8.24211 21.8324 8.06362L22.1489 7.75612C23.2274 6.71362 22.1939 4.92412 20.7524 5.33662L20.3264 5.45662C20.0796 5.52713 19.8184 5.53038 19.57 5.46604C19.3214 5.4017 19.0947 5.27211 18.9131 5.09067C18.7315 4.90924 18.6017 4.68257 18.5372 4.43412C18.4726 4.18568 18.4756 3.92449 18.5459 3.67762L18.6674 3.25162C19.0799 1.81162 17.2904 0.776616 16.2479 1.85512L15.9404 2.17162C15.762 2.35649 15.5372 2.49024 15.2896 2.55898C15.042 2.62771 14.7805 2.62893 14.5323 2.5625C14.284 2.49608 14.0581 2.36443 13.8779 2.18123C13.6977 1.99802 13.5698 1.76993 13.5074 1.52062L13.4009 1.09162ZM12.0029 19.4966C11.0096 19.5107 10.0234 19.3272 9.10157 18.9567C8.17976 18.5863 7.34077 18.0364 6.63335 17.3389C5.92593 16.6414 5.36419 15.8103 4.98077 14.8938C4.59735 13.9773 4.39991 12.9938 4.39991 12.0004C4.39991 11.0069 4.59735 10.0234 4.98077 9.10691C5.36419 8.19044 5.92593 7.35931 6.63335 6.66183C7.34077 5.96434 8.17976 5.41441 9.10157 5.044C10.0234 4.67358 11.0096 4.49006 12.0029 4.50412C13.9913 4.50412 15.8982 5.29398 17.3041 6.69994C18.7101 8.1059 19.4999 10.0128 19.4999 12.0011C19.4999 13.9894 18.7101 15.8963 17.3041 17.3023C15.8982 18.7083 13.9913 19.4981 12.0029 19.4981V19.4966Z" fill="white"/>
</svg>
