<svg width="61" height="60" viewBox="0 0 61 60" fill="none" xmlns="http://www.w3.org/2000/svg">
<ellipse cx="30.5" cy="29.5491" rx="30" ry="29.5491" fill="url(#paint0_linear_294_468590)"/>
<ellipse cx="30.5" cy="31.1434" rx="30" ry="28.8566" fill="url(#paint1_linear_294_468590)"/>
<path d="M55.1998 31.3742C55.1998 44.5945 44.0523 55.3445 30.2598 55.3445C16.4674 55.3445 5.31982 44.5945 5.31982 31.3742C5.31982 18.1538 16.4674 7.40381 30.2598 7.40381C44.0523 7.40381 55.1998 18.1538 55.1998 31.3742Z" stroke="white"/>
<g clip-path="url(#clip0_294_468590)">
<path d="M26.75 33.7665C26.864 35.1975 27.995 36.312 30.023 36.444V37.5H30.923V36.4365C33.023 36.2895 34.25 35.1675 34.25 33.5385C34.25 32.058 33.311 31.2945 31.6325 30.8985L30.923 30.7305V27.855C31.823 27.957 32.396 28.449 32.534 29.13H34.112C33.998 27.7515 32.816 26.673 30.923 26.556V25.5H30.023V26.5785C28.2305 26.754 27.008 27.8325 27.008 29.358C27.008 30.708 27.917 31.566 29.4275 31.9185L30.023 32.0655V35.1165C29.1005 34.977 28.49 34.4715 28.352 33.7665H26.75ZM30.0155 30.5175C29.1305 30.312 28.6505 29.8935 28.6505 29.2635C28.6505 28.5585 29.168 28.0305 30.023 27.876V30.516L30.0155 30.5175ZM31.0535 32.307C32.129 32.556 32.6255 32.9595 32.6255 33.672C32.6255 34.485 32.0075 35.043 30.923 35.145V32.277L31.0535 32.307Z" fill="white"/>
<path d="M30.5 42C27.7152 42 25.0445 40.8938 23.0754 38.9246C21.1062 36.9555 20 34.2848 20 31.5C20 28.7152 21.1062 26.0445 23.0754 24.0754C25.0445 22.1062 27.7152 21 30.5 21C33.2848 21 35.9555 22.1062 37.9246 24.0754C39.8938 26.0445 41 28.7152 41 31.5C41 34.2848 39.8938 36.9555 37.9246 38.9246C35.9555 40.8938 33.2848 42 30.5 42ZM30.5 43.5C33.6826 43.5 36.7348 42.2357 38.9853 39.9853C41.2357 37.7348 42.5 34.6826 42.5 31.5C42.5 28.3174 41.2357 25.2652 38.9853 23.0147C36.7348 20.7643 33.6826 19.5 30.5 19.5C27.3174 19.5 24.2652 20.7643 22.0147 23.0147C19.7643 25.2652 18.5 28.3174 18.5 31.5C18.5 34.6826 19.7643 37.7348 22.0147 39.9853C24.2652 42.2357 27.3174 43.5 30.5 43.5Z" fill="white"/>
<path d="M30.5 39.75C28.312 39.75 26.2135 38.8808 24.6664 37.3336C23.1192 35.7865 22.25 33.688 22.25 31.5C22.25 29.312 23.1192 27.2135 24.6664 25.6664C26.2135 24.1192 28.312 23.25 30.5 23.25C32.688 23.25 34.7865 24.1192 36.3336 25.6664C37.8808 27.2135 38.75 29.312 38.75 31.5C38.75 33.688 37.8808 35.7865 36.3336 37.3336C34.7865 38.8808 32.688 39.75 30.5 39.75ZM30.5 40.5C31.6819 40.5 32.8522 40.2672 33.9442 39.8149C35.0361 39.3626 36.0282 38.6997 36.864 37.864C37.6997 37.0282 38.3626 36.0361 38.8149 34.9442C39.2672 33.8522 39.5 32.6819 39.5 31.5C39.5 30.3181 39.2672 29.1478 38.8149 28.0558C38.3626 26.9639 37.6997 25.9718 36.864 25.136C36.0282 24.3003 35.0361 23.6374 33.9442 23.1851C32.8522 22.7328 31.6819 22.5 30.5 22.5C28.1131 22.5 25.8239 23.4482 24.136 25.136C22.4482 26.8239 21.5 29.1131 21.5 31.5C21.5 33.8869 22.4482 36.1761 24.136 37.864C25.8239 39.5518 28.1131 40.5 30.5 40.5Z" fill="white"/>
</g>
<defs>
<linearGradient id="paint0_linear_294_468590" x1="-0.940001" y1="34.0604" x2="64.3397" y2="33.1386" gradientUnits="userSpaceOnUse">
<stop stop-color="#D88018"/>
<stop offset="0.498649" stop-color="#FECF98"/>
<stop offset="0.9999" stop-color="#D88018"/>
</linearGradient>
<linearGradient id="paint1_linear_294_468590" x1="30.5" y1="2.28686" x2="28.0214" y2="60.0086" gradientUnits="userSpaceOnUse">
<stop offset="0.0538197" stop-color="#FEAE4F"/>
<stop offset="1" stop-color="#F89F36"/>
</linearGradient>
<clipPath id="clip0_294_468590">
<rect width="24" height="24" fill="white" transform="translate(18.5 19.5)"/>
</clipPath>
</defs>
</svg>
