<svg width="25" height="24" viewBox="0 0 25 24" fill="none" xmlns="http://www.w3.org/2000/svg">
<path d="M12.5029 7.13208C11.8635 7.13208 11.2304 7.25802 10.6396 7.50271C10.0489 7.7474 9.51214 8.10605 9.06001 8.55818C8.60788 9.01031 8.24923 9.54706 8.00454 10.1378C7.75985 10.7285 7.63391 11.3617 7.63391 12.0011C7.63391 12.6405 7.75985 13.2736 8.00454 13.8644C8.24923 14.4551 8.60788 14.9919 9.06001 15.444C9.51214 15.8961 10.0489 16.2548 10.6396 16.4995C11.2304 16.7441 11.8635 16.8701 12.5029 16.8701C13.7943 16.8701 15.0327 16.3571 15.9458 15.444C16.8589 14.5309 17.3719 13.2924 17.3719 12.0011C17.3719 10.7097 16.8589 9.47129 15.9458 8.55818C15.0327 7.64506 13.7943 7.13208 12.5029 7.13208ZM9.13391 12.0011C9.13391 11.1076 9.48886 10.2506 10.1207 9.61884C10.7525 8.98703 11.6094 8.63208 12.5029 8.63208C13.3964 8.63208 14.2533 8.98703 14.8852 9.61884C15.517 10.2506 15.8719 11.1076 15.8719 12.0011C15.8719 12.8946 15.517 13.7515 14.8852 14.3833C14.2533 15.0151 13.3964 15.3701 12.5029 15.3701C11.6094 15.3701 10.7525 15.0151 10.1207 14.3833C9.48886 13.7515 9.13391 12.8946 9.13391 12.0011Z" fill="white"/>
<path d="M15.1969 2.01558C14.4064 -0.669419 10.5994 -0.669419 9.80891 2.01558L9.66791 2.49408C9.61271 2.68151 9.51626 2.85421 9.38564 2.99952C9.25502 3.14483 9.09353 3.25907 8.91302 3.33386C8.73252 3.40865 8.53756 3.4421 8.34244 3.43176C8.14733 3.42141 7.957 3.36754 7.78541 3.27408L7.34741 3.03408C4.88741 1.69608 2.19791 4.38708 3.53741 6.84558L3.77591 7.28358C3.86937 7.45517 3.92325 7.6455 3.93359 7.84061C3.94393 8.03573 3.91048 8.23069 3.83569 8.41119C3.7609 8.5917 3.64666 8.75319 3.50135 8.88381C3.35604 9.01443 3.18334 9.11088 2.99591 9.16608L2.51741 9.30708C-0.167588 10.0976 -0.167588 13.9046 2.51741 14.6951L2.99591 14.8361C3.18334 14.8913 3.35604 14.9877 3.50135 15.1184C3.64666 15.249 3.7609 15.4105 3.83569 15.591C3.91048 15.7715 3.94393 15.9664 3.93359 16.1616C3.92325 16.3567 3.86937 16.547 3.77591 16.7186L3.53591 17.1566C2.19791 19.6166 4.88741 22.3076 7.34741 20.9666L7.78541 20.7281C7.957 20.6346 8.14733 20.5807 8.34244 20.5704C8.53756 20.5601 8.73252 20.5935 8.91302 20.6683C9.09353 20.7431 9.25502 20.8573 9.38564 21.0026C9.51626 21.148 9.61271 21.3207 9.66791 21.5081L9.80891 21.9866C10.5994 24.6716 14.4064 24.6716 15.1969 21.9866L15.3379 21.5081C15.3931 21.3207 15.4896 21.148 15.6202 21.0026C15.7508 20.8573 15.9123 20.7431 16.0928 20.6683C16.2733 20.5935 16.4683 20.5601 16.6634 20.5704C16.8585 20.5807 17.0488 20.6346 17.2204 20.7281L17.6584 20.9681C20.1184 22.3076 22.8094 19.6151 21.4684 17.1566L21.2299 16.7186C21.1365 16.547 21.0826 16.3567 21.0722 16.1616C21.0619 15.9664 21.0953 15.7715 21.1701 15.591C21.2449 15.4105 21.3592 15.249 21.5045 15.1184C21.6498 14.9877 21.8225 14.8913 22.0099 14.8361L22.4884 14.6951C25.1734 13.9046 25.1734 10.0976 22.4884 9.30708L22.0099 9.16608C21.8225 9.11088 21.6498 9.01443 21.5045 8.88381C21.3592 8.75319 21.2449 8.5917 21.1701 8.41119C21.0953 8.23069 21.0619 8.03573 21.0722 7.84061C21.0826 7.6455 21.1365 7.45517 21.2299 7.28358L21.4699 6.84558C22.8094 4.38558 20.1169 1.69608 17.6584 3.03558L17.2204 3.27408C17.0488 3.36754 16.8585 3.42141 16.6634 3.43176C16.4683 3.4421 16.2733 3.40865 16.0928 3.33386C15.9123 3.25907 15.7508 3.14483 15.6202 2.99952C15.4896 2.85421 15.3931 2.68151 15.3379 2.49408L15.1969 2.01558ZM11.2474 2.44008C11.6164 1.18758 13.3894 1.18758 13.7584 2.44008L13.8994 2.91858C14.0179 3.32071 14.225 3.69121 14.5053 4.00293C14.7856 4.31465 15.1322 4.55968 15.5195 4.72005C15.9069 4.88043 16.3252 4.95208 16.7438 4.92977C17.1625 4.90745 17.5708 4.79173 17.9389 4.59108L18.3754 4.35108C19.5214 3.72858 20.7754 4.98108 20.1514 6.12858L19.9129 6.56658C19.7126 6.93472 19.5971 7.34302 19.5751 7.76156C19.553 8.18011 19.6248 8.59829 19.7853 8.98546C19.9458 9.37263 20.1909 9.71899 20.5027 9.99915C20.8144 10.2793 21.1849 10.4862 21.5869 10.6046L22.0639 10.7456C23.3164 11.1146 23.3164 12.8876 22.0639 13.2566L21.5854 13.3976C21.1833 13.5161 20.8128 13.7231 20.5011 14.0035C20.1893 14.2838 19.9443 14.6304 19.7839 15.0177C19.6236 15.405 19.5519 15.8234 19.5742 16.242C19.5965 16.6606 19.7123 17.069 19.9129 17.4371L20.1529 17.8736C20.7754 19.0196 19.5229 20.2736 18.3754 19.6496L17.9389 19.4111C17.5707 19.2105 17.1623 19.0948 16.7436 19.0726C16.3248 19.0503 15.9065 19.1221 15.5191 19.2827C15.1317 19.4432 14.7852 19.6884 14.5049 20.0003C14.2247 20.3122 14.0178 20.6828 13.8994 21.0851L13.7584 21.5621C13.3894 22.8146 11.6164 22.8146 11.2474 21.5621L11.1064 21.0836C10.9878 20.6817 10.7808 20.3114 10.5006 19.9998C10.2204 19.6882 9.874 19.4433 9.48685 19.283C9.0997 19.1226 8.68157 19.0509 8.26312 19.0731C7.84466 19.0952 7.43645 19.2107 7.06841 19.4111L6.63041 19.6511C5.48441 20.2736 4.23041 19.0211 4.85441 17.8736L5.09291 17.4371C5.29384 17.0689 5.40979 16.6604 5.43225 16.2416C5.45472 15.8228 5.38312 15.4043 5.22273 15.0167C5.06233 14.6292 4.8172 14.2825 4.50533 14.0021C4.19346 13.7216 3.82275 13.5146 3.42041 13.3961L2.94191 13.2551C1.68941 12.8861 1.68941 11.1131 2.94191 10.7441L3.42041 10.6031C3.82212 10.4844 4.19222 10.2775 4.50363 9.99736C4.81503 9.71724 5.05986 9.37102 5.22019 8.98407C5.38053 8.59711 5.45231 8.17919 5.43029 7.76091C5.40826 7.34263 5.29299 6.93456 5.09291 6.56658L4.85291 6.12858C4.23041 4.98258 5.48291 3.72858 6.63041 4.35258L7.06841 4.59108C7.43645 4.79144 7.84466 4.90694 8.26312 4.92911C8.68157 4.95128 9.0997 4.87956 9.48685 4.71921C9.874 4.55885 10.2204 4.31392 10.5006 4.00236C10.7808 3.6908 10.9878 3.3205 11.1064 2.91858L11.2474 2.44008Z" fill="white"/>
</svg>
