<svg width="56" height="56" viewBox="0 0 56 56" fill="none" xmlns="http://www.w3.org/2000/svg">
<rect x="4" y="4" width="48" height="48" rx="24" fill="#96F6CA"/>
<path d="M33.8537 23.6459C33.9002 23.6924 33.9372 23.7475 33.9624 23.8083C33.9876 23.869 34.0005 23.9341 34.0005 23.9999C34.0005 24.0657 33.9876 24.1308 33.9624 24.1916C33.9372 24.2523 33.9002 24.3075 33.8537 24.3539L26.8537 31.3539C26.8072 31.4005 26.752 31.4374 26.6913 31.4626C26.6305 31.4878 26.5654 31.5008 26.4997 31.5008C26.4339 31.5008 26.3688 31.4878 26.308 31.4626C26.2473 31.4374 26.1921 31.4005 26.1457 31.3539L22.6457 27.8539C22.5518 27.76 22.499 27.6327 22.499 27.4999C22.499 27.3671 22.5518 27.2398 22.6457 27.1459C22.7395 27.052 22.8669 26.9993 22.9997 26.9993C23.1324 26.9993 23.2598 27.052 23.3537 27.1459L26.4997 30.2929L33.1457 23.6459C33.1921 23.5994 33.2473 23.5624 33.308 23.5372C33.3688 23.512 33.4339 23.499 33.4997 23.499C33.5654 23.499 33.6305 23.512 33.6913 23.5372C33.752 23.5624 33.8072 23.5994 33.8537 23.6459V23.6459Z" fill="#198754"/>
<rect x="4" y="4" width="48" height="48" rx="24" stroke="#E6FFF3" stroke-width="8"/>
</svg>
