<svg width="12" height="14" viewBox="0 0 12 14" fill="none" xmlns="http://www.w3.org/2000/svg">
<path d="M3.83819 5.33829C3.95286 5.33829 4.06284 5.38384 4.14392 5.46493C4.225 5.54601 4.27056 5.65599 4.27056 5.77066V10.959C4.27056 11.0737 4.225 11.1837 4.14392 11.2648C4.06284 11.3458 3.95286 11.3914 3.83819 11.3914C3.72352 11.3914 3.61355 11.3458 3.53246 11.2648C3.45138 11.1837 3.40583 11.0737 3.40583 10.959V5.77066C3.40583 5.65599 3.45138 5.54601 3.53246 5.46493C3.61355 5.38384 3.72352 5.33829 3.83819 5.33829ZM6.00002 5.33829C6.11469 5.33829 6.22466 5.38384 6.30575 5.46493C6.38683 5.54601 6.43238 5.65599 6.43238 5.77066V10.959C6.43238 11.0737 6.38683 11.1837 6.30575 11.2648C6.22466 11.3458 6.11469 11.3914 6.00002 11.3914C5.88535 11.3914 5.77537 11.3458 5.69429 11.2648C5.61321 11.1837 5.56765 11.0737 5.56765 10.959V5.77066C5.56765 5.65599 5.61321 5.54601 5.69429 5.46493C5.77537 5.38384 5.88535 5.33829 6.00002 5.33829ZM8.59421 5.77066C8.59421 5.65599 8.54866 5.54601 8.46757 5.46493C8.38649 5.38384 8.27651 5.33829 8.16184 5.33829C8.04717 5.33829 7.9372 5.38384 7.85611 5.46493C7.77503 5.54601 7.72948 5.65599 7.72948 5.77066V10.959C7.72948 11.0737 7.77503 11.1837 7.85611 11.2648C7.9372 11.3458 8.04717 11.3914 8.16184 11.3914C8.27651 11.3914 8.38649 11.3458 8.46757 11.2648C8.54866 11.1837 8.59421 11.0737 8.59421 10.959V5.77066Z" fill="white"/>
<path fill-rule="evenodd" clip-rule="evenodd" d="M11.6208 3.17647C11.6208 3.40581 11.5297 3.62575 11.3675 3.78792C11.2053 3.95009 10.9854 4.0412 10.756 4.0412H10.3237V11.8238C10.3237 12.2824 10.1415 12.7223 9.81712 13.0467C9.49278 13.371 9.05289 13.5532 8.59421 13.5532H3.40583C2.94715 13.5532 2.50725 13.371 2.18291 13.0467C1.85858 12.7223 1.67637 12.2824 1.67637 11.8238V4.0412H1.244C1.01466 4.0412 0.794714 3.95009 0.632546 3.78792C0.470378 3.62575 0.379272 3.40581 0.379272 3.17647V2.31174C0.379272 2.08239 0.470378 1.86245 0.632546 1.70028C0.794714 1.53811 1.01466 1.44701 1.244 1.44701H4.27056C4.27056 1.21766 4.36166 0.997717 4.52383 0.835549C4.686 0.673381 4.90595 0.582275 5.13529 0.582275H6.86475C7.09409 0.582275 7.31404 0.673381 7.4762 0.835549C7.63837 0.997717 7.72948 1.21766 7.72948 1.44701H10.756C10.9854 1.44701 11.2053 1.53811 11.3675 1.70028C11.5297 1.86245 11.6208 2.08239 11.6208 2.31174V3.17647ZM2.64314 4.0412L2.5411 4.09221V11.8238C2.5411 12.0531 2.6322 12.2731 2.79437 12.4352C2.95654 12.5974 3.17649 12.6885 3.40583 12.6885H8.59421C8.82355 12.6885 9.0435 12.5974 9.20566 12.4352C9.36783 12.2731 9.45894 12.0531 9.45894 11.8238V4.09221L9.3569 4.0412H2.64314ZM1.244 3.17647V2.31174H10.756V3.17647H1.244Z" fill="white"/>
</svg>
