<svg width="23" height="24" viewBox="0 0 23 24" fill="none" xmlns="http://www.w3.org/2000/svg">
<path d="M7.90625 14.2665C8.01593 15.6968 9.09807 16.8117 11.043 16.9438V18H11.9058V16.9364C13.9165 16.7897 15.0938 15.6675 15.0938 14.0391C15.0938 12.5575 14.1944 11.7946 12.5858 11.3985L11.9058 11.2298V8.35452C12.7686 8.45721 13.317 8.94866 13.4486 9.63081H14.9621C14.8525 8.25183 13.7191 7.17359 11.9058 7.05623V6H11.043V7.07824C9.32474 7.25428 8.15485 8.33252 8.15485 9.85819C8.15485 11.2078 9.02495 12.066 10.4727 12.4181L11.043 12.5648V15.6161C10.1583 15.4768 9.57334 14.9707 9.44173 14.2665H7.90625ZM11.0357 11.0171C10.1875 10.8117 9.72689 10.3936 9.72689 9.76284C9.72689 9.05868 10.2241 8.53056 11.043 8.37653V11.0171H11.0357ZM12.0301 12.8068C13.0611 13.0562 13.5363 13.4597 13.5363 14.1712C13.5363 14.9853 12.9441 15.5428 11.9058 15.6455V12.7775L12.0301 12.8068Z" fill="white"/>
<path d="M11.5 22.5C5.94264 22.5 1.4375 17.799 1.4375 12C1.4375 6.20101 5.94264 1.5 11.5 1.5C17.0574 1.5 21.5625 6.20101 21.5625 12C21.5625 17.799 17.0574 22.5 11.5 22.5ZM11.5 24C17.8513 24 23 18.6274 23 12C23 5.37258 17.8513 0 11.5 0C5.14873 0 0 5.37258 0 12C0 18.6274 5.14873 24 11.5 24Z" fill="white"/>
<path d="M11.5 20.25C7.1335 20.25 3.59375 16.5563 3.59375 12C3.59375 7.44365 7.1335 3.75 11.5 3.75C15.8665 3.75 19.4062 7.44365 19.4062 12C19.4062 16.5563 15.8665 20.25 11.5 20.25ZM11.5 21C16.2635 21 20.125 16.9706 20.125 12C20.125 7.02944 16.2635 3 11.5 3C6.73654 3 2.875 7.02944 2.875 12C2.875 16.9706 6.73654 21 11.5 21Z" fill="white"/>
</svg>
